SplineFontDB: 3.0
FontName: Asap-BoldItalic
FullName: Asap BoldItalic
FamilyName: Asap
Weight: Bold
Copyright: Copyright (c) 2011-2014, Omnibus-Type (www.omnibus-type.com omnibus.type@gmail.com) with Reserved Font Name 'Asap'
Version: 001.006
ItalicAngle: -6
UnderlinePosition: -50
UnderlineWidth: 50
Ascent: 800
Descent: 200
sfntRevision: 0x00010189
LayerCount: 2
Layer: 0 1 "Back"  1
Layer: 1 1 "Fore"  0
XUID: [1021 191 1600663927 12856651]
FSType: 8
OS2Version: 3
OS2_WeightWidthSlopeOnly: 0
OS2_UseTypoMetrics: 1
CreationTime: 1410960463
ModificationTime: 1410988229
PfmFamily: 17
TTFWeight: 700
TTFWidth: 5
LineGap: 0
VLineGap: 0
Panose: 2 15 8 4 3 1 2 13 2 3
OS2TypoAscent: 1015
OS2TypoAOffset: 0
OS2TypoDescent: -240
OS2TypoDOffset: 0
OS2TypoLinegap: 0
OS2WinAscent: 1015
OS2WinAOffset: 0
OS2WinDescent: 240
OS2WinDOffset: 0
HheadAscent: 1015
HheadAOffset: 0
HheadDescent: -240
HheadDOffset: 0
OS2SubXSize: 650
OS2SubYSize: 600
OS2SubXOff: -8
OS2SubYOff: 75
OS2SupXSize: 650
OS2SupYSize: 600
OS2SupXOff: 37
OS2SupYOff: 350
OS2StrikeYSize: 50
OS2StrikeYPos: 313
OS2Vendor: 'OMNI'
OS2CodePages: 20000193.00000000
OS2UnicodeRanges: 20000007.00000000.00000000.00000000
Lookup: 1 0 0 "'aalt' Access All Alternates lookup 0"  {"'aalt' Access All Alternates lookup 0 subtable"  } ['aalt' ('DFLT' <'dflt' > 'grek' <'dflt' > 'latn' <'AZE ' 'CAT ' 'CRT ' 'ESP ' 'KAZ ' 'MOL ' 'NLD ' 'PLK ' 'ROM ' 'TAT ' 'TRK ' 'dflt' > ) ]
Lookup: 6 0 0 "'locl' Localized Forms in Latin lookup 1"  {"'locl' Localized Forms in Latin lookup 1 contextual 0"  "'locl' Localized Forms in Latin lookup 1 contextual 1"  } ['locl' ('latn' <'AZE ' 'CAT ' 'CRT ' 'ESP ' 'KAZ ' 'MOL ' 'PLK ' 'ROM ' 'TAT ' 'TRK ' 'dflt' > ) ]
Lookup: 1 0 0 "'locl' Localized Forms in Latin lookup 2"  {"'locl' Localized Forms in Latin lookup 2 subtable"  } ['locl' ('latn' <'TRK ' > ) ]
Lookup: 1 0 0 "'locl' Localized Forms in Latin lookup 3"  {"'locl' Localized Forms in Latin lookup 3 subtable"  } ['locl' ('latn' <'AZE ' > ) ]

StartChar: .notdef
Encoding: 65536 -1 0
Width: 515
Flags: MW
HStem: 0 50<65 405 65 480> 650 50<128 468 128 128>
VStem: -20 574
LayerCount: 2
Fore
SplineSet
54 700 m 1,0,-1
 554 700 l 1,1,-1
 480 0 l 1,2,-1
 -20 0 l 1,3,-1
 54 700 l 1,0,-1
468 650 m 1,4,-1
 128 650 l 1,5,-1
 272 395 l 1,6,-1
 468 650 l 1,4,-1
39 95 m 1,7,-1
 237 350 l 1,8,-1
 93 605 l 1,9,-1
 39 95 l 1,7,-1
439 95 m 1,10,-1
 493 605 l 1,11,-1
 297 350 l 1,12,-1
 439 95 l 1,10,-1
405 50 m 1,13,-1
 261 305 l 1,14,-1
 65 50 l 1,15,-1
 405 50 l 1,13,-1
EndSplineSet
EndChar

StartChar: A
Encoding: 65 65 1
Width: 613
GlyphClass: 2
Flags: MW
HStem: 141 132<221 375 221 406 164 375> 682 20G<319 371 371 385.5>
VStem: -37 624<14 21>
AnchorPoint: "Anchor-1" 345 700 basechar 0
AnchorPoint: "Anchor-0" 301 0 basechar 0
LayerCount: 2
Fore
SplineSet
319 702 m 2,0,-1
 371 702 l 2,1,2
 421 702 421 702 426 681 c 2,3,-1
 584 38 l 2,4,5
 587 29 587 29 587 21 c 0,6,7
 587 -2 587 -2 533 -2 c 2,8,-1
 489 -2 l 2,9,10
 440 -2 440 -2 435 19 c 2,11,-1
 406 141 l 1,12,-1
 164 141 l 1,13,-1
 109 19 l 2,14,15
 99 -2 99 -2 61 -2 c 2,16,-1
 21 -2 l 2,17,18
 -37 -2 -37 -2 -37 18 c 0,19,20
 -37 26 -37 26 -31 38 c 2,21,-1
 260 681 l 2,22,23
 269 702 269 702 319 702 c 2,0,-1
327 515 m 1,24,-1
 323 515 l 1,25,26
 311 474 311 474 301 451 c 2,27,-1
 221 273 l 1,28,-1
 375 273 l 1,29,-1
 335 451 l 2,30,31
 329 477 329 477 327 515 c 1,24,-1
EndSplineSet
Substitution2: "Single Substitution lookup 20 subtable" ordfeminine
Substitution2: "'aalt' Access All Alternates lookup 0 subtable" ordfeminine
Position2: "'cpsp' Capital Spacing lookup 0 subtable" dx=5 dy=0 dh=10 dv=0
EndChar

StartChar: Aacute
Encoding: 193 193 2
Width: 613
GlyphClass: 2
Flags: MW
HStem: 141 132<221 375 221 406 164 375> 682 20G<319 371 371 385.5> 752 159<306 472>
VStem: -37 624<14 21>
AnchorPoint: "Anchor-1" 381 877 basechar 0
AnchorPoint: "Anchor-0" 301 0 basechar 0
LayerCount: 2
Fore
SplineSet
335 839.5 m 128,-1,1
 350 861 350 861 366.5 886 c 128,-1,2
 383 911 383 911 447 911 c 128,-1,3
 511 911 511 911 511 898 c 0,4,5
 511 891 511 891 506.5 885.5 c 128,-1,6
 502 880 502 880 466 845.5 c 128,-1,7
 430 811 430 811 400 781.5 c 128,-1,8
 370 752 370 752 317 752 c 0,9,10
 288 752 288 752 288 765 c 0,11,12
 288 771.153846154 288 771.153846154 296.5 783.576923077 c 128,-1,13
 305 796 305 796 312.5 807 c 128,-1,0
 320 818 320 818 335 839.5 c 128,-1,1
319 702 m 2,14,-1
 371 702 l 2,15,16
 421 702 421 702 426 681 c 2,17,-1
 584 38 l 2,18,19
 587 29 587 29 587 21 c 0,20,21
 587 -2 587 -2 533 -2 c 2,22,-1
 489 -2 l 2,23,24
 440 -2 440 -2 435 19 c 2,25,-1
 406 141 l 1,26,-1
 164 141 l 1,27,-1
 109 19 l 2,28,29
 99 -2 99 -2 61 -2 c 2,30,-1
 21 -2 l 2,31,32
 -37 -2 -37 -2 -37 18 c 0,33,34
 -37 26 -37 26 -31 38 c 2,35,-1
 260 681 l 2,36,37
 269 702 269 702 319 702 c 2,14,-1
327 515 m 1,38,-1
 323 515 l 1,39,40
 311 474 311 474 301 451 c 2,41,-1
 221 273 l 1,42,-1
 375 273 l 1,43,-1
 335 451 l 2,44,45
 329 477 329 477 327 515 c 1,38,-1
EndSplineSet
Position2: "'cpsp' Capital Spacing lookup 0 subtable" dx=5 dy=0 dh=10 dv=0
EndChar

StartChar: Abreve
Encoding: 258 258 3
Width: 613
GlyphClass: 2
Flags: MW
HStem: 141 132<221 375 221 406 164 375> 682 20G<319 371 371 385.5> 752 91<332.5 387 332.5 391>
VStem: -37 624<14 21>
AnchorPoint: "Anchor-1" 364 863 basechar 0
AnchorPoint: "Anchor-0" 301 0 basechar 0
LayerCount: 2
Fore
SplineSet
475 892 m 0,0,1
 507 892 507 892 507 868 c 0,2,3
 507 823 507 823 459.5 787.5 c 128,-1,4
 412 752 412 752 350 752 c 128,-1,5
 288 752 288 752 250 782.5 c 128,-1,6
 212 813 212 813 212 852.5 c 128,-1,7
 212 892 212 892 251 892 c 0,8,9
 268 892 268 892 282 874 c 0,10,11
 306 843 306 843 358 843 c 0,12,13
 392.727272727 843 392.727272727 843 406.363636364 850.5 c 128,-1,14
 420 858 420 858 424 860 c 128,-1,15
 428 862 428 862 437 870.5 c 2,16,-1
 446 879 l 2,17,18
 459 892 459 892 475 892 c 0,0,1
319 702 m 2,19,-1
 371 702 l 2,20,21
 421 702 421 702 426 681 c 2,22,-1
 584 38 l 2,23,24
 587 29 587 29 587 21 c 0,25,26
 587 -2 587 -2 533 -2 c 2,27,-1
 489 -2 l 2,28,29
 440 -2 440 -2 435 19 c 2,30,-1
 406 141 l 1,31,-1
 164 141 l 1,32,-1
 109 19 l 2,33,34
 99 -2 99 -2 61 -2 c 2,35,-1
 21 -2 l 2,36,37
 -37 -2 -37 -2 -37 18 c 0,38,39
 -37 26 -37 26 -31 38 c 2,40,-1
 260 681 l 2,41,42
 269 702 269 702 319 702 c 2,19,-1
327 515 m 1,43,-1
 323 515 l 1,44,45
 311 474 311 474 301 451 c 2,46,-1
 221 273 l 1,47,-1
 375 273 l 1,48,-1
 335 451 l 2,49,50
 329 477 329 477 327 515 c 1,43,-1
EndSplineSet
Position2: "'cpsp' Capital Spacing lookup 0 subtable" dx=5 dy=0 dh=10 dv=0
EndChar

StartChar: Abreveacute
Encoding: 7854 7854 4
Width: 613
GlyphClass: 2
Flags: MW
HStem: 141 132<221 375 221 406 164 375> 682 20G<319 371 371 385.5> 751 83<334.5 389 334.5 393>
VStem: -37 624<14 21>
AnchorPoint: "Anchor-1" 365 872 basechar 0
AnchorPoint: "Anchor-0" 301 0 basechar 0
LayerCount: 2
Fore
SplineSet
444 1006 m 0,0,1
 482 1006 482 1006 482 983 c 0,2,3
 482 967 482 967 396 882 c 0,4,5
 379 867 379 867 338 867 c 0,6,7
 319 867 319 867 319 880 c 0,8,9
 319 886 319 886 366 979 c 0,10,11
 380 1006 380 1006 444 1006 c 0,0,1
477 883 m 0,12,13
 509 883 509 883 509 859 c 0,14,15
 509 818 509 818 461 784.5 c 128,-1,16
 413 751 413 751 351.5 751 c 128,-1,17
 290 751 290 751 252 780 c 128,-1,18
 214 809 214 809 214 846 c 128,-1,19
 214 883 214 883 253 883 c 0,20,21
 270 883 270 883 284 865 c 0,22,23
 307 834 307 834 360 834 c 0,24,25
 409.818181818 834 409.818181818 834 430.5 851.5 c 0,26,27
 437 857 437 857 448 870 c 0,28,29
 461 883 461 883 477 883 c 0,12,13
319 702 m 2,30,-1
 371 702 l 2,31,32
 421 702 421 702 426 681 c 2,33,-1
 584 38 l 2,34,35
 587 29 587 29 587 21 c 0,36,37
 587 -2 587 -2 533 -2 c 2,38,-1
 489 -2 l 2,39,40
 440 -2 440 -2 435 19 c 2,41,-1
 406 141 l 1,42,-1
 164 141 l 1,43,-1
 109 19 l 2,44,45
 99 -2 99 -2 61 -2 c 2,46,-1
 21 -2 l 2,47,48
 -37 -2 -37 -2 -37 18 c 0,49,50
 -37 26 -37 26 -31 38 c 2,51,-1
 260 681 l 2,52,53
 269 702 269 702 319 702 c 2,30,-1
327 515 m 1,54,-1
 323 515 l 1,55,56
 311 474 311 474 301 451 c 2,57,-1
 221 273 l 1,58,-1
 375 273 l 1,59,-1
 335 451 l 2,60,61
 329 477 329 477 327 515 c 1,54,-1
EndSplineSet
Position2: "'cpsp' Capital Spacing lookup 0 subtable" dx=5 dy=0 dh=10 dv=0
EndChar

StartChar: Abrevedotbelow
Encoding: 7862 7862 5
Width: 613
GlyphClass: 2
Flags: MW
HStem: -204 124<269 297> 141 132<221 375 221 406 164 375> 682 20G<319 371 371 385.5> 752 91<332.5 387 332.5 391>
VStem: -37 624<14 21> 220 127<-182.5 -101.5>
AnchorPoint: "Anchor-1" 310 -82 basechar 0
AnchorPoint: "Anchor-0" 280 -203 basechar 0
LayerCount: 2
Fore
SplineSet
475 892 m 0,0,1
 507 892 507 892 507 868 c 0,2,3
 507 823 507 823 459.5 787.5 c 128,-1,4
 412 752 412 752 350 752 c 128,-1,5
 288 752 288 752 250 782.5 c 128,-1,6
 212 813 212 813 212 852.5 c 128,-1,7
 212 892 212 892 251 892 c 0,8,9
 268 892 268 892 282 874 c 0,10,11
 306 843 306 843 358 843 c 0,12,13
 392.727272727 843 392.727272727 843 406.363636364 850.5 c 128,-1,14
 420 858 420 858 424 860 c 128,-1,15
 428 862 428 862 437 870.5 c 2,16,-1
 446 879 l 2,17,18
 459 892 459 892 475 892 c 0,0,1
319 702 m 2,19,-1
 371 702 l 2,20,21
 421 702 421 702 426 681 c 2,22,-1
 584 38 l 2,23,24
 587 29 587 29 587 21 c 0,25,26
 587 -2 587 -2 533 -2 c 2,27,-1
 489 -2 l 2,28,29
 440 -2 440 -2 435 19 c 2,30,-1
 406 141 l 1,31,-1
 164 141 l 1,32,-1
 109 19 l 2,33,34
 99 -2 99 -2 61 -2 c 2,35,-1
 21 -2 l 2,36,37
 -37 -2 -37 -2 -37 18 c 0,38,39
 -37 26 -37 26 -31 38 c 2,40,-1
 260 681 l 2,41,42
 269 702 269 702 319 702 c 2,19,-1
327 515 m 1,43,-1
 323 515 l 1,44,45
 311 474 311 474 301 451 c 2,46,-1
 221 273 l 1,47,-1
 375 273 l 1,48,-1
 335 451 l 2,49,50
 329 477 329 477 327 515 c 1,43,-1
227 -112 m 2,51,52
 230 -80 230 -80 288.5 -80 c 128,-1,53
 347 -80 347 -80 347 -112 c 1,54,-1
 340 -172 l 1,55,56
 335 -204 335 -204 277.5 -204 c 128,-1,57
 220 -204 220 -204 220 -172 c 1,58,-1
 227 -112 l 2,51,52
EndSplineSet
Position2: "'cpsp' Capital Spacing lookup 0 subtable" dx=5 dy=0 dh=10 dv=0
EndChar

StartChar: Abrevegrave
Encoding: 7856 7856 6
Width: 613
GlyphClass: 2
Flags: MW
HStem: 141 132<221 375 221 406 164 375> 682 20G<319 371 371 385.5> 751 83<334.5 389 334.5 393> 868 139<282 387>
VStem: -37 624<14 21>
AnchorPoint: "Anchor-1" 365 872 basechar 0
AnchorPoint: "Anchor-0" 301 0 basechar 0
LayerCount: 2
Fore
SplineSet
298 1007 m 0,0,1
 371 1007 371 1007 380 980 c 0,2,3
 408 889 408 889 408 884 c 0,4,5
 408 868 408 868 371.5 868 c 128,-1,6
 335 868 335 868 318 890.5 c 0,7,8
 249 981.823529412 249 981.823529412 249 991 c 0,9,10
 249 1007 249 1007 298 1007 c 0,0,1
477 883 m 0,11,12
 509 883 509 883 509 859 c 0,13,14
 509 818 509 818 461 784.5 c 128,-1,15
 413 751 413 751 351.5 751 c 128,-1,16
 290 751 290 751 252 780 c 128,-1,17
 214 809 214 809 214 846 c 128,-1,18
 214 883 214 883 253 883 c 0,19,20
 270 883 270 883 284 865 c 0,21,22
 307 834 307 834 360 834 c 0,23,24
 409.818181818 834 409.818181818 834 430.5 851.5 c 0,25,26
 437 857 437 857 448 870 c 0,27,28
 461 883 461 883 477 883 c 0,11,12
319 702 m 2,29,-1
 371 702 l 2,30,31
 421 702 421 702 426 681 c 2,32,-1
 584 38 l 2,33,34
 587 29 587 29 587 21 c 0,35,36
 587 -2 587 -2 533 -2 c 2,37,-1
 489 -2 l 2,38,39
 440 -2 440 -2 435 19 c 2,40,-1
 406 141 l 1,41,-1
 164 141 l 1,42,-1
 109 19 l 2,43,44
 99 -2 99 -2 61 -2 c 2,45,-1
 21 -2 l 2,46,47
 -37 -2 -37 -2 -37 18 c 0,48,49
 -37 26 -37 26 -31 38 c 2,50,-1
 260 681 l 2,51,52
 269 702 269 702 319 702 c 2,29,-1
327 515 m 1,53,-1
 323 515 l 1,54,55
 311 474 311 474 301 451 c 2,56,-1
 221 273 l 1,57,-1
 375 273 l 1,58,-1
 335 451 l 2,59,60
 329 477 329 477 327 515 c 1,53,-1
EndSplineSet
Position2: "'cpsp' Capital Spacing lookup 0 subtable" dx=5 dy=0 dh=10 dv=0
EndChar

StartChar: Abrevehookabove
Encoding: 7858 7858 7
Width: 613
GlyphClass: 2
Flags: MW
HStem: 141 132<221 375 221 406 164 375> 682 20G<319 371 371 385.5> 751 83<334.5 389 334.5 393> 939 70<302 393>
VStem: 379 70<932 944.5>
AnchorPoint: "Anchor-1" 365 872 basechar 0
AnchorPoint: "Anchor-0" 301 0 basechar 0
LayerCount: 2
Fore
SplineSet
379 939 m 0,0,1
 379 956 379 956 359.5 956 c 128,-1,2
 340 956 340 956 324 947.5 c 128,-1,3
 308 939 308 939 306 939 c 0,4,5
 300 939 300 939 290.5 954.5 c 128,-1,6
 281 970 281 970 281 980.5 c 128,-1,7
 281 991 281 991 309 1000 c 128,-1,8
 337 1009 337 1009 364 1009 c 0,9,10
 449 1009 449 1009 449 943 c 0,11,12
 449 915 449 915 412 892 c 128,-1,13
 375 869 375 869 365 869 c 0,14,15
 324 869 324 869 324 890 c 0,16,17
 324 902 324 902 345 910 c 0,18,19
 368.11627907 919.906976744 368.11627907 919.906976744 373.558139535 925.953488372 c 128,-1,20
 379 932 379 932 379 939 c 0,0,1
477 883 m 0,21,22
 509 883 509 883 509 859 c 0,23,24
 509 818 509 818 461 784.5 c 128,-1,25
 413 751 413 751 351.5 751 c 128,-1,26
 290 751 290 751 252 780 c 128,-1,27
 214 809 214 809 214 846 c 128,-1,28
 214 883 214 883 253 883 c 0,29,30
 270 883 270 883 284 865 c 0,31,32
 307 834 307 834 360 834 c 0,33,34
 409.818181818 834 409.818181818 834 430.5 851.5 c 0,35,36
 437 857 437 857 448 870 c 0,37,38
 461 883 461 883 477 883 c 0,21,22
319 702 m 2,39,-1
 371 702 l 2,40,41
 421 702 421 702 426 681 c 2,42,-1
 584 38 l 2,43,44
 587 29 587 29 587 21 c 0,45,46
 587 -2 587 -2 533 -2 c 2,47,-1
 489 -2 l 2,48,49
 440 -2 440 -2 435 19 c 2,50,-1
 406 141 l 1,51,-1
 164 141 l 1,52,-1
 109 19 l 2,53,54
 99 -2 99 -2 61 -2 c 2,55,-1
 21 -2 l 2,56,57
 -37 -2 -37 -2 -37 18 c 0,58,59
 -37 26 -37 26 -31 38 c 2,60,-1
 260 681 l 2,61,62
 269 702 269 702 319 702 c 2,39,-1
327 515 m 1,63,-1
 323 515 l 1,64,65
 311 474 311 474 301 451 c 2,66,-1
 221 273 l 1,67,-1
 375 273 l 1,68,-1
 335 451 l 2,69,70
 329 477 329 477 327 515 c 1,63,-1
EndSplineSet
Position2: "'cpsp' Capital Spacing lookup 0 subtable" dx=5 dy=0 dh=10 dv=0
EndChar

StartChar: Abrevetilde
Encoding: 7860 7860 8
Width: 613
GlyphClass: 2
Flags: MW
HStem: 141 132<221 375 221 406 164 375> 682 20G<319 371 371 385.5> 751 83<334.5 389 334.5 393> 903 86<425.5 438.5> 915 100
VStem: -37 624<14 21>
AnchorPoint: "Anchor-1" 365 872 basechar 0
AnchorPoint: "Anchor-0" 301 0 basechar 0
LayerCount: 2
Fore
SplineSet
322 1015 m 0,0,1
 354 1015 354 1015 384.5 1002 c 128,-1,2
 415 989 415 989 437.5 989 c 128,-1,3
 460 989 460 989 483 1004.5 c 128,-1,4
 506 1020 506 1020 523 996 c 0,5,6
 532 985 532 985 531 973.5 c 128,-1,7
 530 962 530 962 516 944 c 0,8,9
 478 903 478 903 420 903 c 0,10,11
 386 903 386 903 352 916 c 128,-1,12
 318 929 318 929 303 929 c 128,-1,13
 288 929 288 929 265.5 916 c 128,-1,14
 243 903 243 903 227 929 c 128,-1,15
 211 955 211 955 229 974 c 0,16,17
 275 1015 275 1015 322 1015 c 0,0,1
477 883 m 0,18,19
 509 883 509 883 509 859 c 0,20,21
 509 818 509 818 461 784.5 c 128,-1,22
 413 751 413 751 351.5 751 c 128,-1,23
 290 751 290 751 252 780 c 128,-1,24
 214 809 214 809 214 846 c 128,-1,25
 214 883 214 883 253 883 c 0,26,27
 270 883 270 883 284 865 c 0,28,29
 307 834 307 834 360 834 c 0,30,31
 409.818181818 834 409.818181818 834 430.5 851.5 c 0,32,33
 437 857 437 857 448 870 c 0,34,35
 461 883 461 883 477 883 c 0,18,19
319 702 m 2,36,-1
 371 702 l 2,37,38
 421 702 421 702 426 681 c 2,39,-1
 584 38 l 2,40,41
 587 29 587 29 587 21 c 0,42,43
 587 -2 587 -2 533 -2 c 2,44,-1
 489 -2 l 2,45,46
 440 -2 440 -2 435 19 c 2,47,-1
 406 141 l 1,48,-1
 164 141 l 1,49,-1
 109 19 l 2,50,51
 99 -2 99 -2 61 -2 c 2,52,-1
 21 -2 l 2,53,54
 -37 -2 -37 -2 -37 18 c 0,55,56
 -37 26 -37 26 -31 38 c 2,57,-1
 260 681 l 2,58,59
 269 702 269 702 319 702 c 2,36,-1
327 515 m 1,60,-1
 323 515 l 1,61,62
 311 474 311 474 301 451 c 2,63,-1
 221 273 l 1,64,-1
 375 273 l 1,65,-1
 335 451 l 2,66,67
 329 477 329 477 327 515 c 1,60,-1
EndSplineSet
Position2: "'cpsp' Capital Spacing lookup 0 subtable" dx=5 dy=0 dh=10 dv=0
EndChar

StartChar: Acircumflex
Encoding: 194 194 9
Width: 613
GlyphClass: 2
Flags: MW
HStem: 141 132<221 375 221 406 164 375> 682 20G<319 371 371 385.5> 749 146<222 366 228 366 355 441 355 463>
VStem: -37 624<14 21>
AnchorPoint: "Anchor-1" 540 774 basechar 0
AnchorPoint: "Anchor-0" 301 0 basechar 0
LayerCount: 2
Fore
SplineSet
355 895 m 2,0,-1
 366 895 l 2,1,2
 414 895 414 895 425 876 c 2,3,-1
 479 774 l 1,4,5
 482 766 482 766 482 762 c 0,6,7
 482 749 482 749 463 749 c 2,8,-1
 441 749 l 2,9,10
 392 749 392 749 377 773 c 2,11,-1
 352 813 l 1,12,-1
 321 774 l 2,13,14
 302 749 302 749 252 749 c 2,15,-1
 228 749 l 2,16,17
 209 749 209 749 209 759 c 0,18,19
 209 766 209 766 216 774 c 2,20,-1
 292 876 l 2,21,22
 306 895 306 895 355 895 c 2,0,-1
319 702 m 2,23,-1
 371 702 l 2,24,25
 421 702 421 702 426 681 c 2,26,-1
 584 38 l 2,27,28
 587 29 587 29 587 21 c 0,29,30
 587 -2 587 -2 533 -2 c 2,31,-1
 489 -2 l 2,32,33
 440 -2 440 -2 435 19 c 2,34,-1
 406 141 l 1,35,-1
 164 141 l 1,36,-1
 109 19 l 2,37,38
 99 -2 99 -2 61 -2 c 2,39,-1
 21 -2 l 2,40,41
 -37 -2 -37 -2 -37 18 c 0,42,43
 -37 26 -37 26 -31 38 c 2,44,-1
 260 681 l 2,45,46
 269 702 269 702 319 702 c 2,23,-1
327 515 m 1,47,-1
 323 515 l 1,48,49
 311 474 311 474 301 451 c 2,50,-1
 221 273 l 1,51,-1
 375 273 l 1,52,-1
 335 451 l 2,53,54
 329 477 329 477 327 515 c 1,47,-1
EndSplineSet
Position2: "'cpsp' Capital Spacing lookup 0 subtable" dx=5 dy=0 dh=10 dv=0
EndChar

StartChar: Acircumflexacute
Encoding: 7844 7844 10
Width: 613
GlyphClass: 2
Flags: MW
HStem: 141 132<221 375 221 406 164 375> 682 20G<319 371 371 385.5> 749 146<219 363 225 363 352 423 352 445>
VStem: -37 646
AnchorPoint: "Anchor-1" 492 829 basechar 0
AnchorPoint: "Anchor-0" 301 0 basechar 0
LayerCount: 2
Fore
SplineSet
571 963 m 0,0,1
 609 963 609 963 609 940 c 0,2,3
 609 924 609 924 523 839 c 0,4,5
 506 824 506 824 465 824 c 0,6,7
 446 824 446 824 446 837 c 0,8,9
 446 843 446 843 493 936 c 0,10,11
 507 963 507 963 571 963 c 0,0,1
352 895 m 2,12,-1
 363 895 l 2,13,14
 403 895 403 895 412 876 c 2,15,-1
 461 774 l 2,16,17
 464 766 464 766 464 762 c 0,18,19
 464 749 464 749 445 749 c 2,20,-1
 423 749 l 2,21,22
 364 749 364 749 359 773 c 2,23,-1
 349 813 l 1,24,-1
 318 774 l 2,25,26
 299 749 299 749 249 749 c 2,27,-1
 225 749 l 2,28,29
 206 749 206 749 206 759 c 0,30,31
 206 766 206 766 213 774 c 2,32,-1
 289 876 l 2,33,34
 303 895 303 895 352 895 c 2,12,-1
319 702 m 2,35,-1
 371 702 l 2,36,37
 421 702 421 702 426 681 c 2,38,-1
 584 38 l 2,39,40
 587 29 587 29 587 21 c 0,41,42
 587 -2 587 -2 533 -2 c 2,43,-1
 489 -2 l 2,44,45
 440 -2 440 -2 435 19 c 2,46,-1
 406 141 l 1,47,-1
 164 141 l 1,48,-1
 109 19 l 2,49,50
 99 -2 99 -2 61 -2 c 2,51,-1
 21 -2 l 2,52,53
 -37 -2 -37 -2 -37 18 c 0,54,55
 -37 26 -37 26 -31 38 c 2,56,-1
 260 681 l 2,57,58
 269 702 269 702 319 702 c 2,35,-1
327 515 m 1,59,-1
 323 515 l 1,60,61
 311 474 311 474 301 451 c 2,62,-1
 221 273 l 1,63,-1
 375 273 l 1,64,-1
 335 451 l 2,65,66
 329 477 329 477 327 515 c 1,59,-1
EndSplineSet
Position2: "'cpsp' Capital Spacing lookup 0 subtable" dx=5 dy=0 dh=10 dv=0
EndChar

StartChar: Acircumflexdotbelow
Encoding: 7852 7852 11
Width: 613
GlyphClass: 2
Flags: MW
HStem: -204 124<269 297> 141 132<221 375 221 406 164 375> 682 20G<319 371 371 385.5> 749 146<222 366 228 366 355 441 355 463>
VStem: -37 624<14 21> 220 127<-182.5 -101.5>
AnchorPoint: "Anchor-1" 310 -82 basechar 0
AnchorPoint: "Anchor-0" 280 -203 basechar 0
LayerCount: 2
Fore
SplineSet
355 895 m 2,0,-1
 366 895 l 2,1,2
 414 895 414 895 425 876 c 2,3,-1
 479 774 l 1,4,5
 482 766 482 766 482 762 c 0,6,7
 482 749 482 749 463 749 c 2,8,-1
 441 749 l 2,9,10
 392 749 392 749 377 773 c 2,11,-1
 352 813 l 1,12,-1
 321 774 l 2,13,14
 302 749 302 749 252 749 c 2,15,-1
 228 749 l 2,16,17
 209 749 209 749 209 759 c 0,18,19
 209 766 209 766 216 774 c 2,20,-1
 292 876 l 2,21,22
 306 895 306 895 355 895 c 2,0,-1
319 702 m 2,23,-1
 371 702 l 2,24,25
 421 702 421 702 426 681 c 2,26,-1
 584 38 l 2,27,28
 587 29 587 29 587 21 c 0,29,30
 587 -2 587 -2 533 -2 c 2,31,-1
 489 -2 l 2,32,33
 440 -2 440 -2 435 19 c 2,34,-1
 406 141 l 1,35,-1
 164 141 l 1,36,-1
 109 19 l 2,37,38
 99 -2 99 -2 61 -2 c 2,39,-1
 21 -2 l 2,40,41
 -37 -2 -37 -2 -37 18 c 0,42,43
 -37 26 -37 26 -31 38 c 2,44,-1
 260 681 l 2,45,46
 269 702 269 702 319 702 c 2,23,-1
327 515 m 1,47,-1
 323 515 l 1,48,49
 311 474 311 474 301 451 c 2,50,-1
 221 273 l 1,51,-1
 375 273 l 1,52,-1
 335 451 l 2,53,54
 329 477 329 477 327 515 c 1,47,-1
227 -112 m 2,55,56
 230 -80 230 -80 288.5 -80 c 128,-1,57
 347 -80 347 -80 347 -112 c 1,58,-1
 340 -172 l 1,59,60
 335 -204 335 -204 277.5 -204 c 128,-1,61
 220 -204 220 -204 220 -172 c 1,62,-1
 227 -112 l 2,55,56
EndSplineSet
Position2: "'cpsp' Capital Spacing lookup 0 subtable" dx=5 dy=0 dh=10 dv=0
EndChar

StartChar: Acircumflexgrave
Encoding: 7846 7846 12
Width: 613
GlyphClass: 2
Flags: MW
HStem: 141 132<221 375 221 406 164 375> 682 20G<319 371 371 385.5> 749 146<219 363 225 363 352 423 352 445> 825 139<409 514>
VStem: -37 624<14 21>
AnchorPoint: "Anchor-1" 492 829 basechar 0
AnchorPoint: "Anchor-0" 301 0 basechar 0
LayerCount: 2
Fore
SplineSet
425 964 m 0,0,1
 498 964 498 964 507 937 c 0,2,3
 535 846 535 846 535 841 c 0,4,5
 535 825 535 825 498.5 825 c 128,-1,6
 462 825 462 825 445 847.5 c 0,7,8
 376 938.823529412 376 938.823529412 376 948 c 0,9,10
 376 964 376 964 425 964 c 0,0,1
352 895 m 2,11,-1
 363 895 l 2,12,13
 403 895 403 895 412 876 c 2,14,-1
 461 774 l 2,15,16
 464 766 464 766 464 762 c 0,17,18
 464 749 464 749 445 749 c 2,19,-1
 423 749 l 2,20,21
 364 749 364 749 359 773 c 2,22,-1
 349 813 l 1,23,-1
 318 774 l 2,24,25
 299 749 299 749 249 749 c 2,26,-1
 225 749 l 2,27,28
 206 749 206 749 206 759 c 0,29,30
 206 766 206 766 213 774 c 2,31,-1
 289 876 l 2,32,33
 303 895 303 895 352 895 c 2,11,-1
319 702 m 2,34,-1
 371 702 l 2,35,36
 421 702 421 702 426 681 c 2,37,-1
 584 38 l 2,38,39
 587 29 587 29 587 21 c 0,40,41
 587 -2 587 -2 533 -2 c 2,42,-1
 489 -2 l 2,43,44
 440 -2 440 -2 435 19 c 2,45,-1
 406 141 l 1,46,-1
 164 141 l 1,47,-1
 109 19 l 2,48,49
 99 -2 99 -2 61 -2 c 2,50,-1
 21 -2 l 2,51,52
 -37 -2 -37 -2 -37 18 c 0,53,54
 -37 26 -37 26 -31 38 c 2,55,-1
 260 681 l 2,56,57
 269 702 269 702 319 702 c 2,34,-1
327 515 m 1,58,-1
 323 515 l 1,59,60
 311 474 311 474 301 451 c 2,61,-1
 221 273 l 1,62,-1
 375 273 l 1,63,-1
 335 451 l 2,64,65
 329 477 329 477 327 515 c 1,58,-1
EndSplineSet
Position2: "'cpsp' Capital Spacing lookup 0 subtable" dx=5 dy=0 dh=10 dv=0
EndChar

StartChar: Acircumflexhookabove
Encoding: 7848 7848 13
Width: 613
GlyphClass: 2
Flags: MW
HStem: 141 132<221 375 221 406 164 375> 682 20G<319 371 371 385.5> 749 146<219 363 225 363 352 423 352 445> 896 70<429 520>
VStem: 506 70<889 901.5>
AnchorPoint: "Anchor-1" 492 829 basechar 0
AnchorPoint: "Anchor-0" 301 0 basechar 0
LayerCount: 2
Fore
SplineSet
506 896 m 0,0,1
 506 913 506 913 486.5 913 c 128,-1,2
 467 913 467 913 451 904.5 c 128,-1,3
 435 896 435 896 433 896 c 0,4,5
 427 896 427 896 417.5 911.5 c 128,-1,6
 408 927 408 927 408 937.5 c 128,-1,7
 408 948 408 948 436 957 c 128,-1,8
 464 966 464 966 491 966 c 0,9,10
 576 966 576 966 576 900 c 0,11,12
 576 872 576 872 539 849 c 128,-1,13
 502 826 502 826 492 826 c 0,14,15
 451 826 451 826 451 847 c 0,16,17
 451 859 451 859 472 867 c 0,18,19
 495.11627907 876.906976744 495.11627907 876.906976744 500.558139535 882.953488372 c 128,-1,20
 506 889 506 889 506 896 c 0,0,1
352 895 m 2,21,-1
 363 895 l 2,22,23
 403 895 403 895 412 876 c 2,24,-1
 461 774 l 2,25,26
 464 766 464 766 464 762 c 0,27,28
 464 749 464 749 445 749 c 2,29,-1
 423 749 l 2,30,31
 364 749 364 749 359 773 c 2,32,-1
 349 813 l 1,33,-1
 318 774 l 2,34,35
 299 749 299 749 249 749 c 2,36,-1
 225 749 l 2,37,38
 206 749 206 749 206 759 c 0,39,40
 206 766 206 766 213 774 c 2,41,-1
 289 876 l 2,42,43
 303 895 303 895 352 895 c 2,21,-1
319 702 m 2,44,-1
 371 702 l 2,45,46
 421 702 421 702 426 681 c 2,47,-1
 584 38 l 2,48,49
 587 29 587 29 587 21 c 0,50,51
 587 -2 587 -2 533 -2 c 2,52,-1
 489 -2 l 2,53,54
 440 -2 440 -2 435 19 c 2,55,-1
 406 141 l 1,56,-1
 164 141 l 1,57,-1
 109 19 l 2,58,59
 99 -2 99 -2 61 -2 c 2,60,-1
 21 -2 l 2,61,62
 -37 -2 -37 -2 -37 18 c 0,63,64
 -37 26 -37 26 -31 38 c 2,65,-1
 260 681 l 2,66,67
 269 702 269 702 319 702 c 2,44,-1
327 515 m 1,68,-1
 323 515 l 1,69,70
 311 474 311 474 301 451 c 2,71,-1
 221 273 l 1,72,-1
 375 273 l 1,73,-1
 335 451 l 2,74,75
 329 477 329 477 327 515 c 1,68,-1
EndSplineSet
Position2: "'cpsp' Capital Spacing lookup 0 subtable" dx=5 dy=0 dh=10 dv=0
EndChar

StartChar: Acircumflextilde
Encoding: 7850 7850 14
Width: 613
GlyphClass: 2
Flags: MW
HStem: 141 132<221 375 221 406 164 375> 682 20G<319 371 371 385.5> 749 122<232 370 359 445 359 467> 903 86<425.5 438.5> 915 100
VStem: -37 624<14 21>
AnchorPoint: "Anchor-1" 367 877 basechar 0
AnchorPoint: "Anchor-0" 301 0 basechar 0
LayerCount: 2
Fore
SplineSet
322 1015 m 0,0,1
 354 1015 354 1015 384.5 1002 c 128,-1,2
 415 989 415 989 437.5 989 c 128,-1,3
 460 989 460 989 483 1004.5 c 128,-1,4
 506 1020 506 1020 523 996 c 0,5,6
 532 985 532 985 531 973.5 c 128,-1,7
 530 962 530 962 516 944 c 0,8,9
 478 903 478 903 420 903 c 0,10,11
 386 903 386 903 352 916 c 128,-1,12
 318 929 318 929 303 929 c 128,-1,13
 288 929 288 929 265.5 916 c 128,-1,14
 243 903 243 903 227 929 c 128,-1,15
 211 955 211 955 229 974 c 0,16,17
 275 1015 275 1015 322 1015 c 0,0,1
359 871 m 2,18,-1
 370 871 l 2,19,20
 414 871 414 871 429 852 c 1,21,-1
 483 774 l 1,22,23
 486 766 486 766 486 762 c 0,24,25
 486 749 486 749 467 749 c 2,26,-1
 445 749 l 2,27,28
 418 749 418 749 381 773 c 1,29,-1
 356 799 l 1,30,-1
 325 774 l 1,31,32
 318 771 318 771 307.5 765.5 c 128,-1,33
 297 760 297 760 291 757 c 0,34,35
 275 749 275 749 256 749 c 2,36,-1
 232 749 l 2,37,38
 213 749 213 749 213 759 c 0,39,40
 213 766 213 766 220 774 c 2,41,-1
 296 852 l 1,42,43
 316 871 316 871 359 871 c 2,18,-1
319 702 m 2,44,-1
 371 702 l 2,45,46
 421 702 421 702 426 681 c 2,47,-1
 584 38 l 2,48,49
 587 29 587 29 587 21 c 0,50,51
 587 -2 587 -2 533 -2 c 2,52,-1
 489 -2 l 2,53,54
 440 -2 440 -2 435 19 c 2,55,-1
 406 141 l 1,56,-1
 164 141 l 1,57,-1
 109 19 l 2,58,59
 99 -2 99 -2 61 -2 c 2,60,-1
 21 -2 l 2,61,62
 -37 -2 -37 -2 -37 18 c 0,63,64
 -37 26 -37 26 -31 38 c 2,65,-1
 260 681 l 2,66,67
 269 702 269 702 319 702 c 2,44,-1
327 515 m 1,68,-1
 323 515 l 1,69,70
 311 474 311 474 301 451 c 2,71,-1
 221 273 l 1,72,-1
 375 273 l 1,73,-1
 335 451 l 2,74,75
 329 477 329 477 327 515 c 1,68,-1
EndSplineSet
Position2: "'cpsp' Capital Spacing lookup 0 subtable" dx=5 dy=0 dh=10 dv=0
EndChar

StartChar: Adieresis
Encoding: 196 196 15
Width: 613
GlyphClass: 2
Flags: MW
HStem: 141 132<221 375 221 406 164 375> 682 20G<319 371 371 385.5> 755 124<254 282 434 462>
VStem: 205 127<776.5 857.5> 385 127<776.5 857.5>
AnchorPoint: "Anchor-1" 368 877 basechar 0
AnchorPoint: "Anchor-0" 301 0 basechar 0
LayerCount: 2
Fore
SplineSet
212 847 m 2,0,1
 215 879 215 879 273.5 879 c 128,-1,2
 332 879 332 879 332 847 c 1,3,-1
 325 787 l 1,4,5
 320 755 320 755 262.5 755 c 128,-1,6
 205 755 205 755 205 787 c 1,7,-1
 212 847 l 2,0,1
392 847 m 2,8,9
 395 879 395 879 453.5 879 c 128,-1,10
 512 879 512 879 512 847 c 1,11,-1
 505 787 l 1,12,13
 500 755 500 755 442.5 755 c 128,-1,14
 385 755 385 755 385 787 c 1,15,-1
 392 847 l 2,8,9
319 702 m 2,16,-1
 371 702 l 2,17,18
 421 702 421 702 426 681 c 2,19,-1
 584 38 l 2,20,21
 587 29 587 29 587 21 c 0,22,23
 587 -2 587 -2 533 -2 c 2,24,-1
 489 -2 l 2,25,26
 440 -2 440 -2 435 19 c 2,27,-1
 406 141 l 1,28,-1
 164 141 l 1,29,-1
 109 19 l 2,30,31
 99 -2 99 -2 61 -2 c 2,32,-1
 21 -2 l 2,33,34
 -37 -2 -37 -2 -37 18 c 0,35,36
 -37 26 -37 26 -31 38 c 2,37,-1
 260 681 l 2,38,39
 269 702 269 702 319 702 c 2,16,-1
327 515 m 1,40,-1
 323 515 l 1,41,42
 311 474 311 474 301 451 c 2,43,-1
 221 273 l 1,44,-1
 375 273 l 1,45,-1
 335 451 l 2,46,47
 329 477 329 477 327 515 c 1,40,-1
EndSplineSet
Position2: "'cpsp' Capital Spacing lookup 0 subtable" dx=5 dy=0 dh=10 dv=0
EndChar

StartChar: Adotbelow
Encoding: 7840 7840 16
Width: 613
GlyphClass: 2
Flags: MW
HStem: -204 124<269 297> 141 132<221 375 221 406 164 375> 682 20G<319 371 371 385.5>
VStem: -37 624<14 21> 220 127<-182.5 -101.5>
AnchorPoint: "Anchor-1" 310 -82 basechar 0
AnchorPoint: "Anchor-0" 280 -203 basechar 0
LayerCount: 2
Fore
SplineSet
319 702 m 2,0,-1
 371 702 l 2,1,2
 421 702 421 702 426 681 c 2,3,-1
 584 38 l 2,4,5
 587 29 587 29 587 21 c 0,6,7
 587 -2 587 -2 533 -2 c 2,8,-1
 489 -2 l 2,9,10
 440 -2 440 -2 435 19 c 2,11,-1
 406 141 l 1,12,-1
 164 141 l 1,13,-1
 109 19 l 2,14,15
 99 -2 99 -2 61 -2 c 2,16,-1
 21 -2 l 2,17,18
 -37 -2 -37 -2 -37 18 c 0,19,20
 -37 26 -37 26 -31 38 c 2,21,-1
 260 681 l 2,22,23
 269 702 269 702 319 702 c 2,0,-1
327 515 m 1,24,-1
 323 515 l 1,25,26
 311 474 311 474 301 451 c 2,27,-1
 221 273 l 1,28,-1
 375 273 l 1,29,-1
 335 451 l 2,30,31
 329 477 329 477 327 515 c 1,24,-1
227 -112 m 2,32,33
 230 -80 230 -80 288.5 -80 c 128,-1,34
 347 -80 347 -80 347 -112 c 1,35,-1
 340 -172 l 1,36,37
 335 -204 335 -204 277.5 -204 c 128,-1,38
 220 -204 220 -204 220 -172 c 1,39,-1
 227 -112 l 2,32,33
EndSplineSet
Position2: "'cpsp' Capital Spacing lookup 0 subtable" dx=5 dy=0 dh=10 dv=0
EndChar

StartChar: Agrave
Encoding: 192 192 17
Width: 613
GlyphClass: 2
Flags: MW
HStem: 141 132<221 375 221 406 164 375> 682 20G<319 371 371 385.5> 752 159<254 389>
VStem: -37 624<14 21>
AnchorPoint: "Anchor-1" 363 877 basechar 0
AnchorPoint: "Anchor-0" 301 0 basechar 0
LayerCount: 2
Fore
SplineSet
213 895 m 0,0,1
 213 911 213 911 278.5 911 c 128,-1,2
 344 911 344 911 357 884 c 0,3,4
 367 863 367 863 376.5 843 c 128,-1,5
 386 823 386 823 391.5 812 c 128,-1,6
 397 801 397 801 401.5 791 c 0,7,8
 410 772.111111111 410 772.111111111 410 768 c 0,9,10
 410 752 410 752 368 752 c 128,-1,11
 326 752 326 752 304 779 c 128,-1,12
 282 806 282 806 247.5 847 c 128,-1,13
 213 888 213 888 213 895 c 0,0,1
319 702 m 2,14,-1
 371 702 l 2,15,16
 421 702 421 702 426 681 c 2,17,-1
 584 38 l 2,18,19
 587 29 587 29 587 21 c 0,20,21
 587 -2 587 -2 533 -2 c 2,22,-1
 489 -2 l 2,23,24
 440 -2 440 -2 435 19 c 2,25,-1
 406 141 l 1,26,-1
 164 141 l 1,27,-1
 109 19 l 2,28,29
 99 -2 99 -2 61 -2 c 2,30,-1
 21 -2 l 2,31,32
 -37 -2 -37 -2 -37 18 c 0,33,34
 -37 26 -37 26 -31 38 c 2,35,-1
 260 681 l 2,36,37
 269 702 269 702 319 702 c 2,14,-1
327 515 m 1,38,-1
 323 515 l 1,39,40
 311 474 311 474 301 451 c 2,41,-1
 221 273 l 1,42,-1
 375 273 l 1,43,-1
 335 451 l 2,44,45
 329 477 329 477 327 515 c 1,38,-1
EndSplineSet
Position2: "'cpsp' Capital Spacing lookup 0 subtable" dx=5 dy=0 dh=10 dv=0
EndChar

StartChar: Ahookabove
Encoding: 7842 7842 18
Width: 613
GlyphClass: 2
Flags: MW
HStem: 141 132<221 375 221 406 164 375> 682 20G<319 371 371 385.5> 867 61<352.5 365.5>
VStem: 388 87<828 852>
AnchorPoint: "Anchor-1" 363 877 basechar 0
AnchorPoint: "Anchor-0" 301 0 basechar 0
LayerCount: 2
Fore
SplineSet
388 845 m 0,0,1
 388 867 388 867 356 867 c 0,2,3
 343 867 343 867 329 861 c 128,-1,4
 315 855 315 855 312 855 c 0,5,6
 306 855 306 855 296.5 870.5 c 128,-1,7
 287 886 287 886 287 896.5 c 0,8,9
 287 907 287 907 315.5 917.5 c 128,-1,10
 344 928 344 928 381.5 928 c 0,11,12
 419 928 419 928 447 906.5 c 128,-1,13
 475 885 475 885 475 851 c 128,-1,14
 475 817 475 817 433 782 c 128,-1,15
 391 747 391 747 368.5 747 c 0,16,17
 346 747 346 747 331 753.5 c 128,-1,18
 316 760 316 760 316 769 c 0,19,20
 316 778 316 778 352 802 c 128,-1,21
 388 826 388 826 388 845 c 0,0,1
319 702 m 2,22,-1
 371 702 l 2,23,24
 421 702 421 702 426 681 c 2,25,-1
 584 38 l 2,26,27
 587 29 587 29 587 21 c 0,28,29
 587 -2 587 -2 533 -2 c 2,30,-1
 489 -2 l 2,31,32
 440 -2 440 -2 435 19 c 2,33,-1
 406 141 l 1,34,-1
 164 141 l 1,35,-1
 109 19 l 2,36,37
 99 -2 99 -2 61 -2 c 2,38,-1
 21 -2 l 2,39,40
 -37 -2 -37 -2 -37 18 c 0,41,42
 -37 26 -37 26 -31 38 c 2,43,-1
 260 681 l 2,44,45
 269 702 269 702 319 702 c 2,22,-1
327 515 m 1,46,-1
 323 515 l 1,47,48
 311 474 311 474 301 451 c 2,49,-1
 221 273 l 1,50,-1
 375 273 l 1,51,-1
 335 451 l 2,52,53
 329 477 329 477 327 515 c 1,46,-1
EndSplineSet
Position2: "'cpsp' Capital Spacing lookup 0 subtable" dx=5 dy=0 dh=10 dv=0
EndChar

StartChar: Amacron
Encoding: 256 256 19
Width: 613
GlyphClass: 2
Flags: MW
HStem: 141 132<221 375 221 406 164 375> 682 20G<319 371 371 385.5> 774 95<239 475 259 464>
VStem: -37 624<14 21>
AnchorPoint: "Anchor-1" 374 877 basechar 0
AnchorPoint: "Anchor-0" 301 0 basechar 0
LayerCount: 2
Fore
SplineSet
259 869 m 2,0,-1
 475 869 l 2,1,2
 501 869 501 869 501 839 c 0,3,4
 501 774 501 774 464 774 c 2,5,-1
 248 774 l 2,6,7
 222 774 222 774 222 804 c 0,8,9
 222 869 222 869 259 869 c 2,0,-1
319 702 m 2,10,-1
 371 702 l 2,11,12
 421 702 421 702 426 681 c 2,13,-1
 584 38 l 2,14,15
 587 29 587 29 587 21 c 0,16,17
 587 -2 587 -2 533 -2 c 2,18,-1
 489 -2 l 2,19,20
 440 -2 440 -2 435 19 c 2,21,-1
 406 141 l 1,22,-1
 164 141 l 1,23,-1
 109 19 l 2,24,25
 99 -2 99 -2 61 -2 c 2,26,-1
 21 -2 l 2,27,28
 -37 -2 -37 -2 -37 18 c 0,29,30
 -37 26 -37 26 -31 38 c 2,31,-1
 260 681 l 2,32,33
 269 702 269 702 319 702 c 2,10,-1
327 515 m 1,34,-1
 323 515 l 1,35,36
 311 474 311 474 301 451 c 2,37,-1
 221 273 l 1,38,-1
 375 273 l 1,39,-1
 335 451 l 2,40,41
 329 477 329 477 327 515 c 1,34,-1
EndSplineSet
Position2: "'cpsp' Capital Spacing lookup 0 subtable" dx=5 dy=0 dh=10 dv=0
EndChar

StartChar: Aogonek
Encoding: 260 260 20
Width: 613
GlyphClass: 2
Flags: MW
HStem: -183 70<581 593> 141 132<221 375 221 406 164 375> 682 20G<319 371 371 385.5>
VStem: 465 69<-90 -81.5>
AnchorPoint: "Anchor-1" 345 700 basechar 0
AnchorPoint: "Anchor-0" 508 -203 basechar 0
LayerCount: 2
Fore
SplineSet
650 -99 m 0,0,1
 661 -99 661 -99 661 -128.5 c 0,2,3
 661 -158 661 -158 635 -170.5 c 128,-1,4
 609 -183 609 -183 573 -183 c 0,5,6
 511 -183 511 -183 488 -156 c 128,-1,7
 465 -129 465 -129 465 -94 c 0,8,9
 465 -34 465 -34 497 -2 c 1,10,-1
 489 -2 l 2,11,12
 440 -2 440 -2 435 19 c 2,13,-1
 406 141 l 1,14,-1
 164 141 l 1,15,-1
 109 19 l 2,16,17
 99 -2 99 -2 61 -2 c 2,18,-1
 21 -2 l 2,19,20
 -37 -2 -37 -2 -37 18 c 0,21,22
 -37 26 -37 26 -31 38 c 2,23,-1
 260 681 l 2,24,25
 269 702 269 702 319 702 c 2,26,-1
 371 702 l 2,27,28
 421 702 421 702 426 681 c 2,29,-1
 584 38 l 2,30,31
 587 29 587 29 587 21 c 0,32,33
 587 4 587 4 552 -1 c 1,34,-1
 552 -3 l 2,35,36
 552 -9 552 -9 543 -29.5 c 128,-1,37
 534 -50 534 -50 534 -70 c 0,38,39
 534 -113 534 -113 592 -113 c 0,40,41
 610 -113 610 -113 629 -106 c 128,-1,42
 648 -99 648 -99 650 -99 c 0,0,1
375 273 m 1,43,-1
 335 451 l 2,44,45
 329 477 329 477 327 515 c 1,46,-1
 323 515 l 1,47,48
 311 474 311 474 301 451 c 2,49,-1
 221 273 l 1,50,-1
 375 273 l 1,43,-1
EndSplineSet
Position2: "'cpsp' Capital Spacing lookup 0 subtable" dx=5 dy=0 dh=10 dv=0
EndChar

StartChar: Aring
Encoding: 197 197 21
Width: 613
GlyphClass: 2
Flags: MW
HStem: 141 132<221 375 221 406 164 375> 682 20G<319 371 371 385.5> 727 62<345.5 365.5 345.5 383> 862 64<351.5 371.5>
VStem: 258 64<812 832 812 846.5> 395 63<817.5 837.5>
AnchorPoint: "Anchor-1" 369 877 basechar 0
AnchorPoint: "Anchor-0" 301 0 basechar 0
LayerCount: 2
Fore
SplineSet
288.5 894.5 m 128,-1,1
 319 926 319 926 363.5 926 c 128,-1,2
 408 926 408 926 433 900.5 c 128,-1,3
 458 875 458 875 458 832.5 c 128,-1,4
 458 790 458 790 428.5 758.5 c 128,-1,5
 399 727 399 727 353.5 727 c 128,-1,6
 308 727 308 727 283 752.5 c 128,-1,7
 258 778 258 778 258 820.5 c 128,-1,0
 258 863 258 863 288.5 894.5 c 128,-1,1
385.5 852 m 128,-1,9
 376 862 376 862 361 862 c 128,-1,10
 346 862 346 862 334 849.5 c 128,-1,11
 322 837 322 837 322 822 c 128,-1,12
 322 807 322 807 331.5 798 c 128,-1,13
 341 789 341 789 356 789 c 128,-1,14
 371 789 371 789 383 800.5 c 128,-1,15
 395 812 395 812 395 827 c 128,-1,8
 395 842 395 842 385.5 852 c 128,-1,9
319 702 m 2,16,-1
 371 702 l 2,17,18
 421 702 421 702 426 681 c 2,19,-1
 584 38 l 2,20,21
 587 29 587 29 587 21 c 0,22,23
 587 -2 587 -2 533 -2 c 2,24,-1
 489 -2 l 2,25,26
 440 -2 440 -2 435 19 c 2,27,-1
 406 141 l 1,28,-1
 164 141 l 1,29,-1
 109 19 l 2,30,31
 99 -2 99 -2 61 -2 c 2,32,-1
 21 -2 l 2,33,34
 -37 -2 -37 -2 -37 18 c 0,35,36
 -37 26 -37 26 -31 38 c 2,37,-1
 260 681 l 2,38,39
 269 702 269 702 319 702 c 2,16,-1
327 515 m 1,40,-1
 323 515 l 1,41,42
 311 474 311 474 301 451 c 2,43,-1
 221 273 l 1,44,-1
 375 273 l 1,45,-1
 335 451 l 2,46,47
 329 477 329 477 327 515 c 1,40,-1
EndSplineSet
Position2: "'cpsp' Capital Spacing lookup 0 subtable" dx=5 dy=0 dh=10 dv=0
EndChar

StartChar: Aringacute
Encoding: 506 506 22
Width: 613
GlyphClass: 2
Flags: MW
HStem: 141 132<221 375 221 406 164 375> 732 64<338.5 358.5> 812 119<330 469>
VStem: 245 64<682 702 682 716.5> 382 63<697 707.5>
AnchorPoint: "Anchor-1" 356 747 basechar 0
AnchorPoint: "Anchor-0" 0 0 basechar 0
LayerCount: 2
Fore
SplineSet
342 812 m 0,0,1
 324 812 324 812 317.5 815.5 c 128,-1,2
 311 819 311 819 312 827 c 0,3,4
 334 867 334 867 361 904 c 0,5,6
 380 931 380 931 449 931 c 0,7,8
 509.75 931 509.75 931 508 917 c 0,9,10
 507 911 507 911 482 890 c 128,-1,11
 457 869 457 869 452 864.5 c 128,-1,12
 447 860 447 860 437.5 852.5 c 128,-1,13
 428 845 428 845 419 837 c 0,14,15
 394 812 394 812 342 812 c 0,0,1
433 653 m 1,16,-1
 584 38 l 2,17,18
 587 29 587 29 587 21 c 0,19,20
 587 -2 587 -2 533 -2 c 2,21,-1
 489 -2 l 2,22,23
 440 -2 440 -2 435 19 c 2,24,-1
 406 141 l 1,25,-1
 164 141 l 1,26,-1
 109 19 l 2,27,28
 99 -2 99 -2 61 -2 c 2,29,-1
 21 -2 l 2,30,31
 -37 -2 -37 -2 -37 18 c 0,32,33
 -37 26 -37 26 -31 38 c 2,34,-1
 249 657 l 1,35,36
 245 669 245 669 245 686 c 0,37,38
 245 733 245 733 275.5 764.5 c 128,-1,39
 306 796 306 796 350.5 796 c 128,-1,40
 395 796 395 796 420 770.5 c 128,-1,41
 445 745 445 745 445 711 c 128,-1,42
 445 677 445 677 433 653 c 1,16,-1
372.5 722 m 128,-1,44
 363 732 363 732 348 732 c 128,-1,45
 333 732 333 732 321 719.5 c 128,-1,46
 309 707 309 707 309 692 c 128,-1,47
 309 677 309 677 318.5 668 c 128,-1,48
 328 659 328 659 343 659 c 128,-1,49
 358 659 358 659 370 670.5 c 128,-1,50
 382 682 382 682 382 697 c 128,-1,43
 382 712 382 712 372.5 722 c 128,-1,44
375 273 m 1,51,-1
 335 451 l 2,52,53
 329 477 329 477 327 515 c 1,54,-1
 323 515 l 1,55,56
 311 474 311 474 301 451 c 2,57,-1
 221 273 l 1,58,-1
 375 273 l 1,51,-1
EndSplineSet
Position2: "'cpsp' Capital Spacing lookup 0 subtable" dx=5 dy=0 dh=10 dv=0
EndChar

StartChar: Atilde
Encoding: 195 195 23
Width: 613
GlyphClass: 2
Flags: MW
HStem: 141 132<221 375 221 406 164 375> 682 20G<319 371 371 385.5> 758 86<412.5 426.5> 770 100
VStem: -37 624<14 21>
AnchorPoint: "Anchor-1" 369 877 basechar 0
AnchorPoint: "Anchor-0" 301 0 basechar 0
LayerCount: 2
Fore
SplineSet
196 829 m 0,0,1
 248 870 248 870 291 870 c 128,-1,2
 334 870 334 870 367.5 857 c 128,-1,3
 401 844 401 844 425.5 844 c 128,-1,4
 450 844 450 844 476 859.5 c 128,-1,5
 502 875 502 875 520 851 c 0,6,7
 530 840 530 840 528.5 828.5 c 128,-1,8
 527 817 527 817 512 799 c 0,9,10
 471 758 471 758 406 758 c 0,11,12
 369 758 369 758 331 771 c 128,-1,13
 293 784 293 784 277 784 c 128,-1,14
 261 784 261 784 236.5 771 c 128,-1,15
 212 758 212 758 194.5 784 c 128,-1,16
 177 810 177 810 196 829 c 0,0,1
319 702 m 2,17,-1
 371 702 l 2,18,19
 421 702 421 702 426 681 c 2,20,-1
 584 38 l 2,21,22
 587 29 587 29 587 21 c 0,23,24
 587 -2 587 -2 533 -2 c 2,25,-1
 489 -2 l 2,26,27
 440 -2 440 -2 435 19 c 2,28,-1
 406 141 l 1,29,-1
 164 141 l 1,30,-1
 109 19 l 2,31,32
 99 -2 99 -2 61 -2 c 2,33,-1
 21 -2 l 2,34,35
 -37 -2 -37 -2 -37 18 c 0,36,37
 -37 26 -37 26 -31 38 c 2,38,-1
 260 681 l 2,39,40
 269 702 269 702 319 702 c 2,17,-1
327 515 m 1,41,-1
 323 515 l 1,42,43
 311 474 311 474 301 451 c 2,44,-1
 221 273 l 1,45,-1
 375 273 l 1,46,-1
 335 451 l 2,47,48
 329 477 329 477 327 515 c 1,41,-1
EndSplineSet
Position2: "'cpsp' Capital Spacing lookup 0 subtable" dx=5 dy=0 dh=10 dv=0
EndChar

StartChar: AE
Encoding: 198 198 24
Width: 915
GlyphClass: 2
Flags: MW
HStem: 0 131<456 813 579 801> 141 132<262 416 262 426 183 416> 293 131<565 804 565 565> 569 131<540 860 540 540>
VStem: 406 140
AnchorPoint: "Anchor-1" 458 700 basechar 0
AnchorPoint: "Anchor-0" 0 0 basechar 0
LayerCount: 2
Fore
SplineSet
406 700 m 2,0,-1
 872 700 l 2,1,2
 898 700 898 700 898 660 c 0,3,4
 898 569 898 569 860 569 c 2,5,-1
 540 569 l 1,6,-1
 552 424 l 1,7,-1
 816 424 l 2,8,9
 842 424 842 424 842 384 c 0,10,11
 842 293 842 293 804 293 c 2,12,-1
 565 293 l 1,13,-1
 579 131 l 1,14,-1
 813 131 l 2,15,16
 839 131 839 131 839 91 c 0,17,18
 839 0 839 0 801 0 c 2,19,-1
 467 0 l 2,20,21
 451 0 451 0 444 7 c 128,-1,22
 437 14 437 14 435 30 c 2,23,-1
 426 141 l 1,24,-1
 183 141 l 1,25,-1
 110 19 l 1,26,27
 96 -2 96 -2 62 -2 c 2,28,-1
 25 -2 l 2,29,30
 -35 -2 -35 -2 -35 20 c 0,31,32
 -35 27 -35 27 -27 38 c 1,33,-1
 360 673 l 2,34,35
 377 700 377 700 406 700 c 2,0,-1
406 537 m 1,36,-1
 370 455 l 1,37,-1
 262 273 l 1,38,-1
 416 273 l 1,39,-1
 402 454 l 1,40,-1
 410 537 l 1,41,-1
 406 537 l 1,36,-1
EndSplineSet
Position2: "'cpsp' Capital Spacing lookup 0 subtable" dx=5 dy=0 dh=10 dv=0
EndChar

StartChar: AEacute
Encoding: 508 508 25
Width: 915
GlyphClass: 2
Flags: MW
HStem: 0 131<456 813 579 801> 141 132<262 416 262 426 183 416> 293 131<565 804 565 565> 569 131<540 860 540 540> 752 159<419 585>
VStem: 406 140
AnchorPoint: "Anchor-1" 494 877 basechar 0
AnchorPoint: "Anchor-0" 0 0 basechar 0
LayerCount: 2
Fore
SplineSet
448 839.5 m 128,-1,1
 463 861 463 861 479.5 886 c 128,-1,2
 496 911 496 911 560 911 c 128,-1,3
 624 911 624 911 624 898 c 0,4,5
 624 891 624 891 619.5 885.5 c 128,-1,6
 615 880 615 880 593.5 859.5 c 128,-1,7
 572 839 572 839 564 831.5 c 0,8,9
 540 809 540 809 511.5 780.5 c 128,-1,10
 483 752 483 752 430 752 c 0,11,12
 401 752 401 752 401 765 c 0,13,14
 401 771.153846154 401 771.153846154 409.5 783.576923077 c 128,-1,15
 418 796 418 796 425.5 807 c 128,-1,0
 433 818 433 818 448 839.5 c 128,-1,1
406 700 m 2,16,-1
 872 700 l 2,17,18
 898 700 898 700 898 660 c 0,19,20
 898 569 898 569 860 569 c 2,21,-1
 540 569 l 1,22,-1
 552 424 l 1,23,-1
 816 424 l 2,24,25
 842 424 842 424 842 384 c 0,26,27
 842 293 842 293 804 293 c 2,28,-1
 565 293 l 1,29,-1
 579 131 l 1,30,-1
 813 131 l 2,31,32
 839 131 839 131 839 91 c 0,33,34
 839 0 839 0 801 0 c 2,35,-1
 467 0 l 2,36,37
 451 0 451 0 444 7 c 128,-1,38
 437 14 437 14 435 30 c 2,39,-1
 426 141 l 1,40,-1
 183 141 l 1,41,-1
 110 19 l 1,42,43
 96 -2 96 -2 62 -2 c 2,44,-1
 25 -2 l 2,45,46
 -35 -2 -35 -2 -35 20 c 0,47,48
 -35 27 -35 27 -27 38 c 1,49,-1
 360 673 l 2,50,51
 377 700 377 700 406 700 c 2,16,-1
406 537 m 1,52,-1
 370 455 l 1,53,-1
 262 273 l 1,54,-1
 416 273 l 1,55,-1
 402 454 l 1,56,-1
 410 537 l 1,57,-1
 406 537 l 1,52,-1
EndSplineSet
Position2: "'cpsp' Capital Spacing lookup 0 subtable" dx=5 dy=0 dh=10 dv=0
EndChar

StartChar: B
Encoding: 66 66 26
Width: 593
GlyphClass: 2
Flags: MW
HStem: 0 131<62.5 301 203 288> 290 131<220 303 234 302> 570 130<250 250 250 321>
VStem: 402 158<192 244> 404 162<506.5 528>
LayerCount: 2
Fore
SplineSet
149 700 m 2,0,-1
 347 700 l 2,1,2
 460 700 460 700 513 659 c 128,-1,3
 566 618 566 618 566 553 c 0,4,5
 566 488 566 488 531 440.5 c 128,-1,6
 496 393 496 393 441 371 c 1,7,-1
 441 367 l 1,8,9
 495 356 495 356 527.5 314.5 c 128,-1,10
 560 273 560 273 560 220 c 0,11,12
 560 115 560 115 488 57.5 c 128,-1,13
 416 0 416 0 288 0 c 2,14,-1
 76 0 l 2,15,16
 56 0 56 0 48 7 c 128,-1,17
 40 14 40 14 40 25 c 0,18,19
 40 36 40 36 56.5 192.5 c 0,20,21
 73 349 73 349 105 660 c 0,22,23
 109 700 109 700 149 700 c 2,0,-1
250 570 m 1,24,-1
 234 421 l 1,25,-1
 303 421 l 2,26,27
 350 421 350 421 377 445.5 c 128,-1,28
 404 470 404 470 404 507 c 0,29,30
 404 570 404 570 321 570 c 2,31,-1
 250 570 l 1,24,-1
220 290 m 1,32,-1
 203 131 l 1,33,-1
 301 131 l 2,34,35
 347 131 347 131 374.5 154.5 c 128,-1,36
 402 178 402 178 402 221 c 0,37,38
 402 290 402 290 302 290 c 2,39,-1
 220 290 l 1,32,-1
EndSplineSet
Position2: "'cpsp' Capital Spacing lookup 0 subtable" dx=5 dy=0 dh=10 dv=0
EndChar

StartChar: C
Encoding: 67 67 27
Width: 619
GlyphClass: 2
Flags: MW
HStem: -8 131<300.5 361.5> 576 132<336 447.5>
VStem: 42 159<240.5 390.5 240.5 391>
AnchorPoint: "Anchor-1" 399 700 basechar 0
AnchorPoint: "Anchor-0" 310 0 basechar 0
LayerCount: 2
Fore
SplineSet
239 673.5 m 128,-1,1
 314 708 314 708 401 708 c 128,-1,2
 488 708 488 708 553.5 688.5 c 128,-1,3
 619 669 619 669 619 640 c 0,4,5
 619 619 619 619 590.5 581.5 c 128,-1,6
 562 544 562 544 544 544 c 0,7,8
 541 544 541 544 524.5 552 c 0,9,10
 475 576 475 576 400 576 c 0,11,12
 303 576 303 576 252 506 c 128,-1,13
 201 436 201 436 201 298 c 0,14,15
 201 123 201 123 351 123 c 0,16,17
 401 123 401 123 447.5 136.5 c 128,-1,18
 494 150 494 150 521.5 164 c 128,-1,19
 549 178 549 178 552 178 c 0,20,21
 564 178 564 178 564 163 c 0,22,23
 564 121 564 121 554 68 c 0,24,25
 546 28 546 28 472 10 c 128,-1,26
 398 -8 398 -8 337 -8 c 0,27,28
 187 -8 187 -8 114.5 61.5 c 128,-1,29
 42 131 42 131 42 276 c 0,30,31
 42 458.204819277 42 458.204819277 122.5 577.5 c 0,32,0
 164 639 164 639 239 673.5 c 128,-1,1
EndSplineSet
Position2: "'cpsp' Capital Spacing lookup 0 subtable" dx=5 dy=0 dh=10 dv=0
EndChar

StartChar: Cacute
Encoding: 262 262 28
Width: 619
GlyphClass: 2
Flags: MW
HStem: -8 131<300.5 361.5> 576 132<336 447.5> 752 159<360 526>
VStem: 42 159<240.5 390.5 240.5 391>
AnchorPoint: "Anchor-1" 435 877 basechar 0
AnchorPoint: "Anchor-0" 310 0 basechar 0
LayerCount: 2
Fore
SplineSet
389 839.5 m 128,-1,1
 404 861 404 861 420.5 886 c 128,-1,2
 437 911 437 911 501 911 c 128,-1,3
 565 911 565 911 565 898 c 0,4,5
 565 891 565 891 560.5 885.5 c 128,-1,6
 556 880 556 880 520 845.5 c 128,-1,7
 484 811 484 811 454 781.5 c 128,-1,8
 424 752 424 752 371 752 c 0,9,10
 342 752 342 752 342 765 c 0,11,12
 342 771.153846154 342 771.153846154 350.5 783.576923077 c 128,-1,13
 359 796 359 796 366.5 807 c 128,-1,0
 374 818 374 818 389 839.5 c 128,-1,1
239 673.5 m 128,-1,15
 314 708 314 708 401 708 c 128,-1,16
 488 708 488 708 553.5 688.5 c 128,-1,17
 619 669 619 669 619 640 c 0,18,19
 619 619 619 619 590.5 581.5 c 128,-1,20
 562 544 562 544 544 544 c 0,21,22
 541 544 541 544 524.5 552 c 0,23,24
 475 576 475 576 400 576 c 0,25,26
 303 576 303 576 252 506 c 128,-1,27
 201 436 201 436 201 298 c 0,28,29
 201 123 201 123 351 123 c 0,30,31
 401 123 401 123 447.5 136.5 c 128,-1,32
 494 150 494 150 521.5 164 c 128,-1,33
 549 178 549 178 552 178 c 0,34,35
 564 178 564 178 564 163 c 0,36,37
 564 121 564 121 554 68 c 0,38,39
 546 28 546 28 472 10 c 128,-1,40
 398 -8 398 -8 337 -8 c 0,41,42
 187 -8 187 -8 114.5 61.5 c 128,-1,43
 42 131 42 131 42 276 c 0,44,45
 42 458.204819277 42 458.204819277 122.5 577.5 c 0,46,14
 164 639 164 639 239 673.5 c 128,-1,15
EndSplineSet
Substitution2: "'locl' Localized Forms in Latin lookup 11 subtable" Cacute.loclPLK
Substitution2: "'aalt' Access All Alternates lookup 0 subtable" Cacute.loclPLK
Position2: "'cpsp' Capital Spacing lookup 0 subtable" dx=5 dy=0 dh=10 dv=0
EndChar

StartChar: Ccaron
Encoding: 268 268 29
Width: 619
GlyphClass: 2
Flags: MW
HStem: -8 131<300.5 361.5> 576 132<336 447.5> 749 146<298 395 298 406>
VStem: 42 159<240.5 390.5 240.5 391>
AnchorPoint: "Anchor-1" 420 877 basechar 0
AnchorPoint: "Anchor-0" 310 0 basechar 0
LayerCount: 2
Fore
SplineSet
509 895 m 1,0,-1
 533 895 l 2,1,2
 552 895 552 895 552 885 c 0,3,4
 552 878 552 878 545 870 c 2,5,-1
 469 768 l 2,6,7
 455 749 455 749 406 749 c 2,8,-1
 395 749 l 2,9,10
 347 749 347 749 336 768 c 2,11,-1
 282 870 l 1,12,13
 279 878 279 878 279 882 c 0,14,15
 279 895 279 895 298 895 c 2,16,-1
 320 895 l 2,17,18
 368 895 368 895 384 871 c 2,19,-1
 409 831 l 1,20,-1
 440 870 l 2,21,22
 458 893 458 893 509 895 c 1,0,-1
239 673.5 m 128,-1,24
 314 708 314 708 401 708 c 128,-1,25
 488 708 488 708 553.5 688.5 c 128,-1,26
 619 669 619 669 619 640 c 0,27,28
 619 619 619 619 590.5 581.5 c 128,-1,29
 562 544 562 544 544 544 c 0,30,31
 541 544 541 544 524.5 552 c 0,32,33
 475 576 475 576 400 576 c 0,34,35
 303 576 303 576 252 506 c 128,-1,36
 201 436 201 436 201 298 c 0,37,38
 201 123 201 123 351 123 c 0,39,40
 401 123 401 123 447.5 136.5 c 128,-1,41
 494 150 494 150 521.5 164 c 128,-1,42
 549 178 549 178 552 178 c 0,43,44
 564 178 564 178 564 163 c 0,45,46
 564 121 564 121 554 68 c 0,47,48
 546 28 546 28 472 10 c 128,-1,49
 398 -8 398 -8 337 -8 c 0,50,51
 187 -8 187 -8 114.5 61.5 c 128,-1,52
 42 131 42 131 42 276 c 0,53,54
 42 458.204819277 42 458.204819277 122.5 577.5 c 0,55,23
 164 639 164 639 239 673.5 c 128,-1,24
EndSplineSet
Position2: "'cpsp' Capital Spacing lookup 0 subtable" dx=5 dy=0 dh=10 dv=0
EndChar

StartChar: Ccedilla
Encoding: 199 199 30
Width: 619
GlyphClass: 2
Flags: MW
HStem: -212 73<256.5 280 248 311> -8 131<341 341> 576 132<336 447.5>
VStem: 42 159<240.5 390.5 240.5 391> 296 104
AnchorPoint: "Anchor-1" 399 700 basechar 0
AnchorPoint: "Anchor-0" 269 -203 basechar 0
LayerCount: 2
Fore
SplineSet
400 576 m 0,0,1
 303 576 303 576 252 506 c 128,-1,2
 201 436 201 436 201 298 c 0,3,4
 201 123 201 123 351 123 c 0,5,6
 401 123 401 123 447.5 136.5 c 128,-1,7
 494 150 494 150 521.5 164 c 128,-1,8
 549 178 549 178 552 178 c 0,9,10
 564 178 564 178 564 163 c 0,11,12
 564 121 564 121 554 68 c 0,13,14
 546 29 546 29 475.5 11 c 128,-1,15
 405 -7 405 -7 341 -8 c 1,16,-1
 330 -35 l 1,17,18
 358 -40 358 -40 379 -59 c 128,-1,19
 400 -78 400 -78 400 -110 c 0,20,21
 400 -160 400 -160 366 -186 c 128,-1,22
 332 -212 332 -212 271 -212 c 0,23,24
 204 -212 204 -212 179.5 -187.5 c 0,25,26
 168 -176 168 -176 168 -160 c 0,27,28
 168 -112 168 -112 182 -112 c 0,29,30
 184 -112 184 -112 214 -125.5 c 128,-1,31
 244 -139 244 -139 269 -139 c 128,-1,32
 294 -139 294 -139 296 -122 c 0,33,34
 296 -110 296 -110 272 -98 c 128,-1,35
 248 -86 248 -86 248 -74 c 0,36,37
 248 -67 248 -67 275 -5 c 1,38,39
 156 9 156 9 99 77.5 c 128,-1,40
 42 146 42 146 42 276 c 0,41,42
 42 458.204819277 42 458.204819277 122.5 577.5 c 0,43,44
 164 639 164 639 239 673.5 c 128,-1,45
 314 708 314 708 401 708 c 128,-1,46
 488 708 488 708 553.5 688.5 c 128,-1,47
 619 669 619 669 619 640 c 0,48,49
 619 619 619 619 590.5 581.5 c 128,-1,50
 562 544 562 544 544 544 c 0,51,52
 541 544 541 544 524.5 552 c 0,53,54
 475 576 475 576 400 576 c 0,0,1
EndSplineSet
Position2: "'cpsp' Capital Spacing lookup 0 subtable" dx=5 dy=0 dh=10 dv=0
EndChar

StartChar: Ccircumflex
Encoding: 264 264 31
Width: 619
GlyphClass: 2
Flags: MW
HStem: -8 131<300.5 361.5> 576 132<336 447.5> 749 146<276 420 282 420 409 495 409 517>
VStem: 42 159<240.5 390.5 240.5 391>
AnchorPoint: "Anchor-1" 594 774 basechar 0
AnchorPoint: "Anchor-0" 310 0 basechar 0
LayerCount: 2
Fore
SplineSet
409 895 m 2,0,-1
 420 895 l 2,1,2
 468 895 468 895 479 876 c 2,3,-1
 533 774 l 1,4,5
 536 766 536 766 536 762 c 0,6,7
 536 749 536 749 517 749 c 2,8,-1
 495 749 l 2,9,10
 446 749 446 749 431 773 c 2,11,-1
 406 813 l 1,12,-1
 375 774 l 2,13,14
 356 749 356 749 306 749 c 2,15,-1
 282 749 l 2,16,17
 263 749 263 749 263 759 c 0,18,19
 263 766 263 766 270 774 c 2,20,-1
 346 876 l 2,21,22
 360 895 360 895 409 895 c 2,0,-1
239 673.5 m 128,-1,24
 314 708 314 708 401 708 c 128,-1,25
 488 708 488 708 553.5 688.5 c 128,-1,26
 619 669 619 669 619 640 c 0,27,28
 619 619 619 619 590.5 581.5 c 128,-1,29
 562 544 562 544 544 544 c 0,30,31
 541 544 541 544 524.5 552 c 0,32,33
 475 576 475 576 400 576 c 0,34,35
 303 576 303 576 252 506 c 128,-1,36
 201 436 201 436 201 298 c 0,37,38
 201 123 201 123 351 123 c 0,39,40
 401 123 401 123 447.5 136.5 c 128,-1,41
 494 150 494 150 521.5 164 c 128,-1,42
 549 178 549 178 552 178 c 0,43,44
 564 178 564 178 564 163 c 0,45,46
 564 121 564 121 554 68 c 0,47,48
 546 28 546 28 472 10 c 128,-1,49
 398 -8 398 -8 337 -8 c 0,50,51
 187 -8 187 -8 114.5 61.5 c 128,-1,52
 42 131 42 131 42 276 c 0,53,54
 42 458.204819277 42 458.204819277 122.5 577.5 c 0,55,23
 164 639 164 639 239 673.5 c 128,-1,24
EndSplineSet
Position2: "'cpsp' Capital Spacing lookup 0 subtable" dx=5 dy=0 dh=10 dv=0
EndChar

StartChar: Cdotaccent
Encoding: 266 266 32
Width: 619
GlyphClass: 2
Flags: MW
HStem: -8 131<300.5 361.5> 576 132<336 447.5> 755 124<384 412>
VStem: 42 159<240.5 390.5 240.5 391> 335 127<776.5 857.5>
AnchorPoint: "Anchor-1" 425 877 basechar 0
AnchorPoint: "Anchor-0" 310 0 basechar 0
LayerCount: 2
Fore
SplineSet
342 847 m 2,0,1
 345 879 345 879 403.5 879 c 128,-1,2
 462 879 462 879 462 847 c 1,3,-1
 455 787 l 1,4,5
 450 755 450 755 392.5 755 c 128,-1,6
 335 755 335 755 335 787 c 1,7,-1
 342 847 l 2,0,1
239 673.5 m 128,-1,9
 314 708 314 708 401 708 c 128,-1,10
 488 708 488 708 553.5 688.5 c 128,-1,11
 619 669 619 669 619 640 c 0,12,13
 619 619 619 619 590.5 581.5 c 128,-1,14
 562 544 562 544 544 544 c 0,15,16
 541 544 541 544 524.5 552 c 0,17,18
 475 576 475 576 400 576 c 0,19,20
 303 576 303 576 252 506 c 128,-1,21
 201 436 201 436 201 298 c 0,22,23
 201 123 201 123 351 123 c 0,24,25
 401 123 401 123 447.5 136.5 c 128,-1,26
 494 150 494 150 521.5 164 c 128,-1,27
 549 178 549 178 552 178 c 0,28,29
 564 178 564 178 564 163 c 0,30,31
 564 121 564 121 554 68 c 0,32,33
 546 28 546 28 472 10 c 128,-1,34
 398 -8 398 -8 337 -8 c 0,35,36
 187 -8 187 -8 114.5 61.5 c 128,-1,37
 42 131 42 131 42 276 c 0,38,39
 42 458.204819277 42 458.204819277 122.5 577.5 c 0,40,8
 164 639 164 639 239 673.5 c 128,-1,9
EndSplineSet
Position2: "'cpsp' Capital Spacing lookup 0 subtable" dx=5 dy=0 dh=10 dv=0
EndChar

StartChar: D
Encoding: 68 68 33
Width: 695
GlyphClass: 2
Flags: MW
HStem: 0 131<62.5 313 204 300> 569 131<251 251 251 360>
VStem: 501 159<311 453>
AnchorPoint: "Anchor-1" 348 700 basechar 0
AnchorPoint: "Anchor-0" 291 0 basechar 0
LayerCount: 2
Fore
SplineSet
149 700 m 2,0,-1
 373 700 l 2,1,2
 513 700 513 700 586.5 625.5 c 128,-1,3
 660 551 660 551 660 411 c 0,4,5
 660 215 660 215 563.5 107.5 c 128,-1,6
 467 0 467 0 300 0 c 2,7,-1
 76 0 l 2,8,9
 56 0 56 0 48 7.5 c 128,-1,10
 40 15 40 15 40 28.5 c 0,11,12
 40 42 40 42 105 660 c 0,13,14
 109 700 109 700 149 700 c 2,0,-1
251 569 m 1,15,-1
 204 131 l 1,16,-1
 313 131 l 2,17,18
 400 131 400 131 450.5 200.5 c 128,-1,19
 501 270 501 270 501 397 c 0,20,21
 501 569 501 569 360 569 c 2,22,-1
 251 569 l 1,15,-1
EndSplineSet
Position2: "'cpsp' Capital Spacing lookup 0 subtable" dx=5 dy=0 dh=10 dv=0
EndChar

StartChar: DZ
Encoding: 497 497 34
Width: 1311
GlyphClass: 2
Flags: MW
HStem: 0 131<62.5 313 204 300 914 1207> 569 131<251 251 251 360 814 1080>
VStem: 501 159<311 453>
AnchorPoint: "Anchor-1" 1027 700 basechar 0
AnchorPoint: "Anchor-0" 968 0 basechar 0
LayerCount: 2
Fore
SplineSet
149 700 m 2,0,-1
 373 700 l 2,1,2
 513 700 513 700 586.5 625.5 c 128,-1,3
 660 551 660 551 660 411 c 0,4,5
 660 215 660 215 563.5 107.5 c 128,-1,6
 467 0 467 0 300 0 c 2,7,-1
 76 0 l 2,8,9
 56 0 56 0 48 7.5 c 128,-1,10
 40 15 40 15 40 28.5 c 0,11,12
 40 42 40 42 105 660 c 0,13,14
 109 700 109 700 149 700 c 2,0,-1
814 700 m 2,15,-1
 1267 700 l 2,16,17
 1280 700 1280 700 1289.5 669 c 128,-1,18
 1299 638 1299 638 1299 619.5 c 0,19,20
 1299 601 1299 601 1296 598 c 2,21,-1
 914 131 l 1,22,-1
 1219 131 l 2,23,24
 1245 131 1245 131 1245 91 c 0,25,26
 1245 0 1245 0 1207 0 c 2,27,-1
 728 0 l 2,28,29
 715 0 715 0 705.5 31 c 128,-1,30
 696 62 696 62 696 80.5 c 0,31,32
 696 99 696 99 699 102 c 2,33,-1
 1080 569 l 1,34,-1
 802 569 l 2,35,36
 776 569 776 569 776 609 c 0,37,38
 776 700 776 700 814 700 c 2,15,-1
251 569 m 1,39,-1
 204 131 l 1,40,-1
 313 131 l 2,41,42
 400 131 400 131 450.5 200.5 c 128,-1,43
 501 270 501 270 501 397 c 0,44,45
 501 569 501 569 360 569 c 2,46,-1
 251 569 l 1,39,-1
EndSplineSet
Position2: "'cpsp' Capital Spacing lookup 0 subtable" dx=5 dy=0 dh=10 dv=0
EndChar

StartChar: DZcaron
Encoding: 452 452 35
Width: 1311
GlyphClass: 2
Flags: MW
HStem: 0 131<62.5 313 204 300 914 1207> 569 131<251 251 251 360 814 1080> 749 146<926 1023 926 1034>
VStem: 501 159<311 453>
AnchorPoint: "Anchor-1" 1048 877 basechar 0
AnchorPoint: "Anchor-0" 968 0 basechar 0
LayerCount: 2
Fore
SplineSet
1137 895 m 1,0,-1
 1161 895 l 2,1,2
 1180 895 1180 895 1180 885 c 0,3,4
 1180 878 1180 878 1173 870 c 2,5,-1
 1097 768 l 2,6,7
 1083 749 1083 749 1034 749 c 2,8,-1
 1023 749 l 2,9,10
 975 749 975 749 964 768 c 2,11,-1
 910 870 l 1,12,13
 907 878 907 878 907 882 c 0,14,15
 907 895 907 895 926 895 c 2,16,-1
 948 895 l 2,17,18
 996 895 996 895 1012 871 c 2,19,-1
 1037 831 l 1,20,-1
 1068 870 l 2,21,22
 1086 893 1086 893 1137 895 c 1,0,-1
149 700 m 2,23,-1
 373 700 l 2,24,25
 513 700 513 700 586.5 625.5 c 128,-1,26
 660 551 660 551 660 411 c 0,27,28
 660 215 660 215 563.5 107.5 c 128,-1,29
 467 0 467 0 300 0 c 2,30,-1
 76 0 l 2,31,32
 56 0 56 0 48 7.5 c 128,-1,33
 40 15 40 15 40 28.5 c 0,34,35
 40 42 40 42 105 660 c 0,36,37
 109 700 109 700 149 700 c 2,23,-1
814 700 m 2,38,-1
 1267 700 l 2,39,40
 1280 700 1280 700 1289.5 669 c 128,-1,41
 1299 638 1299 638 1299 619.5 c 0,42,43
 1299 601 1299 601 1296 598 c 2,44,-1
 914 131 l 1,45,-1
 1219 131 l 2,46,47
 1245 131 1245 131 1245 91 c 0,48,49
 1245 0 1245 0 1207 0 c 2,50,-1
 728 0 l 2,51,52
 715 0 715 0 705.5 31 c 128,-1,53
 696 62 696 62 696 80.5 c 0,54,55
 696 99 696 99 699 102 c 2,56,-1
 1080 569 l 1,57,-1
 802 569 l 2,58,59
 776 569 776 569 776 609 c 0,60,61
 776 700 776 700 814 700 c 2,38,-1
251 569 m 1,62,-1
 204 131 l 1,63,-1
 313 131 l 2,64,65
 400 131 400 131 450.5 200.5 c 128,-1,66
 501 270 501 270 501 397 c 0,67,68
 501 569 501 569 360 569 c 2,69,-1
 251 569 l 1,62,-1
EndSplineSet
Position2: "'cpsp' Capital Spacing lookup 0 subtable" dx=5 dy=0 dh=10 dv=0
EndChar

StartChar: Eth
Encoding: 208 208 36
Width: 696
GlyphClass: 2
Flags: MW
HStem: 0 131<62.5 313 204 300> 290 131<26 80 47 66 235 280> 569 131<251 360 251 251>
VStem: 501 159<311 453>
AnchorPoint: "Anchor-1" 348 700 basechar 0
AnchorPoint: "Anchor-0" 291 0 basechar 0
LayerCount: 2
Fore
SplineSet
149 700 m 2,0,-1
 373 700 l 2,1,2
 513 700 513 700 586.5 625.5 c 128,-1,3
 660 551 660 551 660 411 c 0,4,5
 660 215 660 215 563.5 107.5 c 128,-1,6
 467 0 467 0 300 0 c 2,7,-1
 76 0 l 2,8,9
 56 0 56 0 48 7.5 c 128,-1,10
 40 15 40 15 40 25.5 c 0,11,12
 40 36 40 36 66 290 c 1,13,-1
 35 290 l 2,14,15
 9 290 9 290 9 330 c 0,16,17
 9 421 9 421 47 421 c 2,18,-1
 80 421 l 1,19,-1
 105 660 l 2,20,21
 109 700 109 700 149 700 c 2,0,-1
204 131 m 1,22,-1
 313 131 l 2,23,24
 400 131 400 131 450.5 200.5 c 128,-1,25
 501 270 501 270 501 397 c 0,26,27
 501 569 501 569 360 569 c 2,28,-1
 251 569 l 1,29,-1
 235 421 l 1,30,-1
 292 421 l 2,31,32
 318 421 318 421 318 381 c 0,33,34
 318 290 318 290 280 290 c 2,35,-1
 221 290 l 1,36,-1
 204 131 l 1,22,-1
EndSplineSet
Position2: "'cpsp' Capital Spacing lookup 0 subtable" dx=5 dy=0 dh=10 dv=0
EndChar

StartChar: Dcaron
Encoding: 270 270 37
Width: 695
GlyphClass: 2
Flags: MW
HStem: 0 131<62.5 313 204 300> 569 131<251 251 251 360> 749 146<247 344 247 355>
VStem: 501 159<311 453>
AnchorPoint: "Anchor-1" 369 877 basechar 0
AnchorPoint: "Anchor-0" 291 0 basechar 0
LayerCount: 2
Fore
SplineSet
458 895 m 1,0,-1
 482 895 l 2,1,2
 501 895 501 895 501 885 c 0,3,4
 501 878 501 878 494 870 c 2,5,-1
 418 768 l 2,6,7
 404 749 404 749 355 749 c 2,8,-1
 344 749 l 2,9,10
 296 749 296 749 285 768 c 2,11,-1
 231 870 l 1,12,13
 228 878 228 878 228 882 c 0,14,15
 228 895 228 895 247 895 c 2,16,-1
 269 895 l 2,17,18
 317 895 317 895 333 871 c 2,19,-1
 358 831 l 1,20,-1
 389 870 l 2,21,22
 407 893 407 893 458 895 c 1,0,-1
149 700 m 2,23,-1
 373 700 l 2,24,25
 513 700 513 700 586.5 625.5 c 128,-1,26
 660 551 660 551 660 411 c 0,27,28
 660 215 660 215 563.5 107.5 c 128,-1,29
 467 0 467 0 300 0 c 2,30,-1
 76 0 l 2,31,32
 56 0 56 0 48 7.5 c 128,-1,33
 40 15 40 15 40 28.5 c 0,34,35
 40 42 40 42 105 660 c 0,36,37
 109 700 109 700 149 700 c 2,23,-1
251 569 m 1,38,-1
 204 131 l 1,39,-1
 313 131 l 2,40,41
 400 131 400 131 450.5 200.5 c 128,-1,42
 501 270 501 270 501 397 c 0,43,44
 501 569 501 569 360 569 c 2,45,-1
 251 569 l 1,38,-1
EndSplineSet
Position2: "'cpsp' Capital Spacing lookup 0 subtable" dx=5 dy=0 dh=10 dv=0
EndChar

StartChar: Dcroat
Encoding: 272 272 38
Width: 696
GlyphClass: 2
Flags: MW
HStem: 0 131<62.5 313 204 300> 290 131<26 80 47 66 235 280> 569 131<251 360 251 251>
VStem: 501 159<311 453>
AnchorPoint: "Anchor-1" 348 700 basechar 0
AnchorPoint: "Anchor-0" 291 0 basechar 0
LayerCount: 2
Fore
SplineSet
149 700 m 2,0,-1
 373 700 l 2,1,2
 513 700 513 700 586.5 625.5 c 128,-1,3
 660 551 660 551 660 411 c 0,4,5
 660 215 660 215 563.5 107.5 c 128,-1,6
 467 0 467 0 300 0 c 2,7,-1
 76 0 l 2,8,9
 56 0 56 0 48 7.5 c 128,-1,10
 40 15 40 15 40 25.5 c 0,11,12
 40 36 40 36 66 290 c 1,13,-1
 35 290 l 2,14,15
 9 290 9 290 9 330 c 0,16,17
 9 421 9 421 47 421 c 2,18,-1
 80 421 l 1,19,-1
 105 660 l 2,20,21
 109 700 109 700 149 700 c 2,0,-1
204 131 m 1,22,-1
 313 131 l 2,23,24
 400 131 400 131 450.5 200.5 c 128,-1,25
 501 270 501 270 501 397 c 0,26,27
 501 569 501 569 360 569 c 2,28,-1
 251 569 l 1,29,-1
 235 421 l 1,30,-1
 292 421 l 2,31,32
 318 421 318 421 318 381 c 0,33,34
 318 290 318 290 280 290 c 2,35,-1
 221 290 l 1,36,-1
 204 131 l 1,22,-1
EndSplineSet
Position2: "'cpsp' Capital Spacing lookup 0 subtable" dx=5 dy=0 dh=10 dv=0
EndChar

StartChar: Ddotbelow
Encoding: 7692 7692 39
Width: 695
GlyphClass: 2
Flags: MW
HStem: -204 124<259 287> 0 131<62.5 313 204 300> 569 131<251 251 251 360>
VStem: 210 127<-182.5 -101.5> 501 159<311 453>
AnchorPoint: "Anchor-1" 300 -82 basechar 0
AnchorPoint: "Anchor-0" 270 -203 basechar 0
LayerCount: 2
Fore
SplineSet
149 700 m 2,0,-1
 373 700 l 2,1,2
 513 700 513 700 586.5 625.5 c 128,-1,3
 660 551 660 551 660 411 c 0,4,5
 660 215 660 215 563.5 107.5 c 128,-1,6
 467 0 467 0 300 0 c 2,7,-1
 76 0 l 2,8,9
 56 0 56 0 48 7.5 c 128,-1,10
 40 15 40 15 40 28.5 c 128,-1,11
 40 42 40 42 105 660 c 0,12,13
 109 700 109 700 149 700 c 2,0,-1
251 569 m 1,14,-1
 204 131 l 1,15,-1
 313 131 l 2,16,17
 400 131 400 131 450.5 200.5 c 128,-1,18
 501 270 501 270 501 397 c 0,19,20
 501 569 501 569 360 569 c 2,21,-1
 251 569 l 1,14,-1
217 -112 m 2,22,23
 220 -80 220 -80 278.5 -80 c 128,-1,24
 337 -80 337 -80 337 -112 c 1,25,-1
 330 -172 l 1,26,27
 325 -204 325 -204 267.5 -204 c 128,-1,28
 210 -204 210 -204 210 -172 c 1,29,-1
 217 -112 l 2,22,23
EndSplineSet
Position2: "'cpsp' Capital Spacing lookup 0 subtable" dx=5 dy=0 dh=10 dv=0
EndChar

StartChar: Dz
Encoding: 498 498 40
Width: 1184
GlyphClass: 2
Flags: MW
HStem: 0 117<902 1097> 406 117<770 1143 791 967> 569 131<251 251 251 360>
VStem: 501 159<311 453>
AnchorPoint: "Anchor-1" 980 523 basechar 0
AnchorPoint: "Anchor-0" 906 0 basechar 0
LayerCount: 2
Fore
SplineSet
149 700 m 2,0,-1
 373 700 l 2,1,2
 513 700 513 700 586.5 625.5 c 128,-1,3
 660 551 660 551 660 411 c 0,4,5
 660 215 660 215 563.5 107.5 c 128,-1,6
 467 0 467 0 300 0 c 2,7,-1
 76 0 l 2,8,9
 56 0 56 0 48 7.5 c 128,-1,10
 40 15 40 15 40 28.5 c 0,11,12
 40 42 40 42 105 660 c 0,13,14
 109 700 109 700 149 700 c 2,0,-1
251 569 m 1,15,-1
 204 131 l 1,16,-1
 313 131 l 2,17,18
 400 131 400 131 450.5 200.5 c 128,-1,19
 501 270 501 270 501 397 c 0,20,21
 501 569 501 569 360 569 c 2,22,-1
 251 569 l 1,15,-1
791 523 m 2,23,-1
 1143 523 l 2,24,25
 1152 523 1152 523 1159.5 497.5 c 128,-1,26
 1167 472 1167 472 1167 453.5 c 0,27,28
 1167 435 1167 435 1163 431 c 2,29,-1
 902 117 l 1,30,-1
 1109 117 l 2,31,32
 1135 117 1135 117 1135 81 c 0,33,34
 1135 0 1135 0 1097 0 c 2,35,-1
 726 0 l 2,36,37
 717 0 717 0 709.5 25.5 c 128,-1,38
 702 51 702 51 702 69.5 c 0,39,40
 702 88 702 88 706 92 c 2,41,-1
 967 406 l 1,42,-1
 779 406 l 2,43,44
 753 406 753 406 753 442 c 0,45,46
 753 523 753 523 791 523 c 2,23,-1
EndSplineSet
Position2: "'cpsp' Capital Spacing lookup 0 subtable" dx=5 dy=0 dh=10 dv=0
EndChar

StartChar: Dzcaron
Encoding: 453 453 41
Width: 1184
GlyphClass: 2
Flags: MW
HStem: 0 117<902 1097> 406 117<770 1143 791 967> 569 131<251 251 251 360> 572 146<879 976 879 987>
VStem: 501 159<311 453>
AnchorPoint: "Anchor-1" 1001 700 basechar 0
AnchorPoint: "Anchor-0" 906 0 basechar 0
LayerCount: 2
Fore
SplineSet
1090 718 m 1,0,-1
 1114 718 l 2,1,2
 1133 718 1133 718 1133 708 c 0,3,4
 1133 701 1133 701 1126 693 c 2,5,-1
 1050 591 l 2,6,7
 1036 572 1036 572 987 572 c 2,8,-1
 976 572 l 2,9,10
 928 572 928 572 917 591 c 2,11,-1
 863 693 l 1,12,13
 860 701 860 701 860 705 c 0,14,15
 860 718 860 718 879 718 c 2,16,-1
 901 718 l 2,17,18
 949 718 949 718 965 694 c 2,19,-1
 990 654 l 1,20,-1
 1021 693 l 2,21,22
 1039 716 1039 716 1090 718 c 1,0,-1
149 700 m 2,23,-1
 373 700 l 2,24,25
 513 700 513 700 586.5 625.5 c 128,-1,26
 660 551 660 551 660 411 c 0,27,28
 660 215 660 215 563.5 107.5 c 128,-1,29
 467 0 467 0 300 0 c 2,30,-1
 76 0 l 2,31,32
 56 0 56 0 48 7.5 c 128,-1,33
 40 15 40 15 40 28.5 c 0,34,35
 40 42 40 42 105 660 c 0,36,37
 109 700 109 700 149 700 c 2,23,-1
251 569 m 1,38,-1
 204 131 l 1,39,-1
 313 131 l 2,40,41
 400 131 400 131 450.5 200.5 c 128,-1,42
 501 270 501 270 501 397 c 0,43,44
 501 569 501 569 360 569 c 2,45,-1
 251 569 l 1,38,-1
791 523 m 2,46,-1
 1143 523 l 2,47,48
 1152 523 1152 523 1159.5 497.5 c 128,-1,49
 1167 472 1167 472 1167 453.5 c 0,50,51
 1167 435 1167 435 1163 431 c 2,52,-1
 902 117 l 1,53,-1
 1109 117 l 2,54,55
 1135 117 1135 117 1135 81 c 0,56,57
 1135 0 1135 0 1097 0 c 2,58,-1
 726 0 l 2,59,60
 717 0 717 0 709.5 25.5 c 128,-1,61
 702 51 702 51 702 69.5 c 0,62,63
 702 88 702 88 706 92 c 2,64,-1
 967 406 l 1,65,-1
 779 406 l 2,66,67
 753 406 753 406 753 442 c 0,68,69
 753 523 753 523 791 523 c 2,46,-1
EndSplineSet
Position2: "'cpsp' Capital Spacing lookup 0 subtable" dx=5 dy=0 dh=10 dv=0
EndChar

StartChar: E
Encoding: 69 69 42
Width: 546
GlyphClass: 2
Flags: MW
HStem: 0 131<62.5 456 204 444> 293 131<235 447 222 459> 569 131<251 503 251 251> 660 40
VStem: 40 501
AnchorPoint: "Anchor-1" 328 700 basechar 0
AnchorPoint: "Anchor-0" 253 0 basechar 0
LayerCount: 2
Fore
SplineSet
149 700 m 2,0,-1
 515 700 l 2,1,2
 541 700 541 700 541 660 c 0,3,4
 541 569 541 569 503 569 c 2,5,-1
 251 569 l 1,6,-1
 235 424 l 1,7,-1
 459 424 l 2,8,9
 485 424 485 424 485 384 c 0,10,11
 485 293 485 293 447 293 c 2,12,-1
 222 293 l 1,13,-1
 204 131 l 1,14,-1
 456 131 l 2,15,16
 482 131 482 131 482 91 c 0,17,18
 482 0 482 0 444 0 c 2,19,-1
 76 0 l 2,20,21
 56 0 56 0 48 7 c 128,-1,22
 40 14 40 14 40 32 c 1,23,-1
 105 660 l 2,24,25
 109 700 109 700 149 700 c 2,0,-1
EndSplineSet
Position2: "'cpsp' Capital Spacing lookup 0 subtable" dx=5 dy=0 dh=10 dv=0
EndChar

StartChar: Eacute
Encoding: 201 201 43
Width: 546
GlyphClass: 2
Flags: MW
HStem: 0 131<62.5 456 204 444> 293 131<235 447 222 459> 569 131<251 503 251 251> 660 40 752 159<289 455>
VStem: 40 501
AnchorPoint: "Anchor-1" 364 877 basechar 0
AnchorPoint: "Anchor-0" 253 0 basechar 0
LayerCount: 2
Fore
SplineSet
318 839.5 m 128,-1,1
 333 861 333 861 349.5 886 c 128,-1,2
 366 911 366 911 430 911 c 128,-1,3
 494 911 494 911 494 898 c 0,4,5
 494 891 494 891 489.5 885.5 c 128,-1,6
 485 880 485 880 449 845.5 c 128,-1,7
 413 811 413 811 383 781.5 c 128,-1,8
 353 752 353 752 300 752 c 0,9,10
 271 752 271 752 271 765 c 0,11,12
 271 771.153846154 271 771.153846154 279.5 783.576923077 c 128,-1,13
 288 796 288 796 295.5 807 c 128,-1,0
 303 818 303 818 318 839.5 c 128,-1,1
149 700 m 2,14,-1
 515 700 l 2,15,16
 541 700 541 700 541 660 c 0,17,18
 541 569 541 569 503 569 c 2,19,-1
 251 569 l 1,20,-1
 235 424 l 1,21,-1
 459 424 l 2,22,23
 485 424 485 424 485 384 c 0,24,25
 485 293 485 293 447 293 c 2,26,-1
 222 293 l 1,27,-1
 204 131 l 1,28,-1
 456 131 l 2,29,30
 482 131 482 131 482 91 c 0,31,32
 482 0 482 0 444 0 c 2,33,-1
 76 0 l 2,34,35
 56 0 56 0 48 7 c 128,-1,36
 40 14 40 14 40 32 c 1,37,-1
 105 660 l 2,38,39
 109 700 109 700 149 700 c 2,14,-1
EndSplineSet
Position2: "'cpsp' Capital Spacing lookup 0 subtable" dx=5 dy=0 dh=10 dv=0
EndChar

StartChar: Ebreve
Encoding: 276 276 44
Width: 546
GlyphClass: 2
Flags: MW
HStem: 0 131<62.5 456 204 444> 293 131<235 447 222 459> 569 131<251 503 251 251> 660 40 752 91<315.5 370 315.5 374>
VStem: 40 501
AnchorPoint: "Anchor-1" 347 863 basechar 0
AnchorPoint: "Anchor-0" 253 0 basechar 0
LayerCount: 2
Fore
SplineSet
458 892 m 0,0,1
 490 892 490 892 490 868 c 0,2,3
 490 823 490 823 442.5 787.5 c 128,-1,4
 395 752 395 752 333 752 c 128,-1,5
 271 752 271 752 233 782.5 c 128,-1,6
 195 813 195 813 195 852.5 c 128,-1,7
 195 892 195 892 234 892 c 0,8,9
 251 892 251 892 265 874 c 0,10,11
 289 843 289 843 341 843 c 0,12,13
 375.727272727 843 375.727272727 843 389.363636364 850.5 c 128,-1,14
 403 858 403 858 407 860 c 128,-1,15
 411 862 411 862 420 870.5 c 2,16,-1
 429 879 l 2,17,18
 442 892 442 892 458 892 c 0,0,1
149 700 m 2,19,-1
 515 700 l 2,20,21
 541 700 541 700 541 660 c 0,22,23
 541 569 541 569 503 569 c 2,24,-1
 251 569 l 1,25,-1
 235 424 l 1,26,-1
 459 424 l 2,27,28
 485 424 485 424 485 384 c 0,29,30
 485 293 485 293 447 293 c 2,31,-1
 222 293 l 1,32,-1
 204 131 l 1,33,-1
 456 131 l 2,34,35
 482 131 482 131 482 91 c 0,36,37
 482 0 482 0 444 0 c 2,38,-1
 76 0 l 2,39,40
 56 0 56 0 48 7 c 128,-1,41
 40 14 40 14 40 32 c 1,42,-1
 105 660 l 2,43,44
 109 700 109 700 149 700 c 2,19,-1
EndSplineSet
Position2: "'cpsp' Capital Spacing lookup 0 subtable" dx=5 dy=0 dh=10 dv=0
EndChar

StartChar: Ecaron
Encoding: 282 282 45
Width: 546
GlyphClass: 2
Flags: MW
HStem: 0 131<62.5 456 204 444> 293 131<235 447 222 459> 569 131<251 503 251 251> 660 40 749 146<227 324 227 335>
VStem: 40 501
AnchorPoint: "Anchor-1" 349 877 basechar 0
AnchorPoint: "Anchor-0" 253 0 basechar 0
LayerCount: 2
Fore
SplineSet
438 895 m 1,0,-1
 462 895 l 2,1,2
 481 895 481 895 481 885 c 0,3,4
 481 878 481 878 474 870 c 2,5,-1
 398 768 l 2,6,7
 384 749 384 749 335 749 c 2,8,-1
 324 749 l 2,9,10
 276 749 276 749 265 768 c 2,11,-1
 211 870 l 1,12,13
 208 878 208 878 208 882 c 0,14,15
 208 895 208 895 227 895 c 2,16,-1
 249 895 l 2,17,18
 297 895 297 895 313 871 c 2,19,-1
 338 831 l 1,20,-1
 369 870 l 2,21,22
 387 893 387 893 438 895 c 1,0,-1
149 700 m 2,23,-1
 515 700 l 2,24,25
 541 700 541 700 541 660 c 0,26,27
 541 569 541 569 503 569 c 2,28,-1
 251 569 l 1,29,-1
 235 424 l 1,30,-1
 459 424 l 2,31,32
 485 424 485 424 485 384 c 0,33,34
 485 293 485 293 447 293 c 2,35,-1
 222 293 l 1,36,-1
 204 131 l 1,37,-1
 456 131 l 2,38,39
 482 131 482 131 482 91 c 0,40,41
 482 0 482 0 444 0 c 2,42,-1
 76 0 l 2,43,44
 56 0 56 0 48 7 c 128,-1,45
 40 14 40 14 40 32 c 1,46,-1
 105 660 l 2,47,48
 109 700 109 700 149 700 c 2,23,-1
EndSplineSet
Position2: "'cpsp' Capital Spacing lookup 0 subtable" dx=5 dy=0 dh=10 dv=0
EndChar

StartChar: Ecircumflex
Encoding: 202 202 46
Width: 546
GlyphClass: 2
Flags: MW
HStem: 0 131<62.5 456 204 444> 293 131<235 447 222 459> 569 131<251 503 251 251> 660 40 749 146<205 349 211 349 338 424 338 446>
VStem: 40 501
AnchorPoint: "Anchor-1" 523 774 basechar 0
AnchorPoint: "Anchor-0" 253 0 basechar 0
LayerCount: 2
Fore
SplineSet
338 895 m 2,0,-1
 349 895 l 2,1,2
 397 895 397 895 408 876 c 2,3,-1
 462 774 l 1,4,5
 465 766 465 766 465 762 c 0,6,7
 465 749 465 749 446 749 c 2,8,-1
 424 749 l 2,9,10
 375 749 375 749 360 773 c 2,11,-1
 335 813 l 1,12,-1
 304 774 l 2,13,14
 285 749 285 749 235 749 c 2,15,-1
 211 749 l 2,16,17
 192 749 192 749 192 759 c 0,18,19
 192 766 192 766 199 774 c 2,20,-1
 275 876 l 2,21,22
 289 895 289 895 338 895 c 2,0,-1
149 700 m 2,23,-1
 515 700 l 2,24,25
 541 700 541 700 541 660 c 0,26,27
 541 569 541 569 503 569 c 2,28,-1
 251 569 l 1,29,-1
 235 424 l 1,30,-1
 459 424 l 2,31,32
 485 424 485 424 485 384 c 0,33,34
 485 293 485 293 447 293 c 2,35,-1
 222 293 l 1,36,-1
 204 131 l 1,37,-1
 456 131 l 2,38,39
 482 131 482 131 482 91 c 0,40,41
 482 0 482 0 444 0 c 2,42,-1
 76 0 l 2,43,44
 56 0 56 0 48 7 c 128,-1,45
 40 14 40 14 40 32 c 1,46,-1
 105 660 l 2,47,48
 109 700 109 700 149 700 c 2,23,-1
EndSplineSet
Position2: "'cpsp' Capital Spacing lookup 0 subtable" dx=5 dy=0 dh=10 dv=0
EndChar

StartChar: Ecircumflexacute
Encoding: 7870 7870 47
Width: 546
GlyphClass: 2
Flags: MW
HStem: 0 131<62.5 456 204 444> 293 131<235 447 222 459> 569 131<251 503 251 251> 660 40 749 146<202 346 208 346 335 406 335 428>
VStem: 40 552
AnchorPoint: "Anchor-1" 475 829 basechar 0
AnchorPoint: "Anchor-0" 253 0 basechar 0
LayerCount: 2
Fore
SplineSet
554 963 m 0,0,1
 592 963 592 963 592 940 c 0,2,3
 592 924 592 924 506 839 c 0,4,5
 489 824 489 824 448 824 c 0,6,7
 429 824 429 824 429 837 c 0,8,9
 429 843 429 843 476 936 c 0,10,11
 490 963 490 963 554 963 c 0,0,1
335 895 m 2,12,-1
 346 895 l 2,13,14
 386 895 386 895 395 876 c 2,15,-1
 444 774 l 2,16,17
 447 766 447 766 447 762 c 0,18,19
 447 749 447 749 428 749 c 2,20,-1
 406 749 l 2,21,22
 347 749 347 749 342 773 c 2,23,-1
 332 813 l 1,24,-1
 301 774 l 2,25,26
 282 749 282 749 232 749 c 2,27,-1
 208 749 l 2,28,29
 189 749 189 749 189 759 c 0,30,31
 189 766 189 766 196 774 c 2,32,-1
 272 876 l 2,33,34
 286 895 286 895 335 895 c 2,12,-1
149 700 m 2,35,-1
 515 700 l 2,36,37
 541 700 541 700 541 660 c 0,38,39
 541 569 541 569 503 569 c 2,40,-1
 251 569 l 1,41,-1
 235 424 l 1,42,-1
 459 424 l 2,43,44
 485 424 485 424 485 384 c 0,45,46
 485 293 485 293 447 293 c 2,47,-1
 222 293 l 1,48,-1
 204 131 l 1,49,-1
 456 131 l 2,50,51
 482 131 482 131 482 91 c 0,52,53
 482 0 482 0 444 0 c 2,54,-1
 76 0 l 2,55,56
 56 0 56 0 48 7 c 128,-1,57
 40 14 40 14 40 32 c 1,58,-1
 105 660 l 2,59,60
 109 700 109 700 149 700 c 2,35,-1
EndSplineSet
Position2: "'cpsp' Capital Spacing lookup 0 subtable" dx=5 dy=0 dh=10 dv=0
EndChar

StartChar: Ecircumflexdotbelow
Encoding: 7878 7878 48
Width: 546
GlyphClass: 2
Flags: MW
HStem: -204 124<221 249> 0 131<62.5 456 204 444> 293 131<235 447 222 459> 569 131<251 503 251 251> 660 40 749 146<205 349 211 349 338 424 338 446>
VStem: 40 501 172 127<-182.5 -101.5>
AnchorPoint: "Anchor-1" 262 -82 basechar 0
AnchorPoint: "Anchor-0" 232 -203 basechar 0
LayerCount: 2
Fore
SplineSet
338 895 m 2,0,-1
 349 895 l 2,1,2
 397 895 397 895 408 876 c 2,3,-1
 462 774 l 1,4,5
 465 766 465 766 465 762 c 0,6,7
 465 749 465 749 446 749 c 2,8,-1
 424 749 l 2,9,10
 375 749 375 749 360 773 c 2,11,-1
 335 813 l 1,12,-1
 304 774 l 2,13,14
 285 749 285 749 235 749 c 2,15,-1
 211 749 l 2,16,17
 192 749 192 749 192 759 c 0,18,19
 192 766 192 766 199 774 c 2,20,-1
 275 876 l 2,21,22
 289 895 289 895 338 895 c 2,0,-1
149 700 m 2,23,-1
 515 700 l 2,24,25
 541 700 541 700 541 660 c 0,26,27
 541 569 541 569 503 569 c 2,28,-1
 251 569 l 1,29,-1
 235 424 l 1,30,-1
 459 424 l 2,31,32
 485 424 485 424 485 384 c 0,33,34
 485 293 485 293 447 293 c 2,35,-1
 222 293 l 1,36,-1
 204 131 l 1,37,-1
 456 131 l 2,38,39
 482 131 482 131 482 91 c 0,40,41
 482 0 482 0 444 0 c 2,42,-1
 76 0 l 2,43,44
 56 0 56 0 48 7 c 128,-1,45
 40 14 40 14 40 32 c 1,46,-1
 105 660 l 2,47,48
 109 700 109 700 149 700 c 2,23,-1
179 -112 m 2,49,50
 182 -80 182 -80 240.5 -80 c 128,-1,51
 299 -80 299 -80 299 -112 c 1,52,-1
 292 -172 l 1,53,54
 287 -204 287 -204 229.5 -204 c 128,-1,55
 172 -204 172 -204 172 -172 c 1,56,-1
 179 -112 l 2,49,50
EndSplineSet
Position2: "'cpsp' Capital Spacing lookup 0 subtable" dx=5 dy=0 dh=10 dv=0
EndChar

StartChar: Ecircumflexgrave
Encoding: 7872 7872 49
Width: 546
GlyphClass: 2
Flags: MW
HStem: 0 131<62.5 456 204 444> 293 131<235 447 222 459> 569 131<251 503 251 251> 660 40 749 146<202 346 208 346 335 406 335 428> 825 139<392 497>
VStem: 40 501
AnchorPoint: "Anchor-1" 475 829 basechar 0
AnchorPoint: "Anchor-0" 253 0 basechar 0
LayerCount: 2
Fore
SplineSet
408 964 m 0,0,1
 481 964 481 964 490 937 c 0,2,3
 518 846 518 846 518 841 c 0,4,5
 518 825 518 825 481.5 825 c 128,-1,6
 445 825 445 825 428 847.5 c 0,7,8
 359 938.823529412 359 938.823529412 359 948 c 0,9,10
 359 964 359 964 408 964 c 0,0,1
335 895 m 2,11,-1
 346 895 l 2,12,13
 386 895 386 895 395 876 c 2,14,-1
 444 774 l 2,15,16
 447 766 447 766 447 762 c 0,17,18
 447 749 447 749 428 749 c 2,19,-1
 406 749 l 2,20,21
 347 749 347 749 342 773 c 2,22,-1
 332 813 l 1,23,-1
 301 774 l 2,24,25
 282 749 282 749 232 749 c 2,26,-1
 208 749 l 2,27,28
 189 749 189 749 189 759 c 0,29,30
 189 766 189 766 196 774 c 2,31,-1
 272 876 l 2,32,33
 286 895 286 895 335 895 c 2,11,-1
149 700 m 2,34,-1
 515 700 l 2,35,36
 541 700 541 700 541 660 c 0,37,38
 541 569 541 569 503 569 c 2,39,-1
 251 569 l 1,40,-1
 235 424 l 1,41,-1
 459 424 l 2,42,43
 485 424 485 424 485 384 c 0,44,45
 485 293 485 293 447 293 c 2,46,-1
 222 293 l 1,47,-1
 204 131 l 1,48,-1
 456 131 l 2,49,50
 482 131 482 131 482 91 c 0,51,52
 482 0 482 0 444 0 c 2,53,-1
 76 0 l 2,54,55
 56 0 56 0 48 7 c 128,-1,56
 40 14 40 14 40 32 c 1,57,-1
 105 660 l 2,58,59
 109 700 109 700 149 700 c 2,34,-1
EndSplineSet
Position2: "'cpsp' Capital Spacing lookup 0 subtable" dx=5 dy=0 dh=10 dv=0
EndChar

StartChar: Ecircumflexhookabove
Encoding: 7874 7874 50
Width: 546
GlyphClass: 2
Flags: MW
HStem: 0 131<62.5 456 204 444> 293 131<235 447 222 459> 569 131<251 503 251 251> 660 40 749 146<202 346 208 346 335 406 335 428> 896 70<412 503>
VStem: 489 70<889 901.5>
AnchorPoint: "Anchor-1" 475 829 basechar 0
AnchorPoint: "Anchor-0" 253 0 basechar 0
LayerCount: 2
Fore
SplineSet
489 896 m 0,0,1
 489 913 489 913 469.5 913 c 128,-1,2
 450 913 450 913 434 904.5 c 128,-1,3
 418 896 418 896 416 896 c 0,4,5
 410 896 410 896 400.5 911.5 c 128,-1,6
 391 927 391 927 391 937.5 c 128,-1,7
 391 948 391 948 419 957 c 128,-1,8
 447 966 447 966 474 966 c 0,9,10
 559 966 559 966 559 900 c 0,11,12
 559 872 559 872 522 849 c 128,-1,13
 485 826 485 826 475 826 c 0,14,15
 434 826 434 826 434 847 c 0,16,17
 434 859 434 859 455 867 c 0,18,19
 478.11627907 876.906976744 478.11627907 876.906976744 483.558139535 882.953488372 c 128,-1,20
 489 889 489 889 489 896 c 0,0,1
335 895 m 2,21,-1
 346 895 l 2,22,23
 386 895 386 895 395 876 c 2,24,-1
 444 774 l 2,25,26
 447 766 447 766 447 762 c 0,27,28
 447 749 447 749 428 749 c 2,29,-1
 406 749 l 2,30,31
 347 749 347 749 342 773 c 2,32,-1
 332 813 l 1,33,-1
 301 774 l 2,34,35
 282 749 282 749 232 749 c 2,36,-1
 208 749 l 2,37,38
 189 749 189 749 189 759 c 0,39,40
 189 766 189 766 196 774 c 2,41,-1
 272 876 l 2,42,43
 286 895 286 895 335 895 c 2,21,-1
149 700 m 2,44,-1
 515 700 l 2,45,46
 541 700 541 700 541 660 c 0,47,48
 541 569 541 569 503 569 c 2,49,-1
 251 569 l 1,50,-1
 235 424 l 1,51,-1
 459 424 l 2,52,53
 485 424 485 424 485 384 c 0,54,55
 485 293 485 293 447 293 c 2,56,-1
 222 293 l 1,57,-1
 204 131 l 1,58,-1
 456 131 l 2,59,60
 482 131 482 131 482 91 c 0,61,62
 482 0 482 0 444 0 c 2,63,-1
 76 0 l 2,64,65
 56 0 56 0 48 7 c 128,-1,66
 40 14 40 14 40 32 c 1,67,-1
 105 660 l 2,68,69
 109 700 109 700 149 700 c 2,44,-1
EndSplineSet
Position2: "'cpsp' Capital Spacing lookup 0 subtable" dx=5 dy=0 dh=10 dv=0
EndChar

StartChar: Ecircumflextilde
Encoding: 7876 7876 51
Width: 546
GlyphClass: 2
Flags: MW
HStem: 0 131<62.5 456 204 444> 293 131<235 447 222 459> 569 131<251 503 251 251> 660 40 749 122<215 353 342 428 342 450> 903 86<408.5 421.5> 915 100
VStem: 40 501
AnchorPoint: "Anchor-1" 350 877 basechar 0
AnchorPoint: "Anchor-0" 253 0 basechar 0
LayerCount: 2
Fore
SplineSet
305 1015 m 0,0,1
 337 1015 337 1015 367.5 1002 c 128,-1,2
 398 989 398 989 420.5 989 c 128,-1,3
 443 989 443 989 466 1004.5 c 128,-1,4
 489 1020 489 1020 506 996 c 0,5,6
 515 985 515 985 514 973.5 c 128,-1,7
 513 962 513 962 499 944 c 0,8,9
 461 903 461 903 403 903 c 0,10,11
 369 903 369 903 335 916 c 128,-1,12
 301 929 301 929 286 929 c 128,-1,13
 271 929 271 929 248.5 916 c 128,-1,14
 226 903 226 903 210 929 c 128,-1,15
 194 955 194 955 212 974 c 0,16,17
 258 1015 258 1015 305 1015 c 0,0,1
342 871 m 2,18,-1
 353 871 l 2,19,20
 397 871 397 871 412 852 c 1,21,-1
 466 774 l 1,22,23
 469 766 469 766 469 762 c 0,24,25
 469 749 469 749 450 749 c 2,26,-1
 428 749 l 2,27,28
 401 749 401 749 364 773 c 1,29,-1
 339 799 l 1,30,-1
 308 774 l 1,31,32
 301 771 301 771 290.5 765.5 c 128,-1,33
 280 760 280 760 274 757 c 0,34,35
 258 749 258 749 239 749 c 2,36,-1
 215 749 l 2,37,38
 196 749 196 749 196 759 c 0,39,40
 196 766 196 766 203 774 c 2,41,-1
 279 852 l 1,42,43
 299 871 299 871 342 871 c 2,18,-1
149 700 m 2,44,-1
 515 700 l 2,45,46
 541 700 541 700 541 660 c 0,47,48
 541 569 541 569 503 569 c 2,49,-1
 251 569 l 1,50,-1
 235 424 l 1,51,-1
 459 424 l 2,52,53
 485 424 485 424 485 384 c 0,54,55
 485 293 485 293 447 293 c 2,56,-1
 222 293 l 1,57,-1
 204 131 l 1,58,-1
 456 131 l 2,59,60
 482 131 482 131 482 91 c 0,61,62
 482 0 482 0 444 0 c 2,63,-1
 76 0 l 2,64,65
 56 0 56 0 48 7 c 128,-1,66
 40 14 40 14 40 32 c 1,67,-1
 105 660 l 2,68,69
 109 700 109 700 149 700 c 2,44,-1
EndSplineSet
Position2: "'cpsp' Capital Spacing lookup 0 subtable" dx=5 dy=0 dh=10 dv=0
EndChar

StartChar: Edieresis
Encoding: 203 203 52
Width: 546
GlyphClass: 2
Flags: MW
HStem: 0 131<62.5 456 204 444> 293 131<235 447 222 459> 569 131<251 503 251 251> 660 40 755 124<237 265 417 445>
VStem: 40 501 188 127<776.5 857.5> 368 127<776.5 857.5>
AnchorPoint: "Anchor-1" 351 877 basechar 0
AnchorPoint: "Anchor-0" 253 0 basechar 0
LayerCount: 2
Fore
SplineSet
195 847 m 2,0,1
 198 879 198 879 256.5 879 c 128,-1,2
 315 879 315 879 315 847 c 1,3,-1
 308 787 l 1,4,5
 303 755 303 755 245.5 755 c 128,-1,6
 188 755 188 755 188 787 c 1,7,-1
 195 847 l 2,0,1
375 847 m 2,8,9
 378 879 378 879 436.5 879 c 128,-1,10
 495 879 495 879 495 847 c 1,11,-1
 488 787 l 1,12,13
 483 755 483 755 425.5 755 c 128,-1,14
 368 755 368 755 368 787 c 1,15,-1
 375 847 l 2,8,9
149 700 m 2,16,-1
 515 700 l 2,17,18
 541 700 541 700 541 660 c 0,19,20
 541 569 541 569 503 569 c 2,21,-1
 251 569 l 1,22,-1
 235 424 l 1,23,-1
 459 424 l 2,24,25
 485 424 485 424 485 384 c 0,26,27
 485 293 485 293 447 293 c 2,28,-1
 222 293 l 1,29,-1
 204 131 l 1,30,-1
 456 131 l 2,31,32
 482 131 482 131 482 91 c 0,33,34
 482 0 482 0 444 0 c 2,35,-1
 76 0 l 2,36,37
 56 0 56 0 48 7 c 128,-1,38
 40 14 40 14 40 32 c 1,39,-1
 105 660 l 2,40,41
 109 700 109 700 149 700 c 2,16,-1
EndSplineSet
Position2: "'cpsp' Capital Spacing lookup 0 subtable" dx=5 dy=0 dh=10 dv=0
EndChar

StartChar: Edotaccent
Encoding: 278 278 53
Width: 546
GlyphClass: 2
Flags: MW
HStem: 0 131<62.5 456 204 444> 293 131<235 447 222 459> 569 131<251 503 251 251> 660 40 755 124<313 341>
VStem: 40 501 264 127<776.5 857.5>
AnchorPoint: "Anchor-1" 354 877 basechar 0
AnchorPoint: "Anchor-0" 253 0 basechar 0
LayerCount: 2
Fore
SplineSet
271 847 m 2,0,1
 274 879 274 879 332.5 879 c 128,-1,2
 391 879 391 879 391 847 c 1,3,-1
 384 787 l 1,4,5
 379 755 379 755 321.5 755 c 128,-1,6
 264 755 264 755 264 787 c 1,7,-1
 271 847 l 2,0,1
149 700 m 2,8,-1
 515 700 l 2,9,10
 541 700 541 700 541 660 c 0,11,12
 541 569 541 569 503 569 c 2,13,-1
 251 569 l 1,14,-1
 235 424 l 1,15,-1
 459 424 l 2,16,17
 485 424 485 424 485 384 c 0,18,19
 485 293 485 293 447 293 c 2,20,-1
 222 293 l 1,21,-1
 204 131 l 1,22,-1
 456 131 l 2,23,24
 482 131 482 131 482 91 c 0,25,26
 482 0 482 0 444 0 c 2,27,-1
 76 0 l 2,28,29
 56 0 56 0 48 7 c 128,-1,30
 40 14 40 14 40 32 c 1,31,-1
 105 660 l 2,32,33
 109 700 109 700 149 700 c 2,8,-1
EndSplineSet
Position2: "'cpsp' Capital Spacing lookup 0 subtable" dx=5 dy=0 dh=10 dv=0
EndChar

StartChar: Edotbelow
Encoding: 7864 7864 54
Width: 546
GlyphClass: 2
Flags: MW
HStem: -204 124<221 249> 0 131<62.5 456 204 444> 293 131<235 447 222 459> 569 131<251 503 251 251> 660 40
VStem: 40 501 172 127<-182.5 -101.5>
AnchorPoint: "Anchor-1" 262 -82 basechar 0
AnchorPoint: "Anchor-0" 232 -203 basechar 0
LayerCount: 2
Fore
SplineSet
149 700 m 2,0,-1
 515 700 l 2,1,2
 541 700 541 700 541 660 c 0,3,4
 541 569 541 569 503 569 c 2,5,-1
 251 569 l 1,6,-1
 235 424 l 1,7,-1
 459 424 l 2,8,9
 485 424 485 424 485 384 c 0,10,11
 485 293 485 293 447 293 c 2,12,-1
 222 293 l 1,13,-1
 204 131 l 1,14,-1
 456 131 l 2,15,16
 482 131 482 131 482 91 c 0,17,18
 482 0 482 0 444 0 c 2,19,-1
 76 0 l 2,20,21
 56 0 56 0 48 7 c 128,-1,22
 40 14 40 14 40 32 c 1,23,-1
 105 660 l 2,24,25
 109 700 109 700 149 700 c 2,0,-1
179 -112 m 2,26,27
 182 -80 182 -80 240.5 -80 c 128,-1,28
 299 -80 299 -80 299 -112 c 1,29,-1
 292 -172 l 1,30,31
 287 -204 287 -204 229.5 -204 c 128,-1,32
 172 -204 172 -204 172 -172 c 1,33,-1
 179 -112 l 2,26,27
EndSplineSet
Position2: "'cpsp' Capital Spacing lookup 0 subtable" dx=5 dy=0 dh=10 dv=0
EndChar

StartChar: Egrave
Encoding: 200 200 55
Width: 546
GlyphClass: 2
Flags: MW
HStem: 0 131<62.5 456 204 444> 293 131<235 447 222 459> 569 131<251 503 251 251> 660 40 752 159<237 372>
VStem: 40 501
AnchorPoint: "Anchor-1" 346 877 basechar 0
AnchorPoint: "Anchor-0" 253 0 basechar 0
LayerCount: 2
Fore
SplineSet
196 895 m 0,0,1
 196 911 196 911 261.5 911 c 128,-1,2
 327 911 327 911 340 884 c 0,3,4
 350 863 350 863 359.5 843 c 128,-1,5
 369 823 369 823 374.5 812 c 128,-1,6
 380 801 380 801 384.5 791 c 0,7,8
 393 772.111111111 393 772.111111111 393 768 c 0,9,10
 393 752 393 752 351 752 c 128,-1,11
 309 752 309 752 287 779 c 128,-1,12
 265 806 265 806 230.5 847 c 128,-1,13
 196 888 196 888 196 895 c 0,0,1
149 700 m 2,14,-1
 515 700 l 2,15,16
 541 700 541 700 541 660 c 0,17,18
 541 569 541 569 503 569 c 2,19,-1
 251 569 l 1,20,-1
 235 424 l 1,21,-1
 459 424 l 2,22,23
 485 424 485 424 485 384 c 0,24,25
 485 293 485 293 447 293 c 2,26,-1
 222 293 l 1,27,-1
 204 131 l 1,28,-1
 456 131 l 2,29,30
 482 131 482 131 482 91 c 0,31,32
 482 0 482 0 444 0 c 2,33,-1
 76 0 l 2,34,35
 56 0 56 0 48 7 c 128,-1,36
 40 14 40 14 40 32 c 1,37,-1
 105 660 l 2,38,39
 109 700 109 700 149 700 c 2,14,-1
EndSplineSet
Position2: "'cpsp' Capital Spacing lookup 0 subtable" dx=5 dy=0 dh=10 dv=0
EndChar

StartChar: Ehookabove
Encoding: 7866 7866 56
Width: 546
GlyphClass: 2
Flags: MW
HStem: 0 131<62.5 456 204 444> 293 131<235 447 222 459> 569 131<251 503 251 251> 660 40 867 61<335.5 348.5>
VStem: 371 87<828 852>
AnchorPoint: "Anchor-1" 346 877 basechar 0
AnchorPoint: "Anchor-0" 253 0 basechar 0
LayerCount: 2
Fore
SplineSet
371 845 m 0,0,1
 371 867 371 867 339 867 c 0,2,3
 326 867 326 867 312 861 c 128,-1,4
 298 855 298 855 295 855 c 0,5,6
 289 855 289 855 279.5 870.5 c 128,-1,7
 270 886 270 886 270 896.5 c 0,8,9
 270 907 270 907 298.5 917.5 c 128,-1,10
 327 928 327 928 364.5 928 c 0,11,12
 402 928 402 928 430 906.5 c 128,-1,13
 458 885 458 885 458 851 c 128,-1,14
 458 817 458 817 416 782 c 128,-1,15
 374 747 374 747 351.5 747 c 0,16,17
 329 747 329 747 314 753.5 c 128,-1,18
 299 760 299 760 299 769 c 0,19,20
 299 778 299 778 335 802 c 128,-1,21
 371 826 371 826 371 845 c 0,0,1
149 700 m 2,22,-1
 515 700 l 2,23,24
 541 700 541 700 541 660 c 0,25,26
 541 569 541 569 503 569 c 2,27,-1
 251 569 l 1,28,-1
 235 424 l 1,29,-1
 459 424 l 2,30,31
 485 424 485 424 485 384 c 0,32,33
 485 293 485 293 447 293 c 2,34,-1
 222 293 l 1,35,-1
 204 131 l 1,36,-1
 456 131 l 2,37,38
 482 131 482 131 482 91 c 0,39,40
 482 0 482 0 444 0 c 2,41,-1
 76 0 l 2,42,43
 56 0 56 0 48 7 c 128,-1,44
 40 14 40 14 40 32 c 1,45,-1
 105 660 l 2,46,47
 109 700 109 700 149 700 c 2,22,-1
EndSplineSet
Position2: "'cpsp' Capital Spacing lookup 0 subtable" dx=5 dy=0 dh=10 dv=0
EndChar

StartChar: Emacron
Encoding: 274 274 57
Width: 546
GlyphClass: 2
Flags: MW
HStem: 0 131<62.5 456 204 444> 293 131<235 447 222 459> 569 131<251 503 251 251> 660 40 774 95<222 458 242 447>
VStem: 40 501
AnchorPoint: "Anchor-1" 357 877 basechar 0
AnchorPoint: "Anchor-0" 253 0 basechar 0
LayerCount: 2
Fore
SplineSet
242 869 m 2,0,-1
 458 869 l 2,1,2
 484 869 484 869 484 839 c 0,3,4
 484 774 484 774 447 774 c 2,5,-1
 231 774 l 2,6,7
 205 774 205 774 205 804 c 0,8,9
 205 869 205 869 242 869 c 2,0,-1
149 700 m 2,10,-1
 515 700 l 2,11,12
 541 700 541 700 541 660 c 0,13,14
 541 569 541 569 503 569 c 2,15,-1
 251 569 l 1,16,-1
 235 424 l 1,17,-1
 459 424 l 2,18,19
 485 424 485 424 485 384 c 0,20,21
 485 293 485 293 447 293 c 2,22,-1
 222 293 l 1,23,-1
 204 131 l 1,24,-1
 456 131 l 2,25,26
 482 131 482 131 482 91 c 0,27,28
 482 0 482 0 444 0 c 2,29,-1
 76 0 l 2,30,31
 56 0 56 0 48 7 c 128,-1,32
 40 14 40 14 40 32 c 1,33,-1
 105 660 l 2,34,35
 109 700 109 700 149 700 c 2,10,-1
EndSplineSet
Position2: "'cpsp' Capital Spacing lookup 0 subtable" dx=5 dy=0 dh=10 dv=0
EndChar

StartChar: Eogonek
Encoding: 280 280 58
Width: 546
GlyphClass: 2
Flags: MW
HStem: -183 70<473 485> 0 131<62.5 456 204 391 444 456 456 458.5> 293 131<235 447 222 459> 569 131<251 503 251 251> 660 40
VStem: 357 69<-90 -81>
AnchorPoint: "Anchor-1" 328 700 basechar 0
AnchorPoint: "Anchor-0" 400 -203 basechar 0
LayerCount: 2
Fore
SplineSet
542 -99 m 0,0,1
 553 -99 553 -99 553 -128.5 c 0,2,3
 553 -158 553 -158 527 -170.5 c 128,-1,4
 501 -183 501 -183 465 -183 c 0,5,6
 403 -183 403 -183 380 -156 c 128,-1,7
 357 -129 357 -129 357 -94 c 0,8,9
 357 -31 357 -31 391 0 c 1,10,-1
 76 0 l 2,11,12
 56 0 56 0 48 7 c 128,-1,13
 40 14 40 14 40 32 c 1,14,-1
 105 660 l 2,15,16
 109 700 109 700 149 700 c 2,17,-1
 515 700 l 2,18,19
 541 700 541 700 541 660 c 0,20,21
 541 569 541 569 503 569 c 2,22,-1
 251 569 l 1,23,-1
 235 424 l 1,24,-1
 459 424 l 2,25,26
 485 424 485 424 485 384 c 0,27,28
 485 293 485 293 447 293 c 2,29,-1
 222 293 l 1,30,-1
 204 131 l 1,31,-1
 456 131 l 2,32,33
 482 131 482 131 482 91 c 0,34,35
 482 0 482 0 444 0 c 1,36,-1
 444 -3 l 2,37,38
 444 -9 444 -9 435 -29.5 c 128,-1,39
 426 -50 426 -50 426 -70 c 0,40,41
 426 -113 426 -113 484 -113 c 0,42,43
 502 -113 502 -113 521 -106 c 128,-1,44
 540 -99 540 -99 542 -99 c 0,0,1
EndSplineSet
Position2: "'cpsp' Capital Spacing lookup 0 subtable" dx=5 dy=0 dh=10 dv=0
EndChar

StartChar: Etilde
Encoding: 7868 7868 59
Width: 546
GlyphClass: 2
Flags: MW
HStem: 0 131<62.5 456 204 444> 293 131<235 447 222 459> 569 131<251 503 251 251> 660 40 758 86<395.5 409.5> 770 100
VStem: 40 501
AnchorPoint: "Anchor-1" 352 877 basechar 0
AnchorPoint: "Anchor-0" 253 0 basechar 0
LayerCount: 2
Fore
SplineSet
179 829 m 0,0,1
 231 870 231 870 274 870 c 128,-1,2
 317 870 317 870 350.5 857 c 128,-1,3
 384 844 384 844 409 844 c 128,-1,4
 434 844 434 844 459.5 859.5 c 128,-1,5
 485 875 485 875 503 851 c 0,6,7
 513 840 513 840 511.5 828.5 c 128,-1,8
 510 817 510 817 495 799 c 0,9,10
 454 758 454 758 389 758 c 0,11,12
 352 758 352 758 314 771 c 128,-1,13
 276 784 276 784 260 784 c 128,-1,14
 244 784 244 784 219.5 771 c 128,-1,15
 195 758 195 758 177.5 784 c 128,-1,16
 160 810 160 810 179 829 c 0,0,1
149 700 m 2,17,-1
 515 700 l 2,18,19
 541 700 541 700 541 660 c 0,20,21
 541 569 541 569 503 569 c 2,22,-1
 251 569 l 1,23,-1
 235 424 l 1,24,-1
 459 424 l 2,25,26
 485 424 485 424 485 384 c 0,27,28
 485 293 485 293 447 293 c 2,29,-1
 222 293 l 1,30,-1
 204 131 l 1,31,-1
 456 131 l 2,32,33
 482 131 482 131 482 91 c 0,34,35
 482 0 482 0 444 0 c 2,36,-1
 76 0 l 2,37,38
 56 0 56 0 48 7 c 128,-1,39
 40 14 40 14 40 32 c 1,40,-1
 105 660 l 2,41,42
 109 700 109 700 149 700 c 2,17,-1
EndSplineSet
Position2: "'cpsp' Capital Spacing lookup 0 subtable" dx=5 dy=0 dh=10 dv=0
EndChar

StartChar: F
Encoding: 70 70 60
Width: 503
GlyphClass: 2
Flags: MW
HStem: 292 131<238 439 225 451> 569 131<254 475 254 254>
VStem: 42 471
LayerCount: 2
Fore
SplineSet
152 700 m 2,0,-1
 487 700 l 2,1,2
 513 700 513 700 513 660 c 0,3,4
 513 569 513 569 475 569 c 2,5,-1
 254 569 l 1,6,-1
 238 423 l 1,7,-1
 451 423 l 2,8,9
 477 423 477 423 477 383 c 0,10,11
 477 292 477 292 439 292 c 2,12,-1
 225 292 l 1,13,-1
 197 30 l 2,14,15
 194 -2 194 -2 134 -2 c 2,16,-1
 99 -2 l 2,17,18
 42 -2 42 -2 42 29 c 1,19,-1
 108 660 l 2,20,21
 112 700 112 700 152 700 c 2,0,-1
EndSplineSet
Position2: "'cpsp' Capital Spacing lookup 0 subtable" dx=5 dy=0 dh=10 dv=0
EndChar

StartChar: G
Encoding: 71 71 61
Width: 672
GlyphClass: 2
Flags: MW
HStem: -8 131<299.5 364 299.5 371> 258 131<346 571 367 442> 576 132<335 447>
VStem: 41 159<240.5 390.5 240.5 420.5>
AnchorPoint: "Anchor-1" 397 700 basechar 0
AnchorPoint: "Anchor-0" 336 0 basechar 0
LayerCount: 2
Fore
SplineSet
416 708 m 0,0,1
 487 708 487 708 553 688.5 c 128,-1,2
 619 669 619 669 619 640 c 0,3,4
 619 619 619 619 590.5 581.5 c 128,-1,5
 562 544 562 544 544 544 c 0,6,7
 541 544 541 544 524.5 552 c 0,8,9
 475 576 475 576 399 576 c 0,10,11
 302 576 302 576 251 506 c 128,-1,12
 200 436 200 436 200 298 c 0,13,14
 200 123 200 123 350 123 c 0,15,16
 390 123 390 123 428 130 c 1,17,-1
 442 258 l 1,18,-1
 355 258 l 2,19,20
 329 258 329 258 329 298 c 0,21,22
 329 389 329 389 367 389 c 2,23,-1
 571 389 l 2,24,25
 591 389 591 389 599.5 382 c 128,-1,26
 608 375 608 375 608 365 c 128,-1,27
 608 355 608 355 602.5 305.5 c 0,28,29
 583.666666667 136 583.666666667 136 577 71 c 0,30,31
 574 47 574 47 547 30 c 128,-1,32
 520 13 520 13 478.5 5.5 c 0,33,34
 403.8 -8 403.8 -8 336 -8 c 0,35,36
 186 -8 186 -8 113.5 61.5 c 128,-1,37
 41 131 41 131 41 276 c 0,38,39
 41 491 41 491 137 599.5 c 128,-1,40
 233 708 233 708 416 708 c 0,0,1
EndSplineSet
Position2: "'cpsp' Capital Spacing lookup 0 subtable" dx=5 dy=0 dh=10 dv=0
EndChar

StartChar: Gbreve
Encoding: 286 286 62
Width: 672
GlyphClass: 2
Flags: MW
HStem: -8 131<299.5 364 299.5 371> 258 131<346 571 367 442> 576 132<335 447> 752 91<384.5 439 384.5 443>
VStem: 41 159<240.5 390.5 240.5 420.5>
AnchorPoint: "Anchor-1" 416 863 basechar 0
AnchorPoint: "Anchor-0" 336 0 basechar 0
LayerCount: 2
Fore
SplineSet
527 892 m 0,0,1
 559 892 559 892 559 868 c 0,2,3
 559 823 559 823 511.5 787.5 c 128,-1,4
 464 752 464 752 402 752 c 128,-1,5
 340 752 340 752 302 782.5 c 128,-1,6
 264 813 264 813 264 852.5 c 128,-1,7
 264 892 264 892 303 892 c 0,8,9
 320 892 320 892 334 874 c 0,10,11
 358 843 358 843 410 843 c 0,12,13
 444.727272727 843 444.727272727 843 458.363636364 850.5 c 128,-1,14
 472 858 472 858 476 860 c 128,-1,15
 480 862 480 862 489 870.5 c 2,16,-1
 498 879 l 2,17,18
 511 892 511 892 527 892 c 0,0,1
416 708 m 0,19,20
 487 708 487 708 553 688.5 c 128,-1,21
 619 669 619 669 619 640 c 0,22,23
 619 619 619 619 590.5 581.5 c 128,-1,24
 562 544 562 544 544 544 c 0,25,26
 541 544 541 544 524.5 552 c 0,27,28
 475 576 475 576 399 576 c 0,29,30
 302 576 302 576 251 506 c 128,-1,31
 200 436 200 436 200 298 c 0,32,33
 200 123 200 123 350 123 c 0,34,35
 390 123 390 123 428 130 c 1,36,-1
 442 258 l 1,37,-1
 355 258 l 2,38,39
 329 258 329 258 329 298 c 0,40,41
 329 389 329 389 367 389 c 2,42,-1
 571 389 l 2,43,44
 591 389 591 389 599.5 382 c 128,-1,45
 608 375 608 375 608 365 c 128,-1,46
 608 355 608 355 602.5 305.5 c 0,47,48
 583.666666667 136 583.666666667 136 577 71 c 0,49,50
 574 47 574 47 547 30 c 128,-1,51
 520 13 520 13 478.5 5.5 c 0,52,53
 403.8 -8 403.8 -8 336 -8 c 0,54,55
 186 -8 186 -8 113.5 61.5 c 128,-1,56
 41 131 41 131 41 276 c 0,57,58
 41 491 41 491 137 599.5 c 128,-1,59
 233 708 233 708 416 708 c 0,19,20
EndSplineSet
Position2: "'cpsp' Capital Spacing lookup 0 subtable" dx=5 dy=0 dh=10 dv=0
EndChar

StartChar: Gcircumflex
Encoding: 284 284 63
Width: 672
GlyphClass: 2
Flags: MW
HStem: -8 131<299.5 364 299.5 371> 258 131<346 571 367 442> 576 132<335 447> 749 146<274 418 280 418 407 493 407 515>
VStem: 41 159<240.5 390.5 240.5 420.5>
AnchorPoint: "Anchor-1" 592 774 basechar 0
AnchorPoint: "Anchor-0" 336 0 basechar 0
LayerCount: 2
Fore
SplineSet
407 895 m 2,0,-1
 418 895 l 2,1,2
 466 895 466 895 477 876 c 2,3,-1
 531 774 l 1,4,5
 534 766 534 766 534 762 c 0,6,7
 534 749 534 749 515 749 c 2,8,-1
 493 749 l 2,9,10
 444 749 444 749 429 773 c 2,11,-1
 404 813 l 1,12,-1
 373 774 l 2,13,14
 354 749 354 749 304 749 c 2,15,-1
 280 749 l 2,16,17
 261 749 261 749 261 759 c 0,18,19
 261 766 261 766 268 774 c 2,20,-1
 344 876 l 2,21,22
 358 895 358 895 407 895 c 2,0,-1
416 708 m 0,23,24
 487 708 487 708 553 688.5 c 128,-1,25
 619 669 619 669 619 640 c 0,26,27
 619 619 619 619 590.5 581.5 c 128,-1,28
 562 544 562 544 544 544 c 0,29,30
 541 544 541 544 524.5 552 c 0,31,32
 475 576 475 576 399 576 c 0,33,34
 302 576 302 576 251 506 c 128,-1,35
 200 436 200 436 200 298 c 0,36,37
 200 123 200 123 350 123 c 0,38,39
 390 123 390 123 428 130 c 1,40,-1
 442 258 l 1,41,-1
 355 258 l 2,42,43
 329 258 329 258 329 298 c 0,44,45
 329 389 329 389 367 389 c 2,46,-1
 571 389 l 2,47,48
 591 389 591 389 599.5 382 c 128,-1,49
 608 375 608 375 608 365 c 128,-1,50
 608 355 608 355 602.5 305.5 c 0,51,52
 583.666666667 136 583.666666667 136 577 71 c 0,53,54
 574 47 574 47 547 30 c 128,-1,55
 520 13 520 13 478.5 5.5 c 0,56,57
 403.8 -8 403.8 -8 336 -8 c 0,58,59
 186 -8 186 -8 113.5 61.5 c 128,-1,60
 41 131 41 131 41 276 c 0,61,62
 41 491 41 491 137 599.5 c 128,-1,63
 233 708 233 708 416 708 c 0,23,24
EndSplineSet
Position2: "'cpsp' Capital Spacing lookup 0 subtable" dx=5 dy=0 dh=10 dv=0
EndChar

StartChar: Gcommaaccent
Encoding: 290 290 64
Width: 672
GlyphClass: 2
Flags: MW
HStem: -240 189<257 344> -8 131<299.5 364 299.5 371> 258 131<346 571 367 442> 576 132<335 447>
VStem: 41 159<240.5 390.5 240.5 420.5> 260 129<-128.5 -82.5 -128.5 -81.5>
AnchorPoint: "Anchor-1" 397 700 basechar 0
AnchorPoint: "Anchor-0" 320 -203 basechar 0
LayerCount: 2
Fore
SplineSet
416 708 m 0,0,1
 487 708 487 708 553 688.5 c 128,-1,2
 619 669 619 669 619 640 c 0,3,4
 619 619 619 619 590.5 581.5 c 128,-1,5
 562 544 562 544 544 544 c 0,6,7
 541 544 541 544 524.5 552 c 0,8,9
 475 576 475 576 399 576 c 0,10,11
 302 576 302 576 251 506 c 128,-1,12
 200 436 200 436 200 298 c 0,13,14
 200 123 200 123 350 123 c 0,15,16
 390 123 390 123 428 130 c 1,17,-1
 442 258 l 1,18,-1
 355 258 l 2,19,20
 329 258 329 258 329 298 c 0,21,22
 329 389 329 389 367 389 c 2,23,-1
 571 389 l 2,24,25
 591 389 591 389 599.5 382 c 128,-1,26
 608 375 608 375 608 365 c 128,-1,27
 608 355 608 355 602.5 305.5 c 0,28,29
 583.666666667 136 583.666666667 136 577 71 c 0,30,31
 574 47 574 47 547 30 c 128,-1,32
 520 13 520 13 478.5 5.5 c 0,33,34
 403.8 -8 403.8 -8 336 -8 c 0,35,36
 186 -8 186 -8 113.5 61.5 c 128,-1,37
 41 131 41 131 41 276 c 0,38,39
 41 491 41 491 137 599.5 c 128,-1,40
 233 708 233 708 416 708 c 0,0,1
325 -51 m 2,41,-1
 344 -51 l 2,42,43
 389 -51 389 -51 389 -96 c 128,-1,44
 389 -141 389 -141 342.5 -190.5 c 128,-1,45
 296 -240 296 -240 266 -240 c 0,46,47
 250 -240 250 -240 236 -234.5 c 128,-1,48
 222 -229 222 -229 223 -221 c 128,-1,49
 224 -213 224 -213 233.5 -198 c 0,50,51
 260 -156.157894737 260 -156.157894737 260 -95 c 0,52,53
 260 -51 260 -51 325 -51 c 2,41,-1
EndSplineSet
Position2: "'cpsp' Capital Spacing lookup 0 subtable" dx=5 dy=0 dh=10 dv=0
EndChar

StartChar: Gdotaccent
Encoding: 288 288 65
Width: 672
GlyphClass: 2
Flags: MW
HStem: -8 131<299.5 364 299.5 371> 258 131<346 571 367 442> 576 132<335 447> 755 124<382 410>
VStem: 41 159<240.5 390.5 240.5 420.5> 333 127<776.5 857.5>
AnchorPoint: "Anchor-1" 423 877 basechar 0
AnchorPoint: "Anchor-0" 336 0 basechar 0
LayerCount: 2
Fore
SplineSet
340 847 m 2,0,1
 343 879 343 879 401.5 879 c 128,-1,2
 460 879 460 879 460 847 c 1,3,-1
 453 787 l 1,4,5
 448 755 448 755 390.5 755 c 128,-1,6
 333 755 333 755 333 787 c 1,7,-1
 340 847 l 2,0,1
416 708 m 0,8,9
 487 708 487 708 553 688.5 c 128,-1,10
 619 669 619 669 619 640 c 0,11,12
 619 619 619 619 590.5 581.5 c 128,-1,13
 562 544 562 544 544 544 c 0,14,15
 541 544 541 544 524.5 552 c 0,16,17
 475 576 475 576 399 576 c 0,18,19
 302 576 302 576 251 506 c 128,-1,20
 200 436 200 436 200 298 c 0,21,22
 200 123 200 123 350 123 c 0,23,24
 390 123 390 123 428 130 c 1,25,-1
 442 258 l 1,26,-1
 355 258 l 2,27,28
 329 258 329 258 329 298 c 0,29,30
 329 389 329 389 367 389 c 2,31,-1
 571 389 l 2,32,33
 591 389 591 389 599.5 382 c 128,-1,34
 608 375 608 375 608 365 c 128,-1,35
 608 355 608 355 602.5 305.5 c 0,36,37
 583.666666667 136 583.666666667 136 577 71 c 0,38,39
 574 47 574 47 547 30 c 128,-1,40
 520 13 520 13 478.5 5.5 c 0,41,42
 403.8 -8 403.8 -8 336 -8 c 0,43,44
 186 -8 186 -8 113.5 61.5 c 128,-1,45
 41 131 41 131 41 276 c 0,46,47
 41 491 41 491 137 599.5 c 128,-1,48
 233 708 233 708 416 708 c 0,8,9
EndSplineSet
Position2: "'cpsp' Capital Spacing lookup 0 subtable" dx=5 dy=0 dh=10 dv=0
EndChar

StartChar: H
Encoding: 72 72 66
Width: 733
GlyphClass: 2
Flags: MW
HStem: 291 132<238 494 224 508> 682 20G<172 207 207 215.5 597 632 632 640.5>
VStem: 42 647<14.5 685.5>
AnchorPoint: "Anchor-1" 399 700 basechar 0
AnchorPoint: "Anchor-0" 341 0 basechar 0
LayerCount: 2
Fore
SplineSet
597 702 m 2,0,-1
 632 702 l 2,1,2
 689 702 689 702 689 671 c 1,3,-1
 622 30 l 2,4,5
 619 -2 619 -2 559 -2 c 2,6,-1
 524 -2 l 2,7,8
 467 -2 467 -2 467 29 c 1,9,-1
 494 291 l 1,10,-1
 224 291 l 1,11,-1
 197 30 l 2,12,13
 194 -2 194 -2 134 -2 c 2,14,-1
 99 -2 l 2,15,16
 42 -2 42 -2 42 29 c 1,17,-1
 109 670 l 2,18,19
 112 702 112 702 172 702 c 2,20,-1
 207 702 l 2,21,22
 264 702 264 702 264 671 c 1,23,-1
 238 423 l 1,24,-1
 508 423 l 1,25,-1
 534 670 l 2,26,27
 537 702 537 702 597 702 c 2,0,-1
EndSplineSet
Position2: "'cpsp' Capital Spacing lookup 0 subtable" dx=5 dy=0 dh=10 dv=0
EndChar

StartChar: Hbar
Encoding: 294 294 67
Width: 733
GlyphClass: 2
Flags: MW
HStem: 291 132<238 494 224 508> 476 95<53 99 73 89 254 514> 476 226<53 207 62 207 172 244 172 514>
VStem: 104 160 529 160
AnchorPoint: "Anchor-1" 399 700 basechar 0
AnchorPoint: "Anchor-0" 341 0 basechar 0
LayerCount: 2
Fore
SplineSet
679 571 m 1,0,-1
 689 571 l 2,1,2
 715 571 715 571 715 541 c 0,3,4
 715 476 715 476 678 476 c 2,5,-1
 669 476 l 1,6,-1
 622 30 l 2,7,8
 619 -2 619 -2 559 -2 c 2,9,-1
 524 -2 l 2,10,11
 467 -2 467 -2 467 29 c 1,12,-1
 494 291 l 1,13,-1
 224 291 l 1,14,-1
 197 30 l 2,15,16
 194 -2 194 -2 134 -2 c 2,17,-1
 99 -2 l 2,18,19
 42 -2 42 -2 42 29 c 1,20,-1
 89 476 l 1,21,-1
 62 476 l 2,22,23
 36 476 36 476 36 506 c 0,24,25
 36 571 36 571 73 571 c 2,26,-1
 99 571 l 1,27,-1
 109 670 l 2,28,29
 112 702 112 702 172 702 c 2,30,-1
 207 702 l 2,31,32
 264 702 264 702 264 671 c 1,33,-1
 254 571 l 1,34,-1
 524 571 l 1,35,-1
 534 670 l 2,36,37
 537 702 537 702 597 702 c 2,38,-1
 632 702 l 2,39,40
 689 702 689 702 689 671 c 1,41,-1
 679 571 l 1,0,-1
514 476 m 1,42,-1
 244 476 l 1,43,-1
 238 423 l 1,44,-1
 508 423 l 1,45,-1
 514 476 l 1,42,-1
EndSplineSet
Position2: "'cpsp' Capital Spacing lookup 0 subtable" dx=5 dy=0 dh=10 dv=0
EndChar

StartChar: Hcircumflex
Encoding: 292 292 68
Width: 733
GlyphClass: 2
Flags: MW
HStem: 291 132<238 494 224 508> 682 20G<172 207 207 215.5 597 632 632 640.5> 749 146<276 420 282 420 409 495 409 517>
VStem: 42 647<14.5 685.5>
AnchorPoint: "Anchor-1" 594 774 basechar 0
AnchorPoint: "Anchor-0" 341 0 basechar 0
LayerCount: 2
Fore
SplineSet
409 895 m 2,0,-1
 420 895 l 2,1,2
 468 895 468 895 479 876 c 2,3,-1
 533 774 l 1,4,5
 536 766 536 766 536 762 c 0,6,7
 536 749 536 749 517 749 c 2,8,-1
 495 749 l 2,9,10
 446 749 446 749 431 773 c 2,11,-1
 406 813 l 1,12,-1
 375 774 l 2,13,14
 356 749 356 749 306 749 c 2,15,-1
 282 749 l 2,16,17
 263 749 263 749 263 759 c 0,18,19
 263 766 263 766 270 774 c 2,20,-1
 346 876 l 2,21,22
 360 895 360 895 409 895 c 2,0,-1
597 702 m 2,23,-1
 632 702 l 2,24,25
 689 702 689 702 689 671 c 1,26,-1
 622 30 l 2,27,28
 619 -2 619 -2 559 -2 c 2,29,-1
 524 -2 l 2,30,31
 467 -2 467 -2 467 29 c 1,32,-1
 494 291 l 1,33,-1
 224 291 l 1,34,-1
 197 30 l 2,35,36
 194 -2 194 -2 134 -2 c 2,37,-1
 99 -2 l 2,38,39
 42 -2 42 -2 42 29 c 1,40,-1
 109 670 l 2,41,42
 112 702 112 702 172 702 c 2,43,-1
 207 702 l 2,44,45
 264 702 264 702 264 671 c 1,46,-1
 238 423 l 1,47,-1
 508 423 l 1,48,-1
 534 670 l 2,49,50
 537 702 537 702 597 702 c 2,23,-1
EndSplineSet
Position2: "'cpsp' Capital Spacing lookup 0 subtable" dx=5 dy=0 dh=10 dv=0
EndChar

StartChar: Hdotbelow
Encoding: 7716 7716 69
Width: 733
GlyphClass: 2
Flags: MW
HStem: -204 124<309 337> 291 132<238 494 224 508> 682 20G<172 207 207 215.5 597 632 632 640.5>
VStem: 42 647<14.5 685.5> 260 127<-182.5 -101.5>
AnchorPoint: "Anchor-1" 350 -82 basechar 0
AnchorPoint: "Anchor-0" 320 -203 basechar 0
LayerCount: 2
Fore
SplineSet
597 702 m 2,0,-1
 632 702 l 2,1,2
 689 702 689 702 689 671 c 1,3,-1
 622 30 l 2,4,5
 619 -2 619 -2 559 -2 c 2,6,-1
 524 -2 l 2,7,8
 467 -2 467 -2 467 29 c 1,9,-1
 494 291 l 1,10,-1
 224 291 l 1,11,-1
 197 30 l 2,12,13
 194 -2 194 -2 134 -2 c 2,14,-1
 99 -2 l 2,15,16
 42 -2 42 -2 42 29 c 1,17,-1
 109 670 l 2,18,19
 112 702 112 702 172 702 c 2,20,-1
 207 702 l 2,21,22
 264 702 264 702 264 671 c 1,23,-1
 238 423 l 1,24,-1
 508 423 l 1,25,-1
 534 670 l 2,26,27
 537 702 537 702 597 702 c 2,0,-1
267 -112 m 2,28,29
 270 -80 270 -80 328.5 -80 c 128,-1,30
 387 -80 387 -80 387 -112 c 1,31,-1
 380 -172 l 1,32,33
 375 -204 375 -204 317.5 -204 c 128,-1,34
 260 -204 260 -204 260 -172 c 1,35,-1
 267 -112 l 2,28,29
EndSplineSet
Position2: "'cpsp' Capital Spacing lookup 0 subtable" dx=5 dy=0 dh=10 dv=0
EndChar

StartChar: I
Encoding: 73 73 70
Width: 282
GlyphClass: 2
Flags: MW
HStem: 682 20G<160 195 195 203.5>
VStem: 30 222
AnchorPoint: "Anchor-1" 181 700 basechar 0
AnchorPoint: "Anchor-0" 103 0 basechar 0
LayerCount: 2
Fore
SplineSet
160 702 m 2,0,-1
 195 702 l 2,1,2
 252 702 252 702 252 671 c 1,3,-1
 185 30 l 2,4,5
 182 -2 182 -2 122 -2 c 2,6,-1
 87 -2 l 2,7,8
 30 -2 30 -2 30 29 c 1,9,-1
 97 670 l 2,10,11
 100 702 100 702 160 702 c 2,0,-1
EndSplineSet
Position2: "'cpsp' Capital Spacing lookup 0 subtable" dx=5 dy=0 dh=10 dv=0
EndChar

StartChar: IJ
Encoding: 306 306 71
Width: 684
GlyphClass: 2
Flags: MW
HStem: -8 131<341 378 326 435.5> 682 20G<160 195 195 203.5 553 588 588 596.5>
VStem: 30 615
AnchorPoint: "Anchor-1" 572 700 basechar 0
AnchorPoint: "Anchor-0" 103 0 basechar 0
LayerCount: 2
Fore
SplineSet
160 702 m 2,0,-1
 195 702 l 2,1,2
 252 702 252 702 252 671 c 1,3,-1
 185 30 l 2,4,5
 182 -2 182 -2 122 -2 c 2,6,-1
 87 -2 l 2,7,8
 30 -2 30 -2 30 29 c 1,9,-1
 97 670 l 2,10,11
 100 702 100 702 160 702 c 2,0,-1
553 702 m 2,12,-1
 588 702 l 2,13,14
 645 702 645 702 645 671 c 1,15,-1
 595 202 l 2,16,17
 584 103 584 103 526.5 47.5 c 128,-1,18
 469 -8 469 -8 367 -8 c 128,-1,19
 265 -8 265 -8 265 35 c 0,20,21
 265 132 265 132 285 132 c 0,22,23
 287 132 287 132 294 129.5 c 0,24,25
 312.2 123 312.2 123 352.6 123 c 128,-1,26
 393 123 393 123 415 147.5 c 128,-1,27
 437 172 437 172 443 227 c 2,28,-1
 490 670 l 2,29,30
 493 702 493 702 553 702 c 2,12,-1
EndSplineSet
Position2: "'cpsp' Capital Spacing lookup 0 subtable" dx=5 dy=0 dh=10 dv=0
EndChar

StartChar: Iacute
Encoding: 205 205 72
Width: 282
GlyphClass: 2
Flags: MW
HStem: 682 20G<160 195 195 203.5> 752 159<142 308>
VStem: 30 317
AnchorPoint: "Anchor-1" 217 877 basechar 0
AnchorPoint: "Anchor-0" 103 0 basechar 0
LayerCount: 2
Fore
SplineSet
171 839.5 m 128,-1,1
 186 861 186 861 202.5 886 c 128,-1,2
 219 911 219 911 283 911 c 128,-1,3
 347 911 347 911 347 898 c 0,4,5
 347 891 347 891 342.5 885.5 c 128,-1,6
 338 880 338 880 302 845.5 c 128,-1,7
 266 811 266 811 236 781.5 c 128,-1,8
 206 752 206 752 153 752 c 0,9,10
 124 752 124 752 124 765 c 0,11,12
 124 771.153846154 124 771.153846154 132.5 783.576923077 c 128,-1,13
 141 796 141 796 148.5 807 c 128,-1,0
 156 818 156 818 171 839.5 c 128,-1,1
160 702 m 2,14,-1
 195 702 l 2,15,16
 252 702 252 702 252 671 c 1,17,-1
 185 30 l 2,18,19
 182 -2 182 -2 122 -2 c 2,20,-1
 87 -2 l 2,21,22
 30 -2 30 -2 30 29 c 1,23,-1
 97 670 l 2,24,25
 100 702 100 702 160 702 c 2,14,-1
EndSplineSet
Position2: "'cpsp' Capital Spacing lookup 0 subtable" dx=5 dy=0 dh=10 dv=0
EndChar

StartChar: Ibreve
Encoding: 300 300 73
Width: 282
GlyphClass: 2
Flags: MW
HStem: 682 20G<160 195 195 203.5> 752 91<168.5 223 168.5 227>
VStem: 30 313
AnchorPoint: "Anchor-1" 200 863 basechar 0
AnchorPoint: "Anchor-0" 103 0 basechar 0
LayerCount: 2
Fore
SplineSet
311 892 m 0,0,1
 343 892 343 892 343 868 c 0,2,3
 343 823 343 823 295.5 787.5 c 128,-1,4
 248 752 248 752 186 752 c 128,-1,5
 124 752 124 752 86 782.5 c 128,-1,6
 48 813 48 813 48 852.5 c 128,-1,7
 48 892 48 892 87 892 c 0,8,9
 104 892 104 892 118 874 c 0,10,11
 142 843 142 843 194 843 c 0,12,13
 228.727272727 843 228.727272727 843 242.363636364 850.5 c 128,-1,14
 256 858 256 858 260 860 c 128,-1,15
 264 862 264 862 273 870.5 c 2,16,-1
 282 879 l 2,17,18
 295 892 295 892 311 892 c 0,0,1
160 702 m 2,19,-1
 195 702 l 2,20,21
 252 702 252 702 252 671 c 1,22,-1
 185 30 l 2,23,24
 182 -2 182 -2 122 -2 c 2,25,-1
 87 -2 l 2,26,27
 30 -2 30 -2 30 29 c 1,28,-1
 97 670 l 2,29,30
 100 702 100 702 160 702 c 2,19,-1
EndSplineSet
Position2: "'cpsp' Capital Spacing lookup 0 subtable" dx=5 dy=0 dh=10 dv=0
EndChar

StartChar: Icircumflex
Encoding: 206 206 74
Width: 282
GlyphClass: 2
Flags: MW
HStem: 682 20G<160 195 195 203.5> 749 146<58 202 64 202 191 277 191 299>
VStem: 30 288
AnchorPoint: "Anchor-1" 376 774 basechar 0
AnchorPoint: "Anchor-0" 103 0 basechar 0
LayerCount: 2
Fore
SplineSet
191 895 m 2,0,-1
 202 895 l 2,1,2
 250 895 250 895 261 876 c 2,3,-1
 315 774 l 1,4,5
 318 766 318 766 318 762 c 0,6,7
 318 749 318 749 299 749 c 2,8,-1
 277 749 l 2,9,10
 228 749 228 749 213 773 c 2,11,-1
 188 813 l 1,12,-1
 157 774 l 2,13,14
 138 749 138 749 88 749 c 2,15,-1
 64 749 l 2,16,17
 45 749 45 749 45 759 c 0,18,19
 45 766 45 766 52 774 c 2,20,-1
 128 876 l 2,21,22
 142 895 142 895 191 895 c 2,0,-1
160 702 m 2,23,-1
 195 702 l 2,24,25
 252 702 252 702 252 671 c 1,26,-1
 185 30 l 2,27,28
 182 -2 182 -2 122 -2 c 2,29,-1
 87 -2 l 2,30,31
 30 -2 30 -2 30 29 c 1,32,-1
 97 670 l 2,33,34
 100 702 100 702 160 702 c 2,23,-1
EndSplineSet
Position2: "'cpsp' Capital Spacing lookup 0 subtable" dx=5 dy=0 dh=10 dv=0
EndChar

StartChar: Idieresis
Encoding: 207 207 75
Width: 282
GlyphClass: 2
Flags: MW
HStem: 682 20G<160 195 195 203.5> 755 124<90 118 270 298>
VStem: 41 127<776.5 857.5> 221 127<776.5 857.5>
AnchorPoint: "Anchor-1" 204 877 basechar 0
AnchorPoint: "Anchor-0" 103 0 basechar 0
LayerCount: 2
Fore
SplineSet
48 847 m 2,0,1
 51 879 51 879 109.5 879 c 128,-1,2
 168 879 168 879 168 847 c 1,3,-1
 161 787 l 1,4,5
 156 755 156 755 98.5 755 c 128,-1,6
 41 755 41 755 41 787 c 1,7,-1
 48 847 l 2,0,1
228 847 m 2,8,9
 231 879 231 879 289.5 879 c 128,-1,10
 348 879 348 879 348 847 c 1,11,-1
 341 787 l 1,12,13
 336 755 336 755 278.5 755 c 128,-1,14
 221 755 221 755 221 787 c 1,15,-1
 228 847 l 2,8,9
160 702 m 2,16,-1
 195 702 l 2,17,18
 252 702 252 702 252 671 c 1,19,-1
 185 30 l 2,20,21
 182 -2 182 -2 122 -2 c 2,22,-1
 87 -2 l 2,23,24
 30 -2 30 -2 30 29 c 1,25,-1
 97 670 l 2,26,27
 100 702 100 702 160 702 c 2,16,-1
EndSplineSet
Position2: "'cpsp' Capital Spacing lookup 0 subtable" dx=5 dy=0 dh=10 dv=0
EndChar

StartChar: Idotaccent
Encoding: 304 304 76
Width: 282
GlyphClass: 2
Flags: MW
HStem: 682 20G<160 195 195 203.5> 755 124<166 194>
VStem: 117 127<776.5 857.5>
AnchorPoint: "Anchor-1" 207 877 basechar 0
AnchorPoint: "Anchor-0" 103 0 basechar 0
LayerCount: 2
Fore
SplineSet
124 847 m 2,0,1
 127 879 127 879 185.5 879 c 128,-1,2
 244 879 244 879 244 847 c 1,3,-1
 237 787 l 1,4,5
 232 755 232 755 174.5 755 c 128,-1,6
 117 755 117 755 117 787 c 1,7,-1
 124 847 l 2,0,1
160 702 m 2,8,-1
 195 702 l 2,9,10
 252 702 252 702 252 671 c 1,11,-1
 185 30 l 2,12,13
 182 -2 182 -2 122 -2 c 2,14,-1
 87 -2 l 2,15,16
 30 -2 30 -2 30 29 c 1,17,-1
 97 670 l 2,18,19
 100 702 100 702 160 702 c 2,8,-1
EndSplineSet
Position2: "'cpsp' Capital Spacing lookup 0 subtable" dx=5 dy=0 dh=10 dv=0
EndChar

StartChar: Idotbelow
Encoding: 7882 7882 77
Width: 282
GlyphClass: 2
Flags: MW
HStem: -204 124<71 99> 682 20G<160 195 195 203.5>
VStem: 22 127<-182.5 -101.5> 22 230
AnchorPoint: "Anchor-1" 112 -82 basechar 0
AnchorPoint: "Anchor-0" 82 -203 basechar 0
LayerCount: 2
Fore
SplineSet
160 702 m 2,0,-1
 195 702 l 2,1,2
 252 702 252 702 252 671 c 1,3,-1
 185 30 l 2,4,5
 182 -2 182 -2 122 -2 c 2,6,-1
 87 -2 l 2,7,8
 30 -2 30 -2 30 29 c 1,9,-1
 97 670 l 2,10,11
 100 702 100 702 160 702 c 2,0,-1
29 -112 m 2,12,13
 32 -80 32 -80 90.5 -80 c 128,-1,14
 149 -80 149 -80 149 -112 c 1,15,-1
 142 -172 l 1,16,17
 137 -204 137 -204 79.5 -204 c 128,-1,18
 22 -204 22 -204 22 -172 c 1,19,-1
 29 -112 l 2,12,13
EndSplineSet
Position2: "'cpsp' Capital Spacing lookup 0 subtable" dx=5 dy=0 dh=10 dv=0
EndChar

StartChar: Igrave
Encoding: 204 204 78
Width: 282
GlyphClass: 2
Flags: MW
HStem: 682 20G<160 195 195 203.5> 752 159<90 225>
VStem: 30 222
AnchorPoint: "Anchor-1" 199 877 basechar 0
AnchorPoint: "Anchor-0" 103 0 basechar 0
LayerCount: 2
Fore
SplineSet
49 895 m 0,0,1
 49 911 49 911 114.5 911 c 128,-1,2
 180 911 180 911 193 884 c 0,3,4
 203 863 203 863 212.5 843 c 128,-1,5
 222 823 222 823 227.5 812 c 128,-1,6
 233 801 233 801 237.5 791 c 0,7,8
 246 772.111111111 246 772.111111111 246 768 c 0,9,10
 246 752 246 752 204 752 c 128,-1,11
 162 752 162 752 140 779 c 128,-1,12
 118 806 118 806 83.5 847 c 128,-1,13
 49 888 49 888 49 895 c 0,0,1
160 702 m 2,14,-1
 195 702 l 2,15,16
 252 702 252 702 252 671 c 1,17,-1
 185 30 l 2,18,19
 182 -2 182 -2 122 -2 c 2,20,-1
 87 -2 l 2,21,22
 30 -2 30 -2 30 29 c 1,23,-1
 97 670 l 2,24,25
 100 702 100 702 160 702 c 2,14,-1
EndSplineSet
Position2: "'cpsp' Capital Spacing lookup 0 subtable" dx=5 dy=0 dh=10 dv=0
EndChar

StartChar: Ihookabove
Encoding: 7880 7880 79
Width: 282
GlyphClass: 2
Flags: MW
HStem: 682 20G<160 195 195 203.5> 867 61<188.5 201.5>
VStem: 224 87<828 852>
AnchorPoint: "Anchor-1" 199 877 basechar 0
AnchorPoint: "Anchor-0" 103 0 basechar 0
LayerCount: 2
Fore
SplineSet
224 845 m 0,0,1
 224 867 224 867 192 867 c 0,2,3
 179 867 179 867 165 861 c 128,-1,4
 151 855 151 855 148 855 c 0,5,6
 142 855 142 855 132.5 870.5 c 128,-1,7
 123 886 123 886 123 896.5 c 0,8,9
 123 907 123 907 151.5 917.5 c 128,-1,10
 180 928 180 928 217.5 928 c 0,11,12
 255 928 255 928 283 906.5 c 128,-1,13
 311 885 311 885 311 851 c 128,-1,14
 311 817 311 817 269 782 c 128,-1,15
 227 747 227 747 204.5 747 c 0,16,17
 182 747 182 747 167 753.5 c 128,-1,18
 152 760 152 760 152 769 c 0,19,20
 152 778 152 778 188 802 c 128,-1,21
 224 826 224 826 224 845 c 0,0,1
160 702 m 2,22,-1
 195 702 l 2,23,24
 252 702 252 702 252 671 c 1,25,-1
 185 30 l 2,26,27
 182 -2 182 -2 122 -2 c 2,28,-1
 87 -2 l 2,29,30
 30 -2 30 -2 30 29 c 1,31,-1
 97 670 l 2,32,33
 100 702 100 702 160 702 c 2,22,-1
EndSplineSet
Position2: "'cpsp' Capital Spacing lookup 0 subtable" dx=5 dy=0 dh=10 dv=0
EndChar

StartChar: Imacron
Encoding: 298 298 80
Width: 282
GlyphClass: 2
Flags: MW
HStem: 682 20G<160 195 195 203.5> 774 95<75 311 95 300>
VStem: 30 307
AnchorPoint: "Anchor-1" 210 877 basechar 0
AnchorPoint: "Anchor-0" 103 0 basechar 0
LayerCount: 2
Fore
SplineSet
95 869 m 2,0,-1
 311 869 l 2,1,2
 337 869 337 869 337 839 c 0,3,4
 337 774 337 774 300 774 c 2,5,-1
 84 774 l 2,6,7
 58 774 58 774 58 804 c 0,8,9
 58 869 58 869 95 869 c 2,0,-1
160 702 m 2,10,-1
 195 702 l 2,11,12
 252 702 252 702 252 671 c 1,13,-1
 185 30 l 2,14,15
 182 -2 182 -2 122 -2 c 2,16,-1
 87 -2 l 2,17,18
 30 -2 30 -2 30 29 c 1,19,-1
 97 670 l 2,20,21
 100 702 100 702 160 702 c 2,10,-1
EndSplineSet
Position2: "'cpsp' Capital Spacing lookup 0 subtable" dx=5 dy=0 dh=10 dv=0
EndChar

StartChar: Iogonek
Encoding: 302 302 81
Width: 282
GlyphClass: 2
Flags: MW
HStem: -183 70<171 183> 682 20G<160 195 195 203.5>
VStem: 55 69<-90 -81.5>
AnchorPoint: "Anchor-1" 181 700 basechar 0
AnchorPoint: "Anchor-0" 98 -203 basechar 0
LayerCount: 2
Fore
SplineSet
240 -99 m 0,0,1
 251 -99 251 -99 251 -128.5 c 0,2,3
 251 -158 251 -158 225 -170.5 c 128,-1,4
 199 -183 199 -183 163 -183 c 0,5,6
 101 -183 101 -183 78 -156 c 128,-1,7
 55 -129 55 -129 55 -94 c 0,8,9
 55 -34 55 -34 87 -2 c 1,10,11
 30 -2 30 -2 30 29 c 1,12,-1
 97 670 l 2,13,14
 100 702 100 702 160 702 c 2,15,-1
 195 702 l 2,16,17
 252 702 252 702 252 671 c 1,18,-1
 185 30 l 2,19,20
 182 4 182 4 142 -1 c 1,21,-1
 142 -3 l 2,22,23
 142 -9 142 -9 133 -29.5 c 128,-1,24
 124 -50 124 -50 124 -70 c 0,25,26
 124 -113 124 -113 182 -113 c 0,27,28
 200 -113 200 -113 219 -106 c 128,-1,29
 238 -99 238 -99 240 -99 c 0,0,1
EndSplineSet
Position2: "'cpsp' Capital Spacing lookup 0 subtable" dx=5 dy=0 dh=10 dv=0
EndChar

StartChar: Itilde
Encoding: 296 296 82
Width: 282
GlyphClass: 2
Flags: MW
HStem: 682 20G<160 195 195 203.5> 758 86<241.5 254.5> 770 100
VStem: 30 315.75
AnchorPoint: "Anchor-1" 202 877 basechar 0
AnchorPoint: "Anchor-0" 103 0 basechar 0
LayerCount: 2
Fore
SplineSet
47 829 m 0,0,1
 93 870 93 870 132 870 c 128,-1,2
 171 870 171 870 200.5 857 c 128,-1,3
 230 844 230 844 253 844 c 128,-1,4
 276 844 276 844 298.5 859.5 c 128,-1,5
 321 875 321 875 338 851 c 0,6,7
 347 840 347 840 346 828.5 c 128,-1,8
 345 817 345 817 331 799 c 0,9,10
 293 758 293 758 236 758 c 0,11,12
 203 758 203 758 169 771 c 128,-1,13
 135 784 135 784 120.5 784 c 128,-1,14
 106 784 106 784 83.5 771 c 128,-1,15
 61 758 61 758 45 784 c 128,-1,16
 29 810 29 810 47 829 c 0,0,1
160 702 m 2,17,-1
 195 702 l 2,18,19
 252 702 252 702 252 671 c 1,20,-1
 185 30 l 2,21,22
 182 -2 182 -2 122 -2 c 2,23,-1
 87 -2 l 2,24,25
 30 -2 30 -2 30 29 c 1,26,-1
 97 670 l 2,27,28
 100 702 100 702 160 702 c 2,17,-1
EndSplineSet
Position2: "'cpsp' Capital Spacing lookup 0 subtable" dx=5 dy=0 dh=10 dv=0
EndChar

StartChar: J
Encoding: 74 74 83
Width: 402
GlyphClass: 2
Flags: MW
HStem: -8 131<59 96 44 153.5> 682 20G<271 306 306 314.5>
VStem: -17 380
AnchorPoint: "Anchor-1" 290 700 basechar 0
AnchorPoint: "Anchor-0" 0 0 basechar 0
LayerCount: 2
Fore
SplineSet
271 702 m 2,0,-1
 306 702 l 2,1,2
 363 702 363 702 363 671 c 1,3,-1
 313 202 l 2,4,5
 302 103 302 103 244.5 47.5 c 128,-1,6
 187 -8 187 -8 85 -8 c 128,-1,7
 -17 -8 -17 -8 -17 35 c 0,8,9
 -17 132 -17 132 3 132 c 0,10,11
 5 132 5 132 12 129.5 c 0,12,13
 30.2 123 30.2 123 70.6 123 c 128,-1,14
 111 123 111 123 133 147.5 c 128,-1,15
 155 172 155 172 161 227 c 2,16,-1
 208 670 l 2,17,18
 211 702 211 702 271 702 c 2,0,-1
EndSplineSet
Position2: "'cpsp' Capital Spacing lookup 0 subtable" dx=5 dy=0 dh=10 dv=0
EndChar

StartChar: Jcircumflex
Encoding: 308 308 84
Width: 402
GlyphClass: 2
Flags: MW
HStem: -8 131<59 96 44 153.5> 682 20G<271 306 306 314.5> 749 146<167 311 173 311 300 386 300 408>
VStem: -17 444
AnchorPoint: "Anchor-1" 485 774 basechar 0
AnchorPoint: "Anchor-0" 0 0 basechar 0
LayerCount: 2
Fore
SplineSet
300 895 m 2,0,-1
 311 895 l 2,1,2
 359 895 359 895 370 876 c 2,3,-1
 424 774 l 1,4,5
 427 766 427 766 427 762 c 0,6,7
 427 749 427 749 408 749 c 2,8,-1
 386 749 l 2,9,10
 337 749 337 749 322 773 c 2,11,-1
 297 813 l 1,12,-1
 266 774 l 2,13,14
 247 749 247 749 197 749 c 2,15,-1
 173 749 l 2,16,17
 154 749 154 749 154 759 c 0,18,19
 154 766 154 766 161 774 c 2,20,-1
 237 876 l 2,21,22
 251 895 251 895 300 895 c 2,0,-1
271 702 m 2,23,-1
 306 702 l 2,24,25
 363 702 363 702 363 671 c 1,26,-1
 313 202 l 2,27,28
 302 103 302 103 244.5 47.5 c 128,-1,29
 187 -8 187 -8 85 -8 c 128,-1,30
 -17 -8 -17 -8 -17 35 c 0,31,32
 -17 132 -17 132 3 132 c 0,33,34
 5 132 5 132 12 129.5 c 0,35,36
 30.2 123 30.2 123 70.6 123 c 128,-1,37
 111 123 111 123 133 147.5 c 128,-1,38
 155 172 155 172 161 227 c 2,39,-1
 208 670 l 2,40,41
 211 702 211 702 271 702 c 2,23,-1
EndSplineSet
Position2: "'cpsp' Capital Spacing lookup 0 subtable" dx=5 dy=0 dh=10 dv=0
EndChar

StartChar: K
Encoding: 75 75 85
Width: 576
GlyphClass: 2
Flags: MW
HStem: 682 20G<165 200 200 221.5 498 545 545 564>
VStem: 35 565
AnchorPoint: "Anchor-1" 340 700 basechar 0
AnchorPoint: "Anchor-0" 270 0 basechar 0
LayerCount: 2
Fore
SplineSet
498 702 m 2,0,-1
 545 702 l 2,1,2
 600 702 600 702 600 688 c 0,3,4
 600 679 600 679 590 666 c 2,5,-1
 366 370 l 1,6,-1
 549 34 l 2,7,8
 555 22 555 22 555 16 c 0,9,10
 555 -2 555 -2 498 -2 c 2,11,-1
 440 -2 l 2,12,13
 390 -2 390 -2 381 17 c 2,14,-1
 224 321 l 1,15,-1
 220 320 l 1,16,-1
 190 30 l 2,17,18
 187 -2 187 -2 127 -2 c 2,19,-1
 92 -2 l 2,20,21
 35 -2 35 -2 35 30 c 1,22,-1
 102 670 l 2,23,24
 105 702 105 702 165 702 c 2,25,-1
 200 702 l 2,26,27
 257 702 257 702 257 670 c 1,28,-1
 229 402 l 1,29,-1
 233 401 l 1,30,-1
 436 683 l 2,31,32
 450 702 450 702 498 702 c 2,0,-1
EndSplineSet
Position2: "'cpsp' Capital Spacing lookup 0 subtable" dx=5 dy=0 dh=10 dv=0
EndChar

StartChar: Kcommaaccent
Encoding: 310 310 86
Width: 576
GlyphClass: 2
Flags: MW
HStem: -240 189<191 278> 682 20G<165 200 200 221.5 498 545 545 564>
VStem: 194 129<-128.5 -82.5 -128.5 -81.5>
AnchorPoint: "Anchor-1" 340 700 basechar 0
AnchorPoint: "Anchor-0" 254 -203 basechar 0
LayerCount: 2
Fore
SplineSet
498 702 m 2,0,-1
 545 702 l 2,1,2
 600 702 600 702 600 688 c 0,3,4
 600 679 600 679 590 666 c 2,5,-1
 366 370 l 1,6,-1
 549 34 l 2,7,8
 555 22 555 22 555 16 c 0,9,10
 555 -2 555 -2 498 -2 c 2,11,-1
 440 -2 l 2,12,13
 390 -2 390 -2 381 17 c 2,14,-1
 224 321 l 1,15,-1
 220 320 l 1,16,-1
 190 30 l 2,17,18
 187 -2 187 -2 127 -2 c 2,19,-1
 92 -2 l 2,20,21
 35 -2 35 -2 35 30 c 1,22,-1
 102 670 l 2,23,24
 105 702 105 702 165 702 c 2,25,-1
 200 702 l 2,26,27
 257 702 257 702 257 670 c 1,28,-1
 229 402 l 1,29,-1
 233 401 l 1,30,-1
 436 683 l 2,31,32
 450 702 450 702 498 702 c 2,0,-1
259 -51 m 2,33,-1
 278 -51 l 2,34,35
 323 -51 323 -51 323 -96 c 128,-1,36
 323 -141 323 -141 276.5 -190.5 c 128,-1,37
 230 -240 230 -240 200 -240 c 0,38,39
 184 -240 184 -240 170 -234.5 c 128,-1,40
 156 -229 156 -229 157 -221 c 128,-1,41
 158 -213 158 -213 167.5 -198 c 0,42,43
 194 -156.157894737 194 -156.157894737 194 -95 c 0,44,45
 194 -51 194 -51 259 -51 c 2,33,-1
EndSplineSet
Position2: "'cpsp' Capital Spacing lookup 0 subtable" dx=5 dy=0 dh=10 dv=0
EndChar

StartChar: L
Encoding: 76 76 87
Width: 484
GlyphClass: 2
Flags: MW
HStem: 0 131<58.5 424 201 412> 682 20G<166 201 201 209.5>
VStem: 36 414<20 105>
AnchorPoint: "Anchor-1" 184 700 basechar 0
AnchorPoint: "Anchor-0" 218 0 basechar 0
LayerCount: 2
Fore
SplineSet
166 702 m 2,0,-1
 201 702 l 2,1,2
 258 702 258 702 258 671 c 1,3,-1
 201 131 l 1,4,-1
 424 131 l 2,5,6
 450 131 450 131 450 91 c 0,7,8
 450 0 450 0 412 0 c 2,9,-1
 72 0 l 2,10,11
 52 0 52 0 44 7 c 128,-1,12
 36 14 36 14 36 32 c 1,13,-1
 103 670 l 2,14,15
 106 702 106 702 166 702 c 2,0,-1
EndSplineSet
Position2: "'cpsp' Capital Spacing lookup 0 subtable" dx=5 dy=0 dh=10 dv=0
EndChar

StartChar: LJ
Encoding: 455 455 88
Width: 718
GlyphClass: 2
Flags: MW
HStem: -182 131<372 409 357 466.5> 0 131<58.5 354 201 342> 682 20G<166 201 201 209.5 604 639 639 647.5>
VStem: 36 660<20 685.5>
LayerCount: 2
Fore
SplineSet
166 702 m 2,0,-1
 201 702 l 2,1,2
 258 702 258 702 258 671 c 1,3,-1
 201 131 l 1,4,-1
 354 131 l 2,5,6
 380 131 380 131 380 91 c 0,7,8
 380 0 380 0 342 0 c 2,9,-1
 72 0 l 2,10,11
 52 0 52 0 44 7 c 128,-1,12
 36 14 36 14 36 32 c 1,13,-1
 103 670 l 2,14,15
 106 702 106 702 166 702 c 2,0,-1
604 702 m 2,16,-1
 639 702 l 2,17,18
 696 702 696 702 696 671 c 1,19,-1
 626 28 l 2,20,21
 615 -71 615 -71 557.5 -126.5 c 128,-1,22
 500 -182 500 -182 398 -182 c 128,-1,23
 296 -182 296 -182 296 -139 c 0,24,25
 296 -42 296 -42 316 -42 c 0,26,27
 318 -42 318 -42 325 -44 c 0,28,29
 349.5 -51 349.5 -51 386.75 -51 c 0,30,31
 462.654545455 -51 462.654545455 -51 474 53 c 2,32,-1
 541 670 l 2,33,34
 544 702 544 702 604 702 c 2,16,-1
EndSplineSet
Position2: "'cpsp' Capital Spacing lookup 0 subtable" dx=5 dy=0 dh=10 dv=0
EndChar

StartChar: Lacute
Encoding: 313 313 89
Width: 484
GlyphClass: 2
Flags: MW
HStem: 0 131<58.5 424 201 412> 682 20G<166 201 201 209.5> 752 159<145 311>
VStem: 36 414<20 105>
AnchorPoint: "Anchor-1" 220 877 basechar 0
AnchorPoint: "Anchor-0" 218 0 basechar 0
LayerCount: 2
Fore
SplineSet
174 839.5 m 128,-1,1
 189 861 189 861 205.5 886 c 128,-1,2
 222 911 222 911 286 911 c 128,-1,3
 350 911 350 911 350 898 c 0,4,5
 350 891 350 891 345.5 885.5 c 128,-1,6
 341 880 341 880 305 845.5 c 128,-1,7
 269 811 269 811 239 781.5 c 128,-1,8
 209 752 209 752 156 752 c 0,9,10
 127 752 127 752 127 765 c 0,11,12
 127 771.153846154 127 771.153846154 135.5 783.576923077 c 128,-1,13
 144 796 144 796 151.5 807 c 128,-1,0
 159 818 159 818 174 839.5 c 128,-1,1
166 702 m 2,14,-1
 201 702 l 2,15,16
 258 702 258 702 258 671 c 1,17,-1
 201 131 l 1,18,-1
 424 131 l 2,19,20
 450 131 450 131 450 91 c 0,21,22
 450 0 450 0 412 0 c 2,23,-1
 72 0 l 2,24,25
 52 0 52 0 44 7 c 128,-1,26
 36 14 36 14 36 32 c 1,27,-1
 103 670 l 2,28,29
 106 702 106 702 166 702 c 2,14,-1
EndSplineSet
Position2: "'cpsp' Capital Spacing lookup 0 subtable" dx=5 dy=0 dh=10 dv=0
EndChar

StartChar: Lcaron
Encoding: 317 317 90
Width: 484
GlyphClass: 2
Flags: MW
HStem: 0 131<58.5 424 201 412> 680 20G<405 424 424 441.5> 682 20G<166 201 201 209.5>
VStem: 340 129<622.5 668.5 622.5 669.5>
AnchorPoint: "Anchor-1" 184 700 basechar 0
AnchorPoint: "Anchor-0" 218 0 basechar 0
LayerCount: 2
Fore
SplineSet
166 702 m 2,0,-1
 201 702 l 2,1,2
 258 702 258 702 258 671 c 1,3,-1
 201 131 l 1,4,-1
 424 131 l 2,5,6
 450 131 450 131 450 91 c 0,7,8
 450 0 450 0 412 0 c 2,9,-1
 72 0 l 2,10,11
 52 0 52 0 44 7 c 128,-1,12
 36 14 36 14 36 32 c 1,13,-1
 103 670 l 2,14,15
 106 702 106 702 166 702 c 2,0,-1
405 700 m 2,16,-1
 424 700 l 2,17,18
 469 700 469 700 469 655 c 128,-1,19
 469 610 469 610 430 560.5 c 128,-1,20
 391 511 391 511 366 511 c 0,21,22
 350 511 350 511 336 516.5 c 128,-1,23
 322 522 322 522 322.5 530.5 c 128,-1,24
 323 539 323 539 327.5 554.5 c 0,25,26
 340 597.555555556 340 597.555555556 340 656 c 0,27,28
 340 700 340 700 405 700 c 2,16,-1
EndSplineSet
Position2: "'cpsp' Capital Spacing lookup 0 subtable" dx=5 dy=0 dh=10 dv=0
EndChar

StartChar: Lcommaaccent
Encoding: 315 315 91
Width: 484
GlyphClass: 2
Flags: MW
HStem: -240 189<139 226> 0 131<58.5 424 201 412> 682 20G<166 201 201 209.5>
VStem: 142 129<-128.5 -82.5 -128.5 -81.5>
AnchorPoint: "Anchor-1" 184 700 basechar 0
AnchorPoint: "Anchor-0" 202 -203 basechar 0
LayerCount: 2
Fore
SplineSet
166 702 m 2,0,-1
 201 702 l 2,1,2
 258 702 258 702 258 671 c 1,3,-1
 201 131 l 1,4,-1
 424 131 l 2,5,6
 450 131 450 131 450 91 c 0,7,8
 450 0 450 0 412 0 c 2,9,-1
 72 0 l 2,10,11
 52 0 52 0 44 7 c 128,-1,12
 36 14 36 14 36 32 c 1,13,-1
 103 670 l 2,14,15
 106 702 106 702 166 702 c 2,0,-1
207 -51 m 2,16,-1
 226 -51 l 2,17,18
 271 -51 271 -51 271 -96 c 128,-1,19
 271 -141 271 -141 224.5 -190.5 c 128,-1,20
 178 -240 178 -240 148 -240 c 0,21,22
 132 -240 132 -240 118 -234.5 c 128,-1,23
 104 -229 104 -229 105 -221 c 128,-1,24
 106 -213 106 -213 115.5 -198 c 0,25,26
 142 -156.157894737 142 -156.157894737 142 -95 c 0,27,28
 142 -51 142 -51 207 -51 c 2,16,-1
EndSplineSet
Position2: "'cpsp' Capital Spacing lookup 0 subtable" dx=5 dy=0 dh=10 dv=0
EndChar

StartChar: Ldot
Encoding: 319 319 92
Width: 484
GlyphClass: 2
Flags: MW
HStem: 0 131<58.5 424 201 412> 289 140<312.5 346> 682 20G<166 201 201 209.5>
VStem: 260 141<345 369>
AnchorPoint: "Anchor-1" 184 700 basechar 0
AnchorPoint: "Anchor-0" 218 0 basechar 0
LayerCount: 2
Fore
SplineSet
166 702 m 2,0,-1
 201 702 l 2,1,2
 258 702 258 702 258 671 c 1,3,-1
 201 131 l 1,4,-1
 424 131 l 2,5,6
 450 131 450 131 450 91 c 0,7,8
 450 0 450 0 412 0 c 2,9,-1
 72 0 l 2,10,11
 52 0 52 0 44 7 c 128,-1,12
 36 14 36 14 36 32 c 1,13,-1
 103 670 l 2,14,15
 106 702 106 702 166 702 c 2,0,-1
281 405 m 128,-1,17
 302 429 302 429 333.5 429 c 128,-1,18
 365 429 365 429 383 411 c 128,-1,19
 401 393 401 393 401 363.5 c 128,-1,20
 401 334 401 334 379 311.5 c 128,-1,21
 357 289 357 289 326.5 289 c 128,-1,22
 296 289 296 289 278 306.5 c 128,-1,23
 260 324 260 324 260 352.5 c 128,-1,16
 260 381 260 381 281 405 c 128,-1,17
EndSplineSet
Ligature2: "Ligature Substitution lookup 19 subtable" L periodcentered
Position2: "'cpsp' Capital Spacing lookup 0 subtable" dx=5 dy=0 dh=10 dv=0
EndChar

StartChar: Lj
Encoding: 456 456 93
Width: 760
GlyphClass: 2
Flags: MW
HStem: -212 117<478 480.5 458 541> 0 131<58.5 424 201 412> 505 20G<628 656 656 676> 609 145<617 680 652 665> 682 20G<166 201 201 209.5>
VStem: 36 701<20 731> 580 157<632 731>
AnchorPoint: "Anchor-1" 184 700 basechar 0
AnchorPoint: "Anchor-0" 218 0 basechar 0
LayerCount: 2
Fore
SplineSet
652 754 m 2,0,-1
 680 754 l 2,1,2
 708 754 708 754 722.5 745 c 128,-1,3
 737 736 737 736 737 723 c 1,4,-1
 728 641 l 2,5,6
 725 609 725 609 665 609 c 2,7,-1
 637 609 l 2,8,9
 609 609 609 609 594.5 618 c 128,-1,10
 580 627 580 627 580 640 c 1,11,-1
 589 722 l 2,12,13
 592 754 592 754 652 754 c 2,0,-1
166 702 m 2,14,-1
 201 702 l 2,15,16
 258 702 258 702 258 671 c 1,17,-1
 201 131 l 1,18,-1
 424 131 l 2,19,20
 450 131 450 131 450 91 c 0,21,22
 450 0 450 0 412 0 c 2,23,-1
 72 0 l 2,24,25
 52 0 52 0 44 7 c 128,-1,26
 36 14 36 14 36 32 c 1,27,-1
 103 670 l 2,28,29
 106 702 106 702 166 702 c 2,14,-1
628 525 m 2,30,-1
 656 525 l 2,31,32
 684 525 684 525 698.5 516 c 128,-1,33
 713 507 713 507 713 494 c 1,34,-1
 656 -50 l 2,35,36
 648 -127 648 -127 606 -169.5 c 128,-1,37
 564 -212 564 -212 489.5 -212 c 0,38,39
 415 -212 415 -212 415 -173 c 0,40,41
 415 -90 415 -90 433 -90 c 0,42,43
 434 -90 434 -90 445 -92.5 c 128,-1,44
 456 -95 456 -95 468 -95 c 0,45,46
 504 -95 504 -95 508 -52 c 2,47,-1
 565 493 l 2,48,49
 568 525 568 525 628 525 c 2,30,-1
EndSplineSet
Position2: "'cpsp' Capital Spacing lookup 0 subtable" dx=5 dy=0 dh=10 dv=0
EndChar

StartChar: Lslash
Encoding: 321 321 94
Width: 486
GlyphClass: 2
Flags: MW
HStem: 0 131<59.5 425 202 413> 682 20G<167 202 202 210.5>
VStem: 20 431<65 323.5>
LayerCount: 2
Fore
SplineSet
167 702 m 2,0,-1
 202 702 l 2,1,2
 259 702 259 702 259 671 c 1,3,-1
 238 475 l 1,4,-1
 330 528 l 2,5,6
 340 534 340 534 346 534 c 0,7,8
 355 534 355 534 355 514 c 0,9,10
 355 466 355 466 322 448 c 2,11,-1
 230 395 l 1,12,-1
 202 131 l 1,13,-1
 425 131 l 2,14,15
 451 131 451 131 451 91 c 0,16,17
 451 0 451 0 413 0 c 2,18,-1
 73 0 l 2,19,20
 53 0 53 0 45 7 c 128,-1,21
 37 14 37 14 37 32 c 1,22,-1
 65 300 l 1,23,-1
 45 289 l 2,24,25
 35 283 35 283 29 283 c 0,26,27
 20 283 20 283 20 303 c 0,28,29
 20 349 20 349 53 369 c 2,30,-1
 73 381 l 1,31,-1
 104 670 l 2,32,33
 107 702 107 702 167 702 c 2,0,-1
EndSplineSet
Position2: "'cpsp' Capital Spacing lookup 0 subtable" dx=5 dy=0 dh=10 dv=0
EndChar

StartChar: M
Encoding: 77 77 95
Width: 843
GlyphClass: 2
Flags: MW
HStem: 682 20G<171 224 224 238.5 704 756 756 777.5>
VStem: 41 772<19.5 680.5>
LayerCount: 2
Fore
SplineSet
704 702 m 2,0,-1
 756 702 l 2,1,2
 813 702 813 702 813 670 c 1,3,-1
 746 30 l 2,4,5
 743 -2 743 -2 683 -2 c 2,6,-1
 654 -2 l 2,7,8
 597 -2 597 -2 597 30 c 1,9,-1
 640 444 l 1,10,-1
 636 445 l 1,11,-1
 464 186 l 1,12,13
 448 167 448 167 422 167 c 2,14,-1
 393 167 l 2,15,16
 368 167 368 167 355 186 c 1,17,-1
 237 445 l 1,18,-1
 233 444 l 1,19,-1
 190 30 l 2,20,21
 187 -2 187 -2 127 -2 c 2,22,-1
 98 -2 l 2,23,24
 41 -2 41 -2 41 30 c 1,25,-1
 108 670 l 2,26,27
 111 702 111 702 171 702 c 2,28,-1
 224 702 l 2,29,30
 273 702 273 702 285 675 c 2,31,-1
 428 362 l 1,32,-1
 639 675 l 2,33,34
 657 702 657 702 704 702 c 2,0,-1
EndSplineSet
Position2: "'cpsp' Capital Spacing lookup 0 subtable" dx=5 dy=0 dh=10 dv=0
EndChar

StartChar: N
Encoding: 78 78 96
Width: 719
GlyphClass: 2
Flags: MW
HStem: 682 20G<165 208 208 222.5 597 626 626 647.5>
VStem: 35 648<19.5 680.5>
AnchorPoint: "Anchor-1" 396 700 basechar 0
AnchorPoint: "Anchor-0" 341 0 basechar 0
LayerCount: 2
Fore
SplineSet
597 702 m 2,0,-1
 626 702 l 2,1,2
 683 702 683 702 683 670 c 1,3,-1
 616 30 l 2,4,5
 613 -2 613 -2 553 -2 c 2,6,-1
 515 -2 l 2,7,8
 466 -2 466 -2 451 25 c 2,9,-1
 226 435 l 1,10,-1
 184 30 l 2,11,12
 181 -2 181 -2 121 -2 c 2,13,-1
 92 -2 l 2,14,15
 35 -2 35 -2 35 30 c 1,16,-1
 102 670 l 2,17,18
 105 702 105 702 165 702 c 2,19,-1
 208 702 l 2,20,21
 257 702 257 702 272 675 c 2,22,-1
 492 270 l 1,23,-1
 534 670 l 2,24,25
 537 702 537 702 597 702 c 2,0,-1
EndSplineSet
Position2: "'cpsp' Capital Spacing lookup 0 subtable" dx=5 dy=0 dh=10 dv=0
EndChar

StartChar: NJ
Encoding: 458 458 97
Width: 1121
GlyphClass: 2
Flags: MW
HStem: -8 131<778 815 763 872.5> 682 20G<165 208 208 222.5 597 626 626 647.5 990 1025 1025 1033.5>
VStem: 35 1047<19.5 685.5>
AnchorPoint: "Anchor-1" 1009 700 basechar 0
AnchorPoint: "Anchor-0" 341 0 basechar 0
LayerCount: 2
Fore
SplineSet
597 702 m 2,0,-1
 626 702 l 2,1,2
 683 702 683 702 683 670 c 1,3,-1
 616 30 l 2,4,5
 613 -2 613 -2 553 -2 c 2,6,-1
 515 -2 l 2,7,8
 466 -2 466 -2 451 25 c 2,9,-1
 226 435 l 1,10,-1
 184 30 l 2,11,12
 181 -2 181 -2 121 -2 c 2,13,-1
 92 -2 l 2,14,15
 35 -2 35 -2 35 30 c 1,16,-1
 102 670 l 2,17,18
 105 702 105 702 165 702 c 2,19,-1
 208 702 l 2,20,21
 257 702 257 702 272 675 c 2,22,-1
 492 270 l 1,23,-1
 534 670 l 2,24,25
 537 702 537 702 597 702 c 2,0,-1
990 702 m 2,26,-1
 1025 702 l 2,27,28
 1082 702 1082 702 1082 671 c 1,29,-1
 1032 202 l 2,30,31
 1021 103 1021 103 963.5 47.5 c 128,-1,32
 906 -8 906 -8 804 -8 c 128,-1,33
 702 -8 702 -8 702 35 c 0,34,35
 702 132 702 132 722 132 c 0,36,37
 724 132 724 132 731 129.5 c 0,38,39
 749.2 123 749.2 123 789.6 123 c 128,-1,40
 830 123 830 123 852 147.5 c 128,-1,41
 874 172 874 172 880 227 c 2,42,-1
 927 670 l 2,43,44
 930 702 930 702 990 702 c 2,26,-1
EndSplineSet
Position2: "'cpsp' Capital Spacing lookup 0 subtable" dx=5 dy=0 dh=10 dv=0
EndChar

StartChar: Nacute
Encoding: 323 323 98
Width: 719
GlyphClass: 2
Flags: MW
HStem: 682 20G<165 208 208 222.5 597 626 626 647.5> 752 159<357 523>
VStem: 35 648<19.5 680.5>
AnchorPoint: "Anchor-1" 432 877 basechar 0
AnchorPoint: "Anchor-0" 341 0 basechar 0
LayerCount: 2
Fore
SplineSet
386 839.5 m 128,-1,1
 401 861 401 861 417.5 886 c 128,-1,2
 434 911 434 911 498 911 c 128,-1,3
 562 911 562 911 562 898 c 0,4,5
 562 891 562 891 557.5 885.5 c 128,-1,6
 553 880 553 880 517 845.5 c 128,-1,7
 481 811 481 811 451 781.5 c 128,-1,8
 421 752 421 752 368 752 c 0,9,10
 339 752 339 752 339 765 c 0,11,12
 339 771.153846154 339 771.153846154 347.5 783.576923077 c 128,-1,13
 356 796 356 796 363.5 807 c 128,-1,0
 371 818 371 818 386 839.5 c 128,-1,1
597 702 m 2,14,-1
 626 702 l 2,15,16
 683 702 683 702 683 670 c 1,17,-1
 616 30 l 2,18,19
 613 -2 613 -2 553 -2 c 2,20,-1
 515 -2 l 2,21,22
 466 -2 466 -2 451 25 c 2,23,-1
 226 435 l 1,24,-1
 184 30 l 2,25,26
 181 -2 181 -2 121 -2 c 2,27,-1
 92 -2 l 2,28,29
 35 -2 35 -2 35 30 c 1,30,-1
 102 670 l 2,31,32
 105 702 105 702 165 702 c 2,33,-1
 208 702 l 2,34,35
 257 702 257 702 272 675 c 2,36,-1
 492 270 l 1,37,-1
 534 670 l 2,38,39
 537 702 537 702 597 702 c 2,14,-1
EndSplineSet
Substitution2: "'locl' Localized Forms in Latin lookup 11 subtable" Nacute.loclPLK
Substitution2: "'aalt' Access All Alternates lookup 0 subtable" Nacute.loclPLK
Position2: "'cpsp' Capital Spacing lookup 0 subtable" dx=5 dy=0 dh=10 dv=0
EndChar

StartChar: Ncaron
Encoding: 327 327 99
Width: 719
GlyphClass: 2
Flags: MW
HStem: 682 20G<165 208 208 222.5 597 626 626 647.5> 749 146<295 392 295 403>
VStem: 35 648<19.5 680.5>
AnchorPoint: "Anchor-1" 417 877 basechar 0
AnchorPoint: "Anchor-0" 341 0 basechar 0
LayerCount: 2
Fore
SplineSet
506 895 m 1,0,-1
 530 895 l 2,1,2
 549 895 549 895 549 885 c 0,3,4
 549 878 549 878 542 870 c 2,5,-1
 466 768 l 2,6,7
 452 749 452 749 403 749 c 2,8,-1
 392 749 l 2,9,10
 344 749 344 749 333 768 c 2,11,-1
 279 870 l 1,12,13
 276 878 276 878 276 882 c 0,14,15
 276 895 276 895 295 895 c 2,16,-1
 317 895 l 2,17,18
 365 895 365 895 381 871 c 2,19,-1
 406 831 l 1,20,-1
 437 870 l 2,21,22
 455 893 455 893 506 895 c 1,0,-1
597 702 m 2,23,-1
 626 702 l 2,24,25
 683 702 683 702 683 670 c 1,26,-1
 616 30 l 2,27,28
 613 -2 613 -2 553 -2 c 2,29,-1
 515 -2 l 2,30,31
 466 -2 466 -2 451 25 c 2,32,-1
 226 435 l 1,33,-1
 184 30 l 2,34,35
 181 -2 181 -2 121 -2 c 2,36,-1
 92 -2 l 2,37,38
 35 -2 35 -2 35 30 c 1,39,-1
 102 670 l 2,40,41
 105 702 105 702 165 702 c 2,42,-1
 208 702 l 2,43,44
 257 702 257 702 272 675 c 2,45,-1
 492 270 l 1,46,-1
 534 670 l 2,47,48
 537 702 537 702 597 702 c 2,23,-1
EndSplineSet
Position2: "'cpsp' Capital Spacing lookup 0 subtable" dx=5 dy=0 dh=10 dv=0
EndChar

StartChar: Ncommaaccent
Encoding: 325 325 100
Width: 719
GlyphClass: 2
Flags: MW
HStem: -240 189<262 349> 682 20G<165 208 208 222.5 597 626 626 647.5>
VStem: 265 129<-128.5 -82.5 -128.5 -81.5>
AnchorPoint: "Anchor-1" 396 700 basechar 0
AnchorPoint: "Anchor-0" 325 -203 basechar 0
LayerCount: 2
Fore
SplineSet
597 702 m 2,0,-1
 626 702 l 2,1,2
 683 702 683 702 683 670 c 1,3,-1
 616 30 l 2,4,5
 613 -2 613 -2 553 -2 c 2,6,-1
 515 -2 l 2,7,8
 466 -2 466 -2 451 25 c 2,9,-1
 226 435 l 1,10,-1
 184 30 l 2,11,12
 181 -2 181 -2 121 -2 c 2,13,-1
 92 -2 l 2,14,15
 35 -2 35 -2 35 30 c 1,16,-1
 102 670 l 2,17,18
 105 702 105 702 165 702 c 2,19,-1
 208 702 l 2,20,21
 257 702 257 702 272 675 c 2,22,-1
 492 270 l 1,23,-1
 534 670 l 2,24,25
 537 702 537 702 597 702 c 2,0,-1
330 -51 m 2,26,-1
 349 -51 l 2,27,28
 394 -51 394 -51 394 -96 c 128,-1,29
 394 -141 394 -141 347.5 -190.5 c 128,-1,30
 301 -240 301 -240 271 -240 c 0,31,32
 255 -240 255 -240 241 -234.5 c 128,-1,33
 227 -229 227 -229 228 -221 c 128,-1,34
 229 -213 229 -213 238.5 -198 c 0,35,36
 265 -156.157894737 265 -156.157894737 265 -95 c 0,37,38
 265 -51 265 -51 330 -51 c 2,26,-1
EndSplineSet
Position2: "'cpsp' Capital Spacing lookup 0 subtable" dx=5 dy=0 dh=10 dv=0
EndChar

StartChar: Ndotaccent
Encoding: 7748 7748 101
Width: 719
GlyphClass: 2
Flags: MW
HStem: 682 20G<165 208 208 222.5 597 626 626 647.5> 755 124<381 409>
VStem: 332 127<776.5 857.5>
AnchorPoint: "Anchor-1" 422 877 basechar 0
AnchorPoint: "Anchor-0" 341 0 basechar 0
LayerCount: 2
Fore
SplineSet
339 847 m 2,0,1
 342 879 342 879 400.5 879 c 128,-1,2
 459 879 459 879 459 847 c 1,3,-1
 452 787 l 1,4,5
 447 755 447 755 389.5 755 c 128,-1,6
 332 755 332 755 332 787 c 1,7,-1
 339 847 l 2,0,1
597 702 m 2,8,-1
 626 702 l 2,9,10
 683 702 683 702 683 670 c 1,11,-1
 616 30 l 2,12,13
 613 -2 613 -2 553 -2 c 2,14,-1
 515 -2 l 2,15,16
 466 -2 466 -2 451 25 c 2,17,-1
 226 435 l 1,18,-1
 184 30 l 2,19,20
 181 -2 181 -2 121 -2 c 2,21,-1
 92 -2 l 2,22,23
 35 -2 35 -2 35 30 c 1,24,-1
 102 670 l 2,25,26
 105 702 105 702 165 702 c 2,27,-1
 208 702 l 2,28,29
 257 702 257 702 272 675 c 2,30,-1
 492 270 l 1,31,-1
 534 670 l 2,32,33
 537 702 537 702 597 702 c 2,8,-1
EndSplineSet
Position2: "'cpsp' Capital Spacing lookup 0 subtable" dx=5 dy=0 dh=10 dv=0
EndChar

StartChar: Eng
Encoding: 330 330 102
Width: 719
GlyphClass: 2
Flags: MW
HStem: -212 117<429 431.5 409 492> 682 20G<165 208 208 222.5 597 626 626 647.5>
VStem: 35 648<19.5 680.5>
AnchorPoint: "Anchor-1" 593 523 basechar 0
AnchorPoint: "Anchor-0" 0 0 basechar 0
LayerCount: 2
Fore
SplineSet
615 30 m 1,0,-1
 607 -50 l 2,1,2
 599 -127 599 -127 557 -169.5 c 128,-1,3
 515 -212 515 -212 440.5 -212 c 128,-1,4
 366 -212 366 -212 366 -173 c 0,5,6
 366 -90 366 -90 384 -90 c 0,7,8
 385 -90 385 -90 396 -92.5 c 128,-1,9
 407 -95 407 -95 419 -95 c 0,10,11
 455 -95 455 -95 459 -52 c 2,12,-1
 465 1 l 1,13,-1
 226 435 l 1,14,-1
 184 30 l 2,15,16
 181 -2 181 -2 121 -2 c 2,17,-1
 92 -2 l 2,18,19
 35 -2 35 -2 35 30 c 1,20,-1
 102 670 l 2,21,22
 105 702 105 702 165 702 c 2,23,-1
 208 702 l 2,24,25
 257 702 257 702 272 675 c 2,26,-1
 492 270 l 1,27,-1
 534 670 l 2,28,29
 537 702 537 702 597 702 c 2,30,-1
 626 702 l 2,31,32
 683 702 683 702 683 670 c 1,33,-1
 615 30 l 1,0,-1
EndSplineSet
Position2: "'cpsp' Capital Spacing lookup 0 subtable" dx=5 dy=0 dh=10 dv=0
EndChar

StartChar: Nj
Encoding: 459 459 103
Width: 995
GlyphClass: 2
Flags: MW
HStem: -212 117<713 715.5 693 776> 505 20G<863 891 891 911> 609 145<852 915 887 900> 682 20G<165 208 208 222.5 597 626 626 647.5>
VStem: 35 937<19.5 731> 815 157<632 731>
AnchorPoint: "Anchor-1" 396 700 basechar 0
AnchorPoint: "Anchor-0" 341 0 basechar 0
LayerCount: 2
Fore
SplineSet
887 754 m 2,0,-1
 915 754 l 2,1,2
 943 754 943 754 957.5 745 c 128,-1,3
 972 736 972 736 972 723 c 1,4,-1
 963 641 l 2,5,6
 960 609 960 609 900 609 c 2,7,-1
 872 609 l 2,8,9
 844 609 844 609 829.5 618 c 128,-1,10
 815 627 815 627 815 640 c 1,11,-1
 824 722 l 2,12,13
 827 754 827 754 887 754 c 2,0,-1
597 702 m 2,14,-1
 626 702 l 2,15,16
 683 702 683 702 683 670 c 1,17,-1
 616 30 l 2,18,19
 613 -2 613 -2 553 -2 c 2,20,-1
 515 -2 l 2,21,22
 466 -2 466 -2 451 25 c 2,23,-1
 226 435 l 1,24,-1
 184 30 l 2,25,26
 181 -2 181 -2 121 -2 c 2,27,-1
 92 -2 l 2,28,29
 35 -2 35 -2 35 30 c 1,30,-1
 102 670 l 2,31,32
 105 702 105 702 165 702 c 2,33,-1
 208 702 l 2,34,35
 257 702 257 702 272 675 c 2,36,-1
 492 270 l 1,37,-1
 534 670 l 2,38,39
 537 702 537 702 597 702 c 2,14,-1
863 525 m 2,40,-1
 891 525 l 2,41,42
 919 525 919 525 933.5 516 c 128,-1,43
 948 507 948 507 948 494 c 1,44,-1
 891 -50 l 2,45,46
 883 -127 883 -127 841 -169.5 c 128,-1,47
 799 -212 799 -212 724.5 -212 c 128,-1,48
 650 -212 650 -212 650 -173 c 0,49,50
 650 -90 650 -90 668 -90 c 0,51,52
 669 -90 669 -90 680 -92.5 c 128,-1,53
 691 -95 691 -95 703 -95 c 0,54,55
 739 -95 739 -95 743 -52 c 2,56,-1
 800 493 l 2,57,58
 803 525 803 525 863 525 c 2,40,-1
EndSplineSet
Position2: "'cpsp' Capital Spacing lookup 0 subtable" dx=5 dy=0 dh=10 dv=0
EndChar

StartChar: Ntilde
Encoding: 209 209 104
Width: 719
GlyphClass: 2
Flags: MW
HStem: 682 20G<165 208 208 222.5 597 626 626 647.5> 758 86<463.5 477.5> 770 100
VStem: 35 648<19.5 680.5>
AnchorPoint: "Anchor-1" 420 877 basechar 0
AnchorPoint: "Anchor-0" 341 0 basechar 0
LayerCount: 2
Fore
SplineSet
247 829 m 0,0,1
 299 870 299 870 342 870 c 128,-1,2
 385 870 385 870 418.5 857 c 128,-1,3
 452 844 452 844 477 844 c 128,-1,4
 502 844 502 844 527.5 859.5 c 128,-1,5
 553 875 553 875 571 851 c 0,6,7
 581 840 581 840 579.5 828.5 c 128,-1,8
 578 817 578 817 563 799 c 0,9,10
 522 758 522 758 457 758 c 0,11,12
 420 758 420 758 382 771 c 128,-1,13
 344 784 344 784 328 784 c 128,-1,14
 312 784 312 784 287.5 771 c 128,-1,15
 263 758 263 758 245.5 784 c 128,-1,16
 228 810 228 810 247 829 c 0,0,1
597 702 m 2,17,-1
 626 702 l 2,18,19
 683 702 683 702 683 670 c 1,20,-1
 616 30 l 2,21,22
 613 -2 613 -2 553 -2 c 2,23,-1
 515 -2 l 2,24,25
 466 -2 466 -2 451 25 c 2,26,-1
 226 435 l 1,27,-1
 184 30 l 2,28,29
 181 -2 181 -2 121 -2 c 2,30,-1
 92 -2 l 2,31,32
 35 -2 35 -2 35 30 c 1,33,-1
 102 670 l 2,34,35
 105 702 105 702 165 702 c 2,36,-1
 208 702 l 2,37,38
 257 702 257 702 272 675 c 2,39,-1
 492 270 l 1,40,-1
 534 670 l 2,41,42
 537 702 537 702 597 702 c 2,17,-1
EndSplineSet
Position2: "'cpsp' Capital Spacing lookup 0 subtable" dx=5 dy=0 dh=10 dv=0
EndChar

StartChar: O
Encoding: 79 79 105
Width: 731
GlyphClass: 2
Flags: MW
HStem: -8 131<295 399 295 445> 576 132<331 436>
VStem: 41 159<241 388 241 390> 531 158<310.5 457.5>
AnchorPoint: "Anchor-1" 396 700 basechar 0
AnchorPoint: "Anchor-0" 327 0 basechar 0
LayerCount: 2
Fore
SplineSet
403 708 m 0,0,1
 542 708 542 708 615.5 632.5 c 128,-1,2
 689 557 689 557 689 414 c 0,3,4
 689 210 689 210 596 101 c 128,-1,5
 503 -8 503 -8 328 -8 c 0,6,7
 189 -8 189 -8 115 67 c 128,-1,8
 41 142 41 142 41 284 c 0,9,10
 41 455.204819277 41 455.204819277 122.5 575 c 0,11,12
 164 636 164 636 236 672 c 128,-1,13
 308 708 308 708 403 708 c 0,0,1
389 576 m 0,14,15
 301 576 301 576 250.5 503.5 c 128,-1,16
 200 431 200 431 200 298 c 0,17,18
 200 123 200 123 342 123 c 0,19,20
 429 123 429 123 480 195.5 c 128,-1,21
 531 268 531 268 531 400 c 0,22,23
 531 576 531 576 389 576 c 0,14,15
EndSplineSet
Substitution2: "Single Substitution lookup 20 subtable" ordmasculine
Substitution2: "'aalt' Access All Alternates lookup 0 subtable" ordmasculine
Position2: "'cpsp' Capital Spacing lookup 0 subtable" dx=5 dy=0 dh=10 dv=0
EndChar

StartChar: Oacute
Encoding: 211 211 106
Width: 731
GlyphClass: 2
Flags: MW
HStem: -8 131<295 399 295 445> 576 132<331 436> 752 159<357 523>
VStem: 41 159<241 388 241 390> 531 158<310.5 457.5>
AnchorPoint: "Anchor-1" 432 877 basechar 0
AnchorPoint: "Anchor-0" 327 0 basechar 0
LayerCount: 2
Fore
SplineSet
386 839.5 m 128,-1,1
 401 861 401 861 417.5 886 c 128,-1,2
 434 911 434 911 498 911 c 128,-1,3
 562 911 562 911 562 898 c 0,4,5
 562 891 562 891 557.5 885.5 c 128,-1,6
 553 880 553 880 517 845.5 c 128,-1,7
 481 811 481 811 451 781.5 c 128,-1,8
 421 752 421 752 368 752 c 0,9,10
 339 752 339 752 339 765 c 0,11,12
 339 771.153846154 339 771.153846154 347.5 783.576923077 c 128,-1,13
 356 796 356 796 363.5 807 c 128,-1,0
 371 818 371 818 386 839.5 c 128,-1,1
403 708 m 0,14,15
 542 708 542 708 615.5 632.5 c 128,-1,16
 689 557 689 557 689 414 c 0,17,18
 689 210 689 210 596 101 c 128,-1,19
 503 -8 503 -8 328 -8 c 0,20,21
 189 -8 189 -8 115 67 c 128,-1,22
 41 142 41 142 41 284 c 0,23,24
 41 455.204819277 41 455.204819277 122.5 575 c 0,25,26
 164 636 164 636 236 672 c 128,-1,27
 308 708 308 708 403 708 c 0,14,15
389 576 m 0,28,29
 301 576 301 576 250.5 503.5 c 128,-1,30
 200 431 200 431 200 298 c 0,31,32
 200 123 200 123 342 123 c 0,33,34
 429 123 429 123 480 195.5 c 128,-1,35
 531 268 531 268 531 400 c 0,36,37
 531 576 531 576 389 576 c 0,28,29
EndSplineSet
Substitution2: "'locl' Localized Forms in Latin lookup 11 subtable" Oacute.loclPLK
Substitution2: "'aalt' Access All Alternates lookup 0 subtable" Oacute.loclPLK
Position2: "'cpsp' Capital Spacing lookup 0 subtable" dx=5 dy=0 dh=10 dv=0
EndChar

StartChar: Obreve
Encoding: 334 334 107
Width: 731
GlyphClass: 2
Flags: MW
HStem: -8 131<295 399 295 445> 576 132<331 436> 752 91<383.5 438 383.5 442>
VStem: 41 159<241 388 241 390> 531 158<310.5 457.5>
AnchorPoint: "Anchor-1" 415 863 basechar 0
AnchorPoint: "Anchor-0" 327 0 basechar 0
LayerCount: 2
Fore
SplineSet
526 892 m 0,0,1
 558 892 558 892 558 868 c 0,2,3
 558 823 558 823 510.5 787.5 c 128,-1,4
 463 752 463 752 401 752 c 128,-1,5
 339 752 339 752 301 782.5 c 128,-1,6
 263 813 263 813 263 852.5 c 128,-1,7
 263 892 263 892 302 892 c 0,8,9
 319 892 319 892 333 874 c 0,10,11
 357 843 357 843 409 843 c 0,12,13
 443.727272727 843 443.727272727 843 457.363636364 850.5 c 128,-1,14
 471 858 471 858 475 860 c 128,-1,15
 479 862 479 862 488 870.5 c 2,16,-1
 497 879 l 2,17,18
 510 892 510 892 526 892 c 0,0,1
403 708 m 0,19,20
 542 708 542 708 615.5 632.5 c 128,-1,21
 689 557 689 557 689 414 c 0,22,23
 689 210 689 210 596 101 c 128,-1,24
 503 -8 503 -8 328 -8 c 0,25,26
 189 -8 189 -8 115 67 c 128,-1,27
 41 142 41 142 41 284 c 0,28,29
 41 455.204819277 41 455.204819277 122.5 575 c 0,30,31
 164 636 164 636 236 672 c 128,-1,32
 308 708 308 708 403 708 c 0,19,20
389 576 m 0,33,34
 301 576 301 576 250.5 503.5 c 128,-1,35
 200 431 200 431 200 298 c 0,36,37
 200 123 200 123 342 123 c 0,38,39
 429 123 429 123 480 195.5 c 128,-1,40
 531 268 531 268 531 400 c 0,41,42
 531 576 531 576 389 576 c 0,33,34
EndSplineSet
Position2: "'cpsp' Capital Spacing lookup 0 subtable" dx=5 dy=0 dh=10 dv=0
EndChar

StartChar: Ocircumflex
Encoding: 212 212 108
Width: 731
GlyphClass: 2
Flags: MW
HStem: -8 131<295 399 295 445> 576 132<331 436> 749 146<273 417 279 417 406 492 406 514>
VStem: 41 159<241 388 241 390> 531 158<310.5 457.5>
AnchorPoint: "Anchor-1" 591 774 basechar 0
AnchorPoint: "Anchor-0" 327 0 basechar 0
LayerCount: 2
Fore
SplineSet
406 895 m 2,0,-1
 417 895 l 2,1,2
 465 895 465 895 476 876 c 2,3,-1
 530 774 l 1,4,5
 533 766 533 766 533 762 c 0,6,7
 533 749 533 749 514 749 c 2,8,-1
 492 749 l 2,9,10
 443 749 443 749 428 773 c 2,11,-1
 403 813 l 1,12,-1
 372 774 l 2,13,14
 353 749 353 749 303 749 c 2,15,-1
 279 749 l 2,16,17
 260 749 260 749 260 759 c 0,18,19
 260 766 260 766 267 774 c 2,20,-1
 343 876 l 2,21,22
 357 895 357 895 406 895 c 2,0,-1
403 708 m 0,23,24
 542 708 542 708 615.5 632.5 c 128,-1,25
 689 557 689 557 689 414 c 0,26,27
 689 210 689 210 596 101 c 128,-1,28
 503 -8 503 -8 328 -8 c 0,29,30
 189 -8 189 -8 115 67 c 128,-1,31
 41 142 41 142 41 284 c 0,32,33
 41 455.204819277 41 455.204819277 122.5 575 c 0,34,35
 164 636 164 636 236 672 c 128,-1,36
 308 708 308 708 403 708 c 0,23,24
389 576 m 0,37,38
 301 576 301 576 250.5 503.5 c 128,-1,39
 200 431 200 431 200 298 c 0,40,41
 200 123 200 123 342 123 c 0,42,43
 429 123 429 123 480 195.5 c 128,-1,44
 531 268 531 268 531 400 c 0,45,46
 531 576 531 576 389 576 c 0,37,38
EndSplineSet
Position2: "'cpsp' Capital Spacing lookup 0 subtable" dx=5 dy=0 dh=10 dv=0
EndChar

StartChar: Ocircumflexacute
Encoding: 7888 7888 109
Width: 731
GlyphClass: 2
Flags: MW
HStem: -8 131<295 399 295 445> 576 132<331 436> 749 146<270 414 276 414 403 474 403 496>
VStem: 41 159<241 388 241 390> 531 158<310.5 457.5>
AnchorPoint: "Anchor-1" 543 829 basechar 0
AnchorPoint: "Anchor-0" 327 0 basechar 0
LayerCount: 2
Fore
SplineSet
622 963 m 0,0,1
 660 963 660 963 660 940 c 0,2,3
 660 924 660 924 574 839 c 0,4,5
 557 824 557 824 516 824 c 0,6,7
 497 824 497 824 497 837 c 0,8,9
 497 843 497 843 544 936 c 0,10,11
 558 963 558 963 622 963 c 0,0,1
403 895 m 2,12,-1
 414 895 l 2,13,14
 454 895 454 895 463 876 c 2,15,-1
 512 774 l 2,16,17
 515 766 515 766 515 762 c 0,18,19
 515 749 515 749 496 749 c 2,20,-1
 474 749 l 2,21,22
 415 749 415 749 410 773 c 2,23,-1
 400 813 l 1,24,-1
 369 774 l 2,25,26
 350 749 350 749 300 749 c 2,27,-1
 276 749 l 2,28,29
 257 749 257 749 257 759 c 0,30,31
 257 766 257 766 264 774 c 2,32,-1
 340 876 l 2,33,34
 354 895 354 895 403 895 c 2,12,-1
403 708 m 0,35,36
 542 708 542 708 615.5 632.5 c 128,-1,37
 689 557 689 557 689 414 c 0,38,39
 689 210 689 210 596 101 c 128,-1,40
 503 -8 503 -8 328 -8 c 0,41,42
 189 -8 189 -8 115 67 c 128,-1,43
 41 142 41 142 41 284 c 0,44,45
 41 455.204819277 41 455.204819277 122.5 575 c 0,46,47
 164 636 164 636 236 672 c 128,-1,48
 308 708 308 708 403 708 c 0,35,36
389 576 m 0,49,50
 301 576 301 576 250.5 503.5 c 128,-1,51
 200 431 200 431 200 298 c 0,52,53
 200 123 200 123 342 123 c 0,54,55
 429 123 429 123 480 195.5 c 128,-1,56
 531 268 531 268 531 400 c 0,57,58
 531 576 531 576 389 576 c 0,49,50
EndSplineSet
Position2: "'cpsp' Capital Spacing lookup 0 subtable" dx=5 dy=0 dh=10 dv=0
EndChar

StartChar: Ocircumflexdotbelow
Encoding: 7896 7896 110
Width: 731
GlyphClass: 2
Flags: MW
HStem: -204 124<295 323> -8 131<295 399 295 445> 576 132<331 436> 749 146<273 417 279 417 406 492 406 514>
VStem: 41 159<241 388 241 390> 246 127<-182.5 -101.5> 531 158<310.5 457.5>
AnchorPoint: "Anchor-1" 336 -82 basechar 0
AnchorPoint: "Anchor-0" 306 -203 basechar 0
LayerCount: 2
Fore
SplineSet
406 895 m 2,0,-1
 417 895 l 2,1,2
 465 895 465 895 476 876 c 2,3,-1
 530 774 l 1,4,5
 533 766 533 766 533 762 c 0,6,7
 533 749 533 749 514 749 c 2,8,-1
 492 749 l 2,9,10
 443 749 443 749 428 773 c 2,11,-1
 403 813 l 1,12,-1
 372 774 l 2,13,14
 353 749 353 749 303 749 c 2,15,-1
 279 749 l 2,16,17
 260 749 260 749 260 759 c 0,18,19
 260 766 260 766 267 774 c 2,20,-1
 343 876 l 2,21,22
 357 895 357 895 406 895 c 2,0,-1
403 708 m 0,23,24
 542 708 542 708 615.5 632.5 c 128,-1,25
 689 557 689 557 689 414 c 0,26,27
 689 210 689 210 596 101 c 128,-1,28
 503 -8 503 -8 328 -8 c 0,29,30
 189 -8 189 -8 115 67 c 128,-1,31
 41 142 41 142 41 284 c 0,32,33
 41 455.204819277 41 455.204819277 122.5 575 c 0,34,35
 164 636 164 636 236 672 c 128,-1,36
 308 708 308 708 403 708 c 0,23,24
389 576 m 0,37,38
 301 576 301 576 250.5 503.5 c 128,-1,39
 200 431 200 431 200 298 c 0,40,41
 200 123 200 123 342 123 c 0,42,43
 429 123 429 123 480 195.5 c 128,-1,44
 531 268 531 268 531 400 c 0,45,46
 531 576 531 576 389 576 c 0,37,38
253 -112 m 2,47,48
 256 -80 256 -80 314.5 -80 c 128,-1,49
 373 -80 373 -80 373 -112 c 1,50,-1
 366 -172 l 1,51,52
 361 -204 361 -204 303.5 -204 c 128,-1,53
 246 -204 246 -204 246 -172 c 1,54,-1
 253 -112 l 2,47,48
EndSplineSet
Position2: "'cpsp' Capital Spacing lookup 0 subtable" dx=5 dy=0 dh=10 dv=0
EndChar

StartChar: Ocircumflexgrave
Encoding: 7890 7890 111
Width: 731
GlyphClass: 2
Flags: MW
HStem: -8 131<295 399 295 445> 576 132<331 436> 749 146<270 414 276 414 403 474 403 496> 825 139<460 565>
VStem: 41 159<241 388 241 390> 531 158<310.5 457.5>
AnchorPoint: "Anchor-1" 543 829 basechar 0
AnchorPoint: "Anchor-0" 327 0 basechar 0
LayerCount: 2
Fore
SplineSet
476 964 m 0,0,1
 549 964 549 964 558 937 c 0,2,3
 586 846 586 846 586 841 c 0,4,5
 586 825 586 825 549.5 825 c 128,-1,6
 513 825 513 825 496 847.5 c 0,7,8
 427 938.823529412 427 938.823529412 427 948 c 0,9,10
 427 964 427 964 476 964 c 0,0,1
403 895 m 2,11,-1
 414 895 l 2,12,13
 454 895 454 895 463 876 c 2,14,-1
 512 774 l 2,15,16
 515 766 515 766 515 762 c 0,17,18
 515 749 515 749 496 749 c 2,19,-1
 474 749 l 2,20,21
 415 749 415 749 410 773 c 2,22,-1
 400 813 l 1,23,-1
 369 774 l 2,24,25
 350 749 350 749 300 749 c 2,26,-1
 276 749 l 2,27,28
 257 749 257 749 257 759 c 0,29,30
 257 766 257 766 264 774 c 2,31,-1
 340 876 l 2,32,33
 354 895 354 895 403 895 c 2,11,-1
403 708 m 0,34,35
 542 708 542 708 615.5 632.5 c 128,-1,36
 689 557 689 557 689 414 c 0,37,38
 689 210 689 210 596 101 c 128,-1,39
 503 -8 503 -8 328 -8 c 0,40,41
 189 -8 189 -8 115 67 c 128,-1,42
 41 142 41 142 41 284 c 0,43,44
 41 455.204819277 41 455.204819277 122.5 575 c 0,45,46
 164 636 164 636 236 672 c 128,-1,47
 308 708 308 708 403 708 c 0,34,35
389 576 m 0,48,49
 301 576 301 576 250.5 503.5 c 128,-1,50
 200 431 200 431 200 298 c 0,51,52
 200 123 200 123 342 123 c 0,53,54
 429 123 429 123 480 195.5 c 128,-1,55
 531 268 531 268 531 400 c 0,56,57
 531 576 531 576 389 576 c 0,48,49
EndSplineSet
Position2: "'cpsp' Capital Spacing lookup 0 subtable" dx=5 dy=0 dh=10 dv=0
EndChar

StartChar: Ocircumflexhookabove
Encoding: 7892 7892 112
Width: 731
GlyphClass: 2
Flags: MW
HStem: -8 131<295 399 295 445> 576 132<331 436> 749 146<270 414 276 414 403 474 403 496> 896 70<480 571>
VStem: 41 159<241 388 241 390> 531 158<310.5 457.5> 557 70<889 901.5>
AnchorPoint: "Anchor-1" 543 829 basechar 0
AnchorPoint: "Anchor-0" 327 0 basechar 0
LayerCount: 2
Fore
SplineSet
557 896 m 0,0,1
 557 913 557 913 537.5 913 c 128,-1,2
 518 913 518 913 502 904.5 c 128,-1,3
 486 896 486 896 484 896 c 0,4,5
 478 896 478 896 468.5 911.5 c 128,-1,6
 459 927 459 927 459 937.5 c 128,-1,7
 459 948 459 948 487 957 c 128,-1,8
 515 966 515 966 542 966 c 0,9,10
 627 966 627 966 627 900 c 0,11,12
 627 872 627 872 590 849 c 128,-1,13
 553 826 553 826 543 826 c 0,14,15
 502 826 502 826 502 847 c 0,16,17
 502 859 502 859 523 867 c 0,18,19
 546.11627907 876.906976744 546.11627907 876.906976744 551.558139535 882.953488372 c 128,-1,20
 557 889 557 889 557 896 c 0,0,1
403 895 m 2,21,-1
 414 895 l 2,22,23
 454 895 454 895 463 876 c 2,24,-1
 512 774 l 2,25,26
 515 766 515 766 515 762 c 0,27,28
 515 749 515 749 496 749 c 2,29,-1
 474 749 l 2,30,31
 415 749 415 749 410 773 c 2,32,-1
 400 813 l 1,33,-1
 369 774 l 2,34,35
 350 749 350 749 300 749 c 2,36,-1
 276 749 l 2,37,38
 257 749 257 749 257 759 c 0,39,40
 257 766 257 766 264 774 c 2,41,-1
 340 876 l 2,42,43
 354 895 354 895 403 895 c 2,21,-1
403 708 m 0,44,45
 542 708 542 708 615.5 632.5 c 128,-1,46
 689 557 689 557 689 414 c 0,47,48
 689 210 689 210 596 101 c 128,-1,49
 503 -8 503 -8 328 -8 c 0,50,51
 189 -8 189 -8 115 67 c 128,-1,52
 41 142 41 142 41 284 c 0,53,54
 41 455.204819277 41 455.204819277 122.5 575 c 0,55,56
 164 636 164 636 236 672 c 128,-1,57
 308 708 308 708 403 708 c 0,44,45
389 576 m 0,58,59
 301 576 301 576 250.5 503.5 c 128,-1,60
 200 431 200 431 200 298 c 0,61,62
 200 123 200 123 342 123 c 0,63,64
 429 123 429 123 480 195.5 c 128,-1,65
 531 268 531 268 531 400 c 0,66,67
 531 576 531 576 389 576 c 0,58,59
EndSplineSet
Position2: "'cpsp' Capital Spacing lookup 0 subtable" dx=5 dy=0 dh=10 dv=0
EndChar

StartChar: Ocircumflextilde
Encoding: 7894 7894 113
Width: 731
GlyphClass: 2
Flags: MW
HStem: -8 131<295 399 295 445> 576 132<331 436> 749 122<283 421 410 496 410 518> 903 86<476.5 489.5> 915 100
VStem: 41 159<241 388 241 390> 531 158<310.5 457.5>
AnchorPoint: "Anchor-1" 418 877 basechar 0
AnchorPoint: "Anchor-0" 327 0 basechar 0
LayerCount: 2
Fore
SplineSet
373 1015 m 0,0,1
 405 1015 405 1015 435.5 1002 c 128,-1,2
 466 989 466 989 489 989 c 128,-1,3
 512 989 512 989 534.5 1004.5 c 128,-1,4
 557 1020 557 1020 574 996 c 0,5,6
 583 985 583 985 582 973.5 c 128,-1,7
 581 962 581 962 567 944 c 0,8,9
 529 903 529 903 471 903 c 0,10,11
 437 903 437 903 403 916 c 128,-1,12
 369 929 369 929 354 929 c 128,-1,13
 339 929 339 929 316.5 916 c 128,-1,14
 294 903 294 903 278 929 c 128,-1,15
 262 955 262 955 280 974 c 0,16,17
 326 1015 326 1015 373 1015 c 0,0,1
410 871 m 2,18,-1
 421 871 l 2,19,20
 465 871 465 871 480 852 c 1,21,-1
 534 774 l 1,22,23
 537 766 537 766 537 762 c 0,24,25
 537 749 537 749 518 749 c 2,26,-1
 496 749 l 2,27,28
 469 749 469 749 432 773 c 1,29,-1
 407 799 l 1,30,-1
 376 774 l 1,31,32
 369 771 369 771 358.5 765.5 c 128,-1,33
 348 760 348 760 342 757 c 0,34,35
 326 749 326 749 307 749 c 2,36,-1
 283 749 l 2,37,38
 264 749 264 749 264 759 c 0,39,40
 264 766 264 766 271 774 c 2,41,-1
 347 852 l 1,42,43
 367 871 367 871 410 871 c 2,18,-1
403 708 m 0,44,45
 542 708 542 708 615.5 632.5 c 128,-1,46
 689 557 689 557 689 414 c 0,47,48
 689 210 689 210 596 101 c 128,-1,49
 503 -8 503 -8 328 -8 c 0,50,51
 189 -8 189 -8 115 67 c 128,-1,52
 41 142 41 142 41 284 c 0,53,54
 41 455.204819277 41 455.204819277 122.5 575 c 0,55,56
 164 636 164 636 236 672 c 128,-1,57
 308 708 308 708 403 708 c 0,44,45
389 576 m 0,58,59
 301 576 301 576 250.5 503.5 c 128,-1,60
 200 431 200 431 200 298 c 0,61,62
 200 123 200 123 342 123 c 0,63,64
 429 123 429 123 480 195.5 c 128,-1,65
 531 268 531 268 531 400 c 0,66,67
 531 576 531 576 389 576 c 0,58,59
EndSplineSet
Position2: "'cpsp' Capital Spacing lookup 0 subtable" dx=5 dy=0 dh=10 dv=0
EndChar

StartChar: Odieresis
Encoding: 214 214 114
Width: 731
GlyphClass: 2
Flags: MW
HStem: -8 131<295 399 295 445> 576 132<331 436> 755 124<305 333 485 513>
VStem: 41 159<241 388 241 390> 256 127<776.5 857.5> 436 127<776.5 857.5> 531 158<310.5 457.5>
AnchorPoint: "Anchor-1" 419 877 basechar 0
AnchorPoint: "Anchor-0" 327 0 basechar 0
LayerCount: 2
Fore
SplineSet
263 847 m 2,0,1
 266 879 266 879 324.5 879 c 128,-1,2
 383 879 383 879 383 847 c 1,3,-1
 376 787 l 1,4,5
 371 755 371 755 313.5 755 c 128,-1,6
 256 755 256 755 256 787 c 1,7,-1
 263 847 l 2,0,1
443 847 m 2,8,9
 446 879 446 879 504.5 879 c 128,-1,10
 563 879 563 879 563 847 c 1,11,-1
 556 787 l 1,12,13
 551 755 551 755 493.5 755 c 128,-1,14
 436 755 436 755 436 787 c 1,15,-1
 443 847 l 2,8,9
403 708 m 0,16,17
 542 708 542 708 615.5 632.5 c 128,-1,18
 689 557 689 557 689 414 c 0,19,20
 689 210 689 210 596 101 c 128,-1,21
 503 -8 503 -8 328 -8 c 0,22,23
 189 -8 189 -8 115 67 c 128,-1,24
 41 142 41 142 41 284 c 0,25,26
 41 455.204819277 41 455.204819277 122.5 575 c 0,27,28
 164 636 164 636 236 672 c 128,-1,29
 308 708 308 708 403 708 c 0,16,17
389 576 m 0,30,31
 301 576 301 576 250.5 503.5 c 128,-1,32
 200 431 200 431 200 298 c 0,33,34
 200 123 200 123 342 123 c 0,35,36
 429 123 429 123 480 195.5 c 128,-1,37
 531 268 531 268 531 400 c 0,38,39
 531 576 531 576 389 576 c 0,30,31
EndSplineSet
Position2: "'cpsp' Capital Spacing lookup 0 subtable" dx=5 dy=0 dh=10 dv=0
EndChar

StartChar: Odotbelow
Encoding: 7884 7884 115
Width: 731
GlyphClass: 2
Flags: MW
HStem: -204 124<295 323> -8 131<295 399 295 445> 576 132<331 436>
VStem: 41 159<241 388 241 390> 246 127<-182.5 -101.5> 531 158<310.5 457.5>
AnchorPoint: "Anchor-1" 336 -82 basechar 0
AnchorPoint: "Anchor-0" 306 -203 basechar 0
LayerCount: 2
Fore
SplineSet
403 708 m 0,0,1
 542 708 542 708 615.5 632.5 c 128,-1,2
 689 557 689 557 689 414 c 0,3,4
 689 210 689 210 596 101 c 128,-1,5
 503 -8 503 -8 328 -8 c 0,6,7
 189 -8 189 -8 115 67 c 128,-1,8
 41 142 41 142 41 284 c 0,9,10
 41 455.204819277 41 455.204819277 122.5 575 c 0,11,12
 164 636 164 636 236 672 c 128,-1,13
 308 708 308 708 403 708 c 0,0,1
389 576 m 0,14,15
 301 576 301 576 250.5 503.5 c 128,-1,16
 200 431 200 431 200 298 c 0,17,18
 200 123 200 123 342 123 c 0,19,20
 429 123 429 123 480 195.5 c 128,-1,21
 531 268 531 268 531 400 c 0,22,23
 531 576 531 576 389 576 c 0,14,15
253 -112 m 2,24,25
 256 -80 256 -80 314.5 -80 c 128,-1,26
 373 -80 373 -80 373 -112 c 1,27,-1
 366 -172 l 1,28,29
 361 -204 361 -204 303.5 -204 c 128,-1,30
 246 -204 246 -204 246 -172 c 1,31,-1
 253 -112 l 2,24,25
EndSplineSet
Position2: "'cpsp' Capital Spacing lookup 0 subtable" dx=5 dy=0 dh=10 dv=0
EndChar

StartChar: Ograve
Encoding: 210 210 116
Width: 731
GlyphClass: 2
Flags: MW
HStem: -8 131<295 399 295 445> 576 132<331 436> 752 159<305 440>
VStem: 41 159<241 388 241 390> 531 158<310.5 457.5>
AnchorPoint: "Anchor-1" 414 877 basechar 0
AnchorPoint: "Anchor-0" 327 0 basechar 0
LayerCount: 2
Fore
SplineSet
264 895 m 0,0,1
 264 911 264 911 329.5 911 c 128,-1,2
 395 911 395 911 408 884 c 0,3,4
 418 863 418 863 427.5 843 c 128,-1,5
 437 823 437 823 442.5 812 c 128,-1,6
 448 801 448 801 452.5 791 c 0,7,8
 461 772.111111111 461 772.111111111 461 768 c 0,9,10
 461 752 461 752 419 752 c 128,-1,11
 377 752 377 752 355 779 c 128,-1,12
 333 806 333 806 304.5 839.5 c 128,-1,13
 276 873 276 873 270 881.5 c 128,-1,14
 264 890 264 890 264 895 c 0,0,1
403 708 m 0,15,16
 542 708 542 708 615.5 632.5 c 128,-1,17
 689 557 689 557 689 414 c 0,18,19
 689 210 689 210 596 101 c 128,-1,20
 503 -8 503 -8 328 -8 c 0,21,22
 189 -8 189 -8 115 67 c 128,-1,23
 41 142 41 142 41 284 c 0,24,25
 41 455.204819277 41 455.204819277 122.5 575 c 0,26,27
 164 636 164 636 236 672 c 128,-1,28
 308 708 308 708 403 708 c 0,15,16
389 576 m 0,29,30
 301 576 301 576 250.5 503.5 c 128,-1,31
 200 431 200 431 200 298 c 0,32,33
 200 123 200 123 342 123 c 0,34,35
 429 123 429 123 480 195.5 c 128,-1,36
 531 268 531 268 531 400 c 0,37,38
 531 576 531 576 389 576 c 0,29,30
EndSplineSet
Position2: "'cpsp' Capital Spacing lookup 0 subtable" dx=5 dy=0 dh=10 dv=0
EndChar

StartChar: Ohookabove
Encoding: 7886 7886 117
Width: 731
GlyphClass: 2
Flags: MW
HStem: -8 131<295 399 295 445> 576 132<331 436> 867 61<403.5 416.5>
VStem: 41 159<241 388 241 390> 439 87<828 852> 531 158<310.5 457.5>
AnchorPoint: "Anchor-1" 414 877 basechar 0
AnchorPoint: "Anchor-0" 327 0 basechar 0
LayerCount: 2
Fore
SplineSet
439 845 m 0,0,1
 439 867 439 867 407 867 c 0,2,3
 394 867 394 867 380 861 c 128,-1,4
 366 855 366 855 363 855 c 0,5,6
 357 855 357 855 347.5 870.5 c 128,-1,7
 338 886 338 886 338 896.5 c 128,-1,8
 338 907 338 907 366.5 917.5 c 128,-1,9
 395 928 395 928 432.5 928 c 128,-1,10
 470 928 470 928 498 906.5 c 128,-1,11
 526 885 526 885 526 851 c 128,-1,12
 526 817 526 817 484 782 c 128,-1,13
 442 747 442 747 419.5 747 c 128,-1,14
 397 747 397 747 382 753.5 c 128,-1,15
 367 760 367 760 367 769 c 128,-1,16
 367 778 367 778 403 802 c 128,-1,17
 439 826 439 826 439 845 c 0,0,1
403 708 m 0,18,19
 542 708 542 708 615.5 632.5 c 128,-1,20
 689 557 689 557 689 414 c 0,21,22
 689 210 689 210 596 101 c 128,-1,23
 503 -8 503 -8 328 -8 c 0,24,25
 189 -8 189 -8 115 67 c 128,-1,26
 41 142 41 142 41 284 c 0,27,28
 41 455.204819277 41 455.204819277 122.5 575 c 0,29,30
 164 636 164 636 236 672 c 128,-1,31
 308 708 308 708 403 708 c 0,18,19
389 576 m 0,32,33
 301 576 301 576 250.5 503.5 c 128,-1,34
 200 431 200 431 200 298 c 0,35,36
 200 123 200 123 342 123 c 0,37,38
 429 123 429 123 480 195.5 c 128,-1,39
 531 268 531 268 531 400 c 0,40,41
 531 576 531 576 389 576 c 0,32,33
EndSplineSet
Position2: "'cpsp' Capital Spacing lookup 0 subtable" dx=5 dy=0 dh=10 dv=0
EndChar

StartChar: Ohorn
Encoding: 416 416 118
Width: 731
GlyphClass: 2
Flags: MW
HStem: -8 131<295 399 295 445> 576 106 576 132<331 430 271.5 436>
VStem: 41 159<241 388 241 390> 531 158<310.5 457.5> 626 81<712.5 731>
AnchorPoint: "Anchor-1" 422 702 basechar 0
AnchorPoint: "Anchor-0" 327 0 basechar 0
LayerCount: 2
Fore
SplineSet
606 642 m 1,0,1
 689 567 689 567 689 414 c 0,2,3
 689 210 689 210 596 101 c 128,-1,4
 503 -8 503 -8 328 -8 c 0,5,6
 189 -8 189 -8 115 67 c 128,-1,7
 41 142 41 142 41 284 c 0,8,9
 41 455.204819277 41 455.204819277 122.5 575 c 0,10,11
 164 636 164 636 236 672 c 128,-1,12
 308 708 308 708 395.5 708 c 128,-1,13
 483 708 483 708 543 682 c 1,14,-1
 575 682 l 2,15,16
 626 682 626 682 626 722 c 0,17,18
 626 732 626 732 615.5 748 c 128,-1,19
 605 764 605 764 605 772.5 c 128,-1,20
 605 781 605 781 618 789 c 2,21,-1
 652 811 l 2,22,23
 660 816 660 816 669 816 c 0,24,25
 686 816 686 816 696.5 789 c 128,-1,26
 707 762 707 762 707 731 c 128,-1,27
 707 700 707 700 681 674.5 c 128,-1,28
 655 649 655 649 606 642 c 1,0,1
342 123 m 0,29,30
 429 123 429 123 480 195.5 c 128,-1,31
 531 268 531 268 531 400 c 0,32,33
 531 576 531 576 389 576 c 0,34,35
 301 576 301 576 250.5 503.5 c 128,-1,36
 200 431 200 431 200 298 c 0,37,38
 200 123 200 123 342 123 c 0,29,30
EndSplineSet
Position2: "'cpsp' Capital Spacing lookup 0 subtable" dx=5 dy=0 dh=10 dv=0
EndChar

StartChar: Ohornacute
Encoding: 7898 7898 119
Width: 731
GlyphClass: 2
Flags: MW
HStem: -8 131<295 399 295 445> 576 106 576 132<331 430 271.5 436> 754 159<383 549>
VStem: 41 159<241 388 241 390> 531 158<310.5 457.5> 626 81<712.5 731>
AnchorPoint: "Anchor-1" 422 702 basechar 0
AnchorPoint: "Anchor-0" 327 0 basechar 0
LayerCount: 2
Fore
SplineSet
394 754 m 0,0,1
 365 754 365 754 365 767 c 0,2,3
 365 773.153846154 365 773.153846154 373.5 785.576923077 c 128,-1,4
 382 798 382 798 389.5 809 c 128,-1,5
 397 820 397 820 412 841.5 c 128,-1,6
 427 863 427 863 443.5 888 c 128,-1,7
 460 913 460 913 524 913 c 128,-1,8
 588 913 588 913 588 900 c 0,9,10
 588 893 588 893 583.5 887.5 c 128,-1,11
 579 882 579 882 543 847.5 c 128,-1,12
 507 813 507 813 477 783.5 c 128,-1,13
 447 754 447 754 394 754 c 0,0,1
606 642 m 1,14,15
 689 567 689 567 689 414 c 0,16,17
 689 210 689 210 596 101 c 128,-1,18
 503 -8 503 -8 328 -8 c 0,19,20
 189 -8 189 -8 115 67 c 128,-1,21
 41 142 41 142 41 284 c 0,22,23
 41 455.204819277 41 455.204819277 122.5 575 c 0,24,25
 164 636 164 636 236 672 c 128,-1,26
 308 708 308 708 395.5 708 c 128,-1,27
 483 708 483 708 543 682 c 1,28,-1
 575 682 l 2,29,30
 626 682 626 682 626 722 c 0,31,32
 626 732 626 732 615.5 748 c 128,-1,33
 605 764 605 764 605 772.5 c 128,-1,34
 605 781 605 781 618 789 c 2,35,-1
 652 811 l 2,36,37
 660 816 660 816 669 816 c 0,38,39
 686 816 686 816 696.5 789 c 128,-1,40
 707 762 707 762 707 731 c 128,-1,41
 707 700 707 700 681 674.5 c 128,-1,42
 655 649 655 649 606 642 c 1,14,15
342 123 m 0,43,44
 429 123 429 123 480 195.5 c 128,-1,45
 531 268 531 268 531 400 c 0,46,47
 531 576 531 576 389 576 c 0,48,49
 301 576 301 576 250.5 503.5 c 128,-1,50
 200 431 200 431 200 298 c 0,51,52
 200 123 200 123 342 123 c 0,43,44
EndSplineSet
Position2: "'cpsp' Capital Spacing lookup 0 subtable" dx=5 dy=0 dh=10 dv=0
EndChar

StartChar: Ohorndotbelow
Encoding: 7906 7906 120
Width: 731
GlyphClass: 2
Flags: MW
HStem: -204 124<295 323> -8 131<295 399 295 445> 576 106 576 132<331 430 271.5 436>
VStem: 41 159<241 388 241 390> 246 127<-182.5 -101.5> 531 158<310.5 457.5> 626 81<712.5 731>
AnchorPoint: "Anchor-1" 422 702 basechar 0
AnchorPoint: "Anchor-0" 306 -203 basechar 0
LayerCount: 2
Fore
SplineSet
606 642 m 1,0,1
 689 567 689 567 689 414 c 0,2,3
 689 210 689 210 596 101 c 128,-1,4
 503 -8 503 -8 328 -8 c 0,5,6
 189 -8 189 -8 115 67 c 128,-1,7
 41 142 41 142 41 284 c 0,8,9
 41 455.204819277 41 455.204819277 122.5 575 c 0,10,11
 164 636 164 636 236 672 c 128,-1,12
 308 708 308 708 395.5 708 c 128,-1,13
 483 708 483 708 543 682 c 1,14,-1
 575 682 l 2,15,16
 626 682 626 682 626 722 c 0,17,18
 626 732 626 732 615.5 748 c 128,-1,19
 605 764 605 764 605 772.5 c 128,-1,20
 605 781 605 781 618 789 c 2,21,-1
 652 811 l 2,22,23
 660 816 660 816 669 816 c 0,24,25
 686 816 686 816 696.5 789 c 128,-1,26
 707 762 707 762 707 731 c 128,-1,27
 707 700 707 700 681 674.5 c 128,-1,28
 655 649 655 649 606 642 c 1,0,1
342 123 m 0,29,30
 429 123 429 123 480 195.5 c 128,-1,31
 531 268 531 268 531 400 c 0,32,33
 531 576 531 576 389 576 c 0,34,35
 301 576 301 576 250.5 503.5 c 128,-1,36
 200 431 200 431 200 298 c 0,37,38
 200 123 200 123 342 123 c 0,29,30
253 -112 m 2,39,40
 256 -80 256 -80 314.5 -80 c 128,-1,41
 373 -80 373 -80 373 -112 c 1,42,-1
 366 -172 l 1,43,44
 361 -204 361 -204 303.5 -204 c 128,-1,45
 246 -204 246 -204 246 -172 c 1,46,-1
 253 -112 l 2,39,40
EndSplineSet
Position2: "'cpsp' Capital Spacing lookup 0 subtable" dx=5 dy=0 dh=10 dv=0
EndChar

StartChar: Ohorngrave
Encoding: 7900 7900 121
Width: 731
GlyphClass: 2
Flags: MW
HStem: -8 131<295 399 295 445> 576 106 576 132<331 430 271.5 436> 754 159<331 466>
VStem: 41 159<241 388 241 390> 531 158<310.5 457.5> 626 81<712.5 731>
AnchorPoint: "Anchor-1" 422 702 basechar 0
AnchorPoint: "Anchor-0" 327 0 basechar 0
LayerCount: 2
Fore
SplineSet
487 770 m 0,0,1
 487 754 487 754 445 754 c 128,-1,2
 403 754 403 754 381 781 c 128,-1,3
 359 808 359 808 330.5 841.5 c 128,-1,4
 302 875 302 875 296 883.5 c 128,-1,5
 290 892 290 892 290 897 c 0,6,7
 290 913 290 913 355.5 913 c 128,-1,8
 421 913 421 913 434 886 c 0,9,10
 444 865 444 865 453.5 845 c 128,-1,11
 463 825 463 825 468.5 814 c 128,-1,12
 474 803 474 803 478.5 793 c 0,13,14
 487 774.111111111 487 774.111111111 487 770 c 0,0,1
606 642 m 1,15,16
 689 567 689 567 689 414 c 0,17,18
 689 210 689 210 596 101 c 128,-1,19
 503 -8 503 -8 328 -8 c 0,20,21
 189 -8 189 -8 115 67 c 128,-1,22
 41 142 41 142 41 284 c 0,23,24
 41 455.204819277 41 455.204819277 122.5 575 c 0,25,26
 164 636 164 636 236 672 c 128,-1,27
 308 708 308 708 395.5 708 c 128,-1,28
 483 708 483 708 543 682 c 1,29,-1
 575 682 l 2,30,31
 626 682 626 682 626 722 c 0,32,33
 626 732 626 732 615.5 748 c 128,-1,34
 605 764 605 764 605 772.5 c 128,-1,35
 605 781 605 781 618 789 c 2,36,-1
 652 811 l 2,37,38
 660 816 660 816 669 816 c 0,39,40
 686 816 686 816 696.5 789 c 128,-1,41
 707 762 707 762 707 731 c 128,-1,42
 707 700 707 700 681 674.5 c 128,-1,43
 655 649 655 649 606 642 c 1,15,16
342 123 m 0,44,45
 429 123 429 123 480 195.5 c 128,-1,46
 531 268 531 268 531 400 c 0,47,48
 531 576 531 576 389 576 c 0,49,50
 301 576 301 576 250.5 503.5 c 128,-1,51
 200 431 200 431 200 298 c 0,52,53
 200 123 200 123 342 123 c 0,44,45
EndSplineSet
Position2: "'cpsp' Capital Spacing lookup 0 subtable" dx=5 dy=0 dh=10 dv=0
EndChar

StartChar: Ohornhookabove
Encoding: 7902 7902 122
Width: 731
GlyphClass: 2
Flags: MW
HStem: -8 131<295 399 295 445> 576 106 576 132<331 430 271.5 436> 869 61<429.5 442.5>
VStem: 41 159<241 388 241 390> 465 87<830 854> 531 158<310.5 457.5> 626 81<712.5 731>
AnchorPoint: "Anchor-1" 422 702 basechar 0
AnchorPoint: "Anchor-0" 327 0 basechar 0
LayerCount: 2
Fore
SplineSet
389 857 m 0,0,1
 383 857 383 857 373.5 872.5 c 128,-1,2
 364 888 364 888 364 898.5 c 128,-1,3
 364 909 364 909 392.5 919.5 c 128,-1,4
 421 930 421 930 458.5 930 c 128,-1,5
 496 930 496 930 524 908.5 c 128,-1,6
 552 887 552 887 552 853 c 128,-1,7
 552 819 552 819 510 784 c 128,-1,8
 468 749 468 749 445.5 749 c 128,-1,9
 423 749 423 749 408 755.5 c 128,-1,10
 393 762 393 762 393 771 c 128,-1,11
 393 780 393 780 429 804 c 128,-1,12
 465 828 465 828 465 847 c 0,13,14
 465 869 465 869 433 869 c 0,15,16
 420 869 420 869 406 863 c 128,-1,17
 392 857 392 857 389 857 c 0,0,1
606 642 m 1,18,19
 689 567 689 567 689 414 c 0,20,21
 689 210 689 210 596 101 c 128,-1,22
 503 -8 503 -8 328 -8 c 0,23,24
 189 -8 189 -8 115 67 c 128,-1,25
 41 142 41 142 41 284 c 0,26,27
 41 455.204819277 41 455.204819277 122.5 575 c 0,28,29
 164 636 164 636 236 672 c 128,-1,30
 308 708 308 708 395.5 708 c 128,-1,31
 483 708 483 708 543 682 c 1,32,-1
 575 682 l 2,33,34
 626 682 626 682 626 722 c 0,35,36
 626 732 626 732 615.5 748 c 128,-1,37
 605 764 605 764 605 772.5 c 128,-1,38
 605 781 605 781 618 789 c 2,39,-1
 652 811 l 2,40,41
 660 816 660 816 669 816 c 0,42,43
 686 816 686 816 696.5 789 c 128,-1,44
 707 762 707 762 707 731 c 128,-1,45
 707 700 707 700 681 674.5 c 128,-1,46
 655 649 655 649 606 642 c 1,18,19
342 123 m 0,47,48
 429 123 429 123 480 195.5 c 128,-1,49
 531 268 531 268 531 400 c 0,50,51
 531 576 531 576 389 576 c 0,52,53
 301 576 301 576 250.5 503.5 c 128,-1,54
 200 431 200 431 200 298 c 0,55,56
 200 123 200 123 342 123 c 0,47,48
EndSplineSet
Position2: "'cpsp' Capital Spacing lookup 0 subtable" dx=5 dy=0 dh=10 dv=0
EndChar

StartChar: Ohorntilde
Encoding: 7904 7904 123
Width: 731
GlyphClass: 2
Flags: MW
HStem: -8 131<295 399 295 445> 576 106 576 132<331 430 271.5 436> 760 86<482.5 495.5> 772 100
VStem: 41 159<241 388 241 390> 531 158<310.5 457.5> 626 81<712.5 731>
AnchorPoint: "Anchor-1" 422 702 basechar 0
AnchorPoint: "Anchor-0" 327 0 basechar 0
LayerCount: 2
Fore
SplineSet
477 760 m 0,0,1
 444 760 444 760 410 773 c 128,-1,2
 376 786 376 786 361.5 786 c 128,-1,3
 347 786 347 786 324.5 773 c 128,-1,4
 302 760 302 760 286 786 c 128,-1,5
 270 812 270 812 288 831 c 0,6,7
 334 872 334 872 373 872 c 128,-1,8
 412 872 412 872 441.5 859 c 128,-1,9
 471 846 471 846 494.5 846 c 128,-1,10
 518 846 518 846 540 861.5 c 128,-1,11
 562 877 562 877 579 853 c 0,12,13
 588 842 588 842 587 830.5 c 128,-1,14
 586 819 586 819 572 801 c 0,15,16
 534 760 534 760 477 760 c 0,0,1
606 642 m 1,17,18
 689 567 689 567 689 414 c 0,19,20
 689 210 689 210 596 101 c 128,-1,21
 503 -8 503 -8 328 -8 c 0,22,23
 189 -8 189 -8 115 67 c 128,-1,24
 41 142 41 142 41 284 c 0,25,26
 41 455.204819277 41 455.204819277 122.5 575 c 0,27,28
 164 636 164 636 236 672 c 128,-1,29
 308 708 308 708 395.5 708 c 128,-1,30
 483 708 483 708 543 682 c 1,31,-1
 575 682 l 2,32,33
 626 682 626 682 626 722 c 0,34,35
 626 732 626 732 615.5 748 c 128,-1,36
 605 764 605 764 605 772.5 c 128,-1,37
 605 781 605 781 618 789 c 2,38,-1
 652 811 l 2,39,40
 660 816 660 816 669 816 c 0,41,42
 686 816 686 816 696.5 789 c 128,-1,43
 707 762 707 762 707 731 c 128,-1,44
 707 700 707 700 681 674.5 c 128,-1,45
 655 649 655 649 606 642 c 1,17,18
342 123 m 0,46,47
 429 123 429 123 480 195.5 c 128,-1,48
 531 268 531 268 531 400 c 0,49,50
 531 576 531 576 389 576 c 0,51,52
 301 576 301 576 250.5 503.5 c 128,-1,53
 200 431 200 431 200 298 c 0,54,55
 200 123 200 123 342 123 c 0,46,47
EndSplineSet
Position2: "'cpsp' Capital Spacing lookup 0 subtable" dx=5 dy=0 dh=10 dv=0
EndChar

StartChar: Ohungarumlaut
Encoding: 336 336 124
Width: 731
GlyphClass: 2
Flags: MW
HStem: -8 131<295 399 295 445> 576 132<331 436> 752 159<291 457 418 507.5>
VStem: 41 159<241 388 241 390> 531 158<310.5 457.5>
AnchorPoint: "Anchor-1" 438 877 basechar 0
AnchorPoint: "Anchor-0" 327 0 basechar 0
LayerCount: 2
Fore
SplineSet
320 839.5 m 128,-1,1
 335 861 335 861 351.5 886 c 128,-1,2
 368 911 368 911 432 911 c 128,-1,3
 496 911 496 911 496 898 c 0,4,5
 496 891 496 891 491.5 885.5 c 128,-1,6
 487 880 487 880 451 845.5 c 128,-1,7
 415 811 415 811 385 781.5 c 128,-1,8
 355 752 355 752 302 752 c 0,9,10
 273 752 273 752 273 765 c 0,11,12
 273 771.153846154 273 771.153846154 281.5 783.576923077 c 128,-1,13
 290 796 290 796 297.5 807 c 128,-1,0
 305 818 305 818 320 839.5 c 128,-1,1
502 839.5 m 128,-1,15
 517 861 517 861 533.5 886 c 128,-1,16
 550 911 550 911 614 911 c 128,-1,17
 678 911 678 911 678 898 c 0,18,19
 678 891 678 891 673.5 885.5 c 128,-1,20
 669 880 669 880 647.5 859.5 c 128,-1,21
 626 839 626 839 618 831.5 c 0,22,23
 594 809 594 809 565.5 780.5 c 128,-1,24
 537 752 537 752 484 752 c 0,25,26
 455 752 455 752 455 765 c 0,27,28
 455 771.153846154 455 771.153846154 463.5 783.576923077 c 128,-1,29
 472 796 472 796 479.5 807 c 128,-1,14
 487 818 487 818 502 839.5 c 128,-1,15
403 708 m 0,30,31
 542 708 542 708 615.5 632.5 c 128,-1,32
 689 557 689 557 689 414 c 0,33,34
 689 210 689 210 596 101 c 128,-1,35
 503 -8 503 -8 328 -8 c 0,36,37
 189 -8 189 -8 115 67 c 128,-1,38
 41 142 41 142 41 284 c 0,39,40
 41 455.204819277 41 455.204819277 122.5 575 c 0,41,42
 164 636 164 636 236 672 c 128,-1,43
 308 708 308 708 403 708 c 0,30,31
389 576 m 0,44,45
 301 576 301 576 250.5 503.5 c 128,-1,46
 200 431 200 431 200 298 c 0,47,48
 200 123 200 123 342 123 c 0,49,50
 429 123 429 123 480 195.5 c 128,-1,51
 531 268 531 268 531 400 c 0,52,53
 531 576 531 576 389 576 c 0,44,45
EndSplineSet
Position2: "'cpsp' Capital Spacing lookup 0 subtable" dx=5 dy=0 dh=10 dv=0
EndChar

StartChar: Omacron
Encoding: 332 332 125
Width: 731
GlyphClass: 2
Flags: MW
HStem: -8 131<295 399 295 445> 576 132<331 436> 774 95<290 526 310 515>
VStem: 41 159<241 388 241 390> 531 158<310.5 457.5>
AnchorPoint: "Anchor-1" 425 877 basechar 0
AnchorPoint: "Anchor-0" 327 0 basechar 0
LayerCount: 2
Fore
SplineSet
310 869 m 2,0,-1
 526 869 l 2,1,2
 552 869 552 869 552 839 c 0,3,4
 552 774 552 774 515 774 c 2,5,-1
 299 774 l 2,6,7
 273 774 273 774 273 804 c 0,8,9
 273 869 273 869 310 869 c 2,0,-1
403 708 m 0,10,11
 542 708 542 708 615.5 632.5 c 128,-1,12
 689 557 689 557 689 414 c 0,13,14
 689 210 689 210 596 101 c 128,-1,15
 503 -8 503 -8 328 -8 c 0,16,17
 189 -8 189 -8 115 67 c 128,-1,18
 41 142 41 142 41 284 c 0,19,20
 41 455.204819277 41 455.204819277 122.5 575 c 0,21,22
 164 636 164 636 236 672 c 128,-1,23
 308 708 308 708 403 708 c 0,10,11
389 576 m 0,24,25
 301 576 301 576 250.5 503.5 c 128,-1,26
 200 431 200 431 200 298 c 0,27,28
 200 123 200 123 342 123 c 0,29,30
 429 123 429 123 480 195.5 c 128,-1,31
 531 268 531 268 531 400 c 0,32,33
 531 576 531 576 389 576 c 0,24,25
EndSplineSet
Position2: "'cpsp' Capital Spacing lookup 0 subtable" dx=5 dy=0 dh=10 dv=0
EndChar

StartChar: Oogonek
Encoding: 490 490 126
Width: 731
GlyphClass: 2
Flags: MW
HStem: -183 70<452 464> -8 131<295 334> 576 132<331 436>
VStem: 41 159<241 388 241 390> 336 69<-90 -82> 531 158<310.5 457.5>
AnchorPoint: "Anchor-1" 396 700 basechar 0
AnchorPoint: "Anchor-0" 379 -203 basechar 0
LayerCount: 2
Fore
SplineSet
689 414 m 0,0,1
 689 240 689 240 621 134.5 c 128,-1,2
 553 29 553 29 423 1 c 1,3,-1
 423 -3 l 2,4,5
 423 -9 423 -9 414 -29.5 c 128,-1,6
 405 -50 405 -50 405 -70 c 0,7,8
 405 -113 405 -113 463 -113 c 0,9,10
 481 -113 481 -113 500 -106 c 128,-1,11
 519 -99 519 -99 521 -99 c 0,12,13
 532 -99 532 -99 532 -128.5 c 128,-1,14
 532 -158 532 -158 506 -170.5 c 128,-1,15
 480 -183 480 -183 444 -183 c 0,16,17
 382 -183 382 -183 359 -156 c 128,-1,18
 336 -129 336 -129 336 -85 c 128,-1,19
 336 -41 336 -41 363 -7 c 1,20,21
 352 -8 352 -8 328 -8 c 0,22,23
 189 -8 189 -8 115 67 c 128,-1,24
 41 142 41 142 41 284 c 0,25,26
 41 455.204819277 41 455.204819277 122.5 575 c 0,27,28
 164 636 164 636 236 672 c 128,-1,29
 308 708 308 708 403 708 c 0,30,31
 542 708 542 708 615.5 632.5 c 128,-1,32
 689 557 689 557 689 414 c 0,0,1
342 123 m 0,33,34
 429 123 429 123 480 195.5 c 128,-1,35
 531 268 531 268 531 400 c 0,36,37
 531 576 531 576 389 576 c 0,38,39
 301 576 301 576 250.5 503.5 c 128,-1,40
 200 431 200 431 200 298 c 0,41,42
 200 123 200 123 342 123 c 0,33,34
EndSplineSet
Position2: "'cpsp' Capital Spacing lookup 0 subtable" dx=5 dy=0 dh=10 dv=0
EndChar

StartChar: Oslash
Encoding: 216 216 127
Width: 731
GlyphClass: 2
Flags: MW
HStem: -8 131<318.5 399 318.5 445> 576 132<331 405.5>
VStem: 41 159<289.5 388 289.5 390> 531 158<310.5 416.5>
AnchorPoint: "Anchor-1" 366 700 basechar 0
AnchorPoint: "Anchor-0" 0 0 basechar 0
LayerCount: 2
Fore
SplineSet
236 672 m 128,-1,1
 308 708 308 708 407 708 c 128,-1,2
 506 708 506 708 572 666 c 1,3,-1
 612 712 l 2,4,5
 622 724 622 724 633 724 c 128,-1,6
 644 724 644 724 654 714 c 2,7,-1
 670 700 l 2,8,9
 682 690 682 690 682 679 c 128,-1,10
 682 668 682 668 672 658 c 2,11,-1
 632 613 l 1,12,13
 689 539 689 539 689 414 c 0,14,15
 689 210 689 210 596 101 c 128,-1,16
 503 -8 503 -8 328 -8 c 0,17,18
 205 -8 205 -8 133 50 c 1,19,-1
 89 0 l 2,20,21
 78 -12 78 -12 67.5 -12 c 128,-1,22
 57 -12 57 -12 47 -2 c 2,23,-1
 31 12 l 2,24,25
 19 23 19 23 19 33.5 c 128,-1,26
 19 44 19 44 29 54 c 2,27,-1
 80 112 l 1,28,29
 41 180 41 180 41 273.5 c 128,-1,30
 41 367 41 367 61 440.5 c 128,-1,31
 81 514 81 514 122.5 575 c 128,-1,0
 164 636 164 636 236 672 c 128,-1,1
389 576 m 0,32,33
 301 576 301 576 250.5 503.5 c 128,-1,34
 200 431 200 431 200 298 c 0,35,36
 200 272.5 200 272.5 203 250 c 1,37,-1
 471 553 l 1,38,39
 439 576 439 576 389 576 c 0,32,33
519 485 m 1,40,-1
 236 167 l 1,41,42
 272 123 272 123 342 123 c 0,43,44
 429 123 429 123 480 195.5 c 128,-1,45
 531 268 531 268 531 400 c 0,46,47
 531 449 531 449 519 485 c 1,40,-1
EndSplineSet
Position2: "'cpsp' Capital Spacing lookup 0 subtable" dx=5 dy=0 dh=10 dv=0
EndChar

StartChar: Oslashacute
Encoding: 510 510 128
Width: 731
GlyphClass: 2
Flags: MW
HStem: -8 131<318.5 399 318.5 445> 576 132<331 405.5> 752 159<327 493>
VStem: 41 159<289.5 388 289.5 390> 531 158<310.5 416.5>
AnchorPoint: "Anchor-1" 402 877 basechar 0
AnchorPoint: "Anchor-0" 0 0 basechar 0
LayerCount: 2
Fore
SplineSet
356 839.5 m 128,-1,1
 371 861 371 861 387.5 886 c 128,-1,2
 404 911 404 911 468 911 c 128,-1,3
 532 911 532 911 532 898 c 0,4,5
 532 891 532 891 527.5 885.5 c 128,-1,6
 523 880 523 880 487 845.5 c 128,-1,7
 451 811 451 811 421 781.5 c 128,-1,8
 391 752 391 752 338 752 c 0,9,10
 309 752 309 752 309 765 c 0,11,12
 309 771.153846154 309 771.153846154 317.5 783.576923077 c 128,-1,13
 326 796 326 796 333.5 807 c 128,-1,0
 341 818 341 818 356 839.5 c 128,-1,1
236 672 m 128,-1,15
 308 708 308 708 407 708 c 128,-1,16
 506 708 506 708 572 666 c 1,17,-1
 612 712 l 2,18,19
 622 724 622 724 633 724 c 128,-1,20
 644 724 644 724 654 714 c 2,21,-1
 670 700 l 2,22,23
 682 690 682 690 682 679 c 128,-1,24
 682 668 682 668 672 658 c 2,25,-1
 632 613 l 1,26,27
 689 539 689 539 689 414 c 0,28,29
 689 210 689 210 596 101 c 128,-1,30
 503 -8 503 -8 328 -8 c 0,31,32
 205 -8 205 -8 133 50 c 1,33,-1
 89 0 l 2,34,35
 78 -12 78 -12 67.5 -12 c 128,-1,36
 57 -12 57 -12 47 -2 c 2,37,-1
 31 12 l 2,38,39
 19 23 19 23 19 33.5 c 128,-1,40
 19 44 19 44 29 54 c 2,41,-1
 80 112 l 1,42,43
 41 180 41 180 41 273.5 c 128,-1,44
 41 367 41 367 61 440.5 c 128,-1,45
 81 514 81 514 122.5 575 c 128,-1,14
 164 636 164 636 236 672 c 128,-1,15
389 576 m 0,46,47
 301 576 301 576 250.5 503.5 c 128,-1,48
 200 431 200 431 200 298 c 0,49,50
 200 272.5 200 272.5 203 250 c 1,51,-1
 471 553 l 1,52,53
 439 576 439 576 389 576 c 0,46,47
519 485 m 1,54,-1
 236 167 l 1,55,56
 272 123 272 123 342 123 c 0,57,58
 429 123 429 123 480 195.5 c 128,-1,59
 531 268 531 268 531 400 c 0,60,61
 531 449 531 449 519 485 c 1,54,-1
EndSplineSet
Position2: "'cpsp' Capital Spacing lookup 0 subtable" dx=5 dy=0 dh=10 dv=0
EndChar

StartChar: Otilde
Encoding: 213 213 129
Width: 731
GlyphClass: 2
Flags: MW
HStem: -8 131<295 399 295 445> 576 132<331 436> 758 86<463.5 477.5> 770 100
VStem: 41 159<241 388 241 390> 531 158<310.5 457.5>
AnchorPoint: "Anchor-1" 420 877 basechar 0
AnchorPoint: "Anchor-0" 327 0 basechar 0
LayerCount: 2
Fore
SplineSet
247 829 m 0,0,1
 299 870 299 870 342 870 c 128,-1,2
 385 870 385 870 418.5 857 c 128,-1,3
 452 844 452 844 477 844 c 128,-1,4
 502 844 502 844 527.5 859.5 c 128,-1,5
 553 875 553 875 571 851 c 0,6,7
 581 840 581 840 579.5 828.5 c 128,-1,8
 578 817 578 817 563 799 c 0,9,10
 522 758 522 758 457 758 c 0,11,12
 420 758 420 758 382 771 c 128,-1,13
 344 784 344 784 328 784 c 128,-1,14
 312 784 312 784 287.5 771 c 128,-1,15
 263 758 263 758 245.5 784 c 128,-1,16
 228 810 228 810 247 829 c 0,0,1
403 708 m 0,17,18
 542 708 542 708 615.5 632.5 c 128,-1,19
 689 557 689 557 689 414 c 0,20,21
 689 210 689 210 596 101 c 128,-1,22
 503 -8 503 -8 328 -8 c 0,23,24
 189 -8 189 -8 115 67 c 128,-1,25
 41 142 41 142 41 284 c 0,26,27
 41 455.204819277 41 455.204819277 122.5 575 c 0,28,29
 164 636 164 636 236 672 c 128,-1,30
 308 708 308 708 403 708 c 0,17,18
389 576 m 0,31,32
 301 576 301 576 250.5 503.5 c 128,-1,33
 200 431 200 431 200 298 c 0,34,35
 200 123 200 123 342 123 c 0,36,37
 429 123 429 123 480 195.5 c 128,-1,38
 531 268 531 268 531 400 c 0,39,40
 531 576 531 576 389 576 c 0,31,32
EndSplineSet
Position2: "'cpsp' Capital Spacing lookup 0 subtable" dx=5 dy=0 dh=10 dv=0
EndChar

StartChar: OE
Encoding: 338 338 130
Width: 1021
GlyphClass: 2
Flags: MW
HStem: -8 131<295 351.5> 0 131<518.5 912 660 900> 293 131<691 903 678 915> 569 131<707 959 707 707> 576 132<331 426.5 285.5 436>
VStem: 41 159<241 388 241 419>
AnchorPoint: "Anchor-1" 511 700 basechar 0
AnchorPoint: "Anchor-0" 0 0 basechar 0
LayerCount: 2
Fore
SplineSet
605 700 m 2,0,-1
 971 700 l 2,1,2
 997 700 997 700 997 660 c 0,3,4
 997 569 997 569 959 569 c 2,5,-1
 707 569 l 1,6,-1
 691 424 l 1,7,-1
 915 424 l 2,8,9
 941 424 941 424 941 384 c 0,10,11
 941 293 941 293 903 293 c 2,12,-1
 678 293 l 1,13,-1
 660 131 l 1,14,-1
 912 131 l 2,15,16
 938 131 938 131 938 91 c 0,17,18
 938 0 938 0 900 0 c 2,19,-1
 532 0 l 2,20,21
 512 0 512 0 504 7 c 128,-1,22
 496 14 496 14 496 32 c 2,23,-1
 496 36 l 1,24,25
 418 -8 418 -8 318 -8 c 0,26,27
 183 -8 183 -8 112 66.5 c 128,-1,28
 41 141 41 141 41 282 c 0,29,30
 41 485 41 485 135.5 596.5 c 128,-1,31
 230 708 230 708 393 708 c 0,32,33
 494 708 494 708 561 662 c 1,34,35
 568 700 568 700 605 700 c 2,0,-1
342 123 m 0,36,37
 429 123 429 123 480 195.5 c 128,-1,38
 531 268 531 268 531 400 c 0,39,40
 531 576 531 576 389 576 c 0,41,42
 301 576 301 576 250.5 503.5 c 128,-1,43
 200 431 200 431 200 298 c 0,44,45
 200 123 200 123 342 123 c 0,36,37
EndSplineSet
Position2: "'cpsp' Capital Spacing lookup 0 subtable" dx=5 dy=0 dh=10 dv=0
EndChar

StartChar: P
Encoding: 80 80 131
Width: 570
GlyphClass: 2
Flags: MW
HStem: 262 132<226 322 322 325 212 322> 569 131<245 245 245 341>
VStem: 419 159<453.5 525.5>
LayerCount: 2
Fore
SplineSet
144 700 m 2,0,-1
 361 700 l 2,1,2
 469.263157895 700 469.263157895 700 526 651 c 0,3,4
 548 632 548 632 563 597.5 c 128,-1,5
 578 563 578 563 578 508 c 128,-1,6
 578 453 578 453 557.5 404 c 128,-1,7
 537 355 537 355 509 329 c 128,-1,8
 481 303 481 303 443 287 c 0,9,10
 383.625 262 383.625 262 325 262 c 2,11,-1
 212 262 l 1,12,-1
 188 30 l 2,13,14
 185 -2 185 -2 125 -2 c 2,15,-1
 91 -2 l 2,16,17
 34 -2 34 -2 34 30 c 1,18,-1
 100 660 l 2,19,20
 104 700 104 700 144 700 c 2,0,-1
245 569 m 1,21,-1
 226 394 l 1,22,-1
 322 394 l 2,23,24
 361 394 361 394 390 416.5 c 128,-1,25
 419 439 419 439 419 487.5 c 128,-1,26
 419 536 419 536 396 552.5 c 128,-1,27
 373 569 373 569 341 569 c 2,28,-1
 245 569 l 1,21,-1
EndSplineSet
Position2: "'cpsp' Capital Spacing lookup 0 subtable" dx=5 dy=0 dh=10 dv=0
EndChar

StartChar: Thorn
Encoding: 222 222 132
Width: 567
GlyphClass: 2
Flags: MW
HStem: 155 132<215 311 311 314 201 311> 462 131<233 350 247 329> 682 20G<164 198 198 219.5>
VStem: 408 159<346.5 418.5>
LayerCount: 2
Fore
SplineSet
164 702 m 2,0,-1
 198 702 l 2,1,2
 255 702 255 702 255 670 c 1,3,-1
 247 593 l 1,4,-1
 350 593 l 2,5,6
 459.153846154 593 459.153846154 593 515 543.5 c 0,7,8
 537 524 537 524 552 489 c 128,-1,9
 567 454 567 454 567 399.5 c 128,-1,10
 567 345 567 345 545.5 296.5 c 128,-1,11
 524 248 524 248 494.5 222 c 128,-1,12
 465 196 465 196 427 180 c 0,13,14
 367.625 155 367.625 155 314 155 c 2,15,-1
 201 155 l 1,16,-1
 188 30 l 2,17,18
 185 -2 185 -2 125 -2 c 2,19,-1
 91 -2 l 2,20,21
 34 -2 34 -2 34 30 c 1,22,-1
 101 670 l 2,23,24
 104 702 104 702 164 702 c 2,0,-1
233 462 m 1,25,-1
 215 287 l 1,26,-1
 311 287 l 2,27,28
 349 287 349 287 378.5 309.5 c 128,-1,29
 408 332 408 332 408 380.5 c 128,-1,30
 408 429 408 429 384.5 445.5 c 128,-1,31
 361 462 361 462 329 462 c 2,32,-1
 233 462 l 1,25,-1
EndSplineSet
Position2: "'cpsp' Capital Spacing lookup 0 subtable" dx=5 dy=0 dh=10 dv=0
EndChar

StartChar: Q
Encoding: 81 81 133
Width: 731
GlyphClass: 2
Flags: MW
HStem: 576 130<332 436.5>
VStem: 41 159<286 387 239 392.5> 531 158<318.5 459.5>
LayerCount: 2
Fore
SplineSet
404 706 m 0,0,1
 543 706 543 706 616 631.5 c 128,-1,2
 689 557 689 557 689 415 c 128,-1,3
 689 273 689 273 637.5 174 c 128,-1,4
 586 75 586 75 496 31 c 1,5,-1
 495 27 l 1,6,-1
 637 -27 l 2,7,8
 654 -34 654 -34 654 -54 c 0,9,10
 654 -162 654 -162 625 -162 c 0,11,12
 618.72 -162 618.72 -162 441.86 -88 c 128,-1,13
 265 -14 265 -14 192 16 c 0,14,15
 43 78 43 78 41 286 c 0,16,17
 41 455.94047619 41 455.94047619 124 575.5 c 0,18,19
 166 636 166 636 238 671 c 128,-1,20
 310 706 310 706 404 706 c 0,0,1
390 576 m 0,21,22
 302 576 302 576 251 503 c 128,-1,23
 200 430 200 430 200 297 c 0,24,25
 200 119 200 119 342 119 c 0,26,27
 430 119 430 119 480.5 193 c 128,-1,28
 531 267 531 267 531 403 c 0,29,30
 531 576 531 576 390 576 c 0,21,22
EndSplineSet
Position2: "'cpsp' Capital Spacing lookup 0 subtable" dx=5 dy=0 dh=10 dv=0
EndChar

StartChar: R
Encoding: 82 82 134
Width: 610
GlyphClass: 2
Flags: MW
HStem: 274 133<229 254 215 324> 569 131<246 246 246 334>
VStem: 410 161<492 522>
AnchorPoint: "Anchor-1" 332 700 basechar 0
AnchorPoint: "Anchor-0" 276 0 basechar 0
LayerCount: 2
Fore
SplineSet
145 700 m 2,0,-1
 340 700 l 2,1,2
 571 700 571 700 571 537 c 0,3,4
 571 471 571 471 534.5 423 c 128,-1,5
 498 375 498 375 436 353 c 1,6,-1
 436 349 l 1,7,8
 453 342 453 342 470.5 315.5 c 128,-1,9
 488 289 488 289 498 257 c 2,10,-1
 563 37 l 2,11,12
 566 25 566 25 566 18 c 0,13,14
 563 -2 563 -2 504 -2 c 2,15,-1
 463 -2 l 2,16,17
 414 -2 414 -2 407 19 c 2,18,-1
 348 214 l 1,19,20
 336 247 336 247 318 260.5 c 128,-1,21
 300 274 300 274 254 274 c 2,22,-1
 215 274 l 1,23,-1
 189 30 l 2,24,25
 186 -2 186 -2 126 -2 c 2,26,-1
 92 -2 l 2,27,28
 35 -2 35 -2 35 30 c 1,29,-1
 101 660 l 2,30,31
 105 700 105 700 145 700 c 2,0,-1
246 569 m 1,32,-1
 229 407 l 1,33,-1
 324 407 l 2,34,35
 357 407 357 407 383.5 435 c 128,-1,36
 410 463 410 463 410 498 c 0,37,38
 410 533 410 533 390 551 c 128,-1,39
 370 569 370 569 334 569 c 2,40,-1
 246 569 l 1,32,-1
EndSplineSet
Position2: "'cpsp' Capital Spacing lookup 0 subtable" dx=5 dy=0 dh=10 dv=0
EndChar

StartChar: Racute
Encoding: 340 340 135
Width: 610
GlyphClass: 2
Flags: MW
HStem: 274 133<229 254 215 324> 569 131<246 246 246 334> 752 159<293 459>
VStem: 410 161<492 522>
AnchorPoint: "Anchor-1" 368 877 basechar 0
AnchorPoint: "Anchor-0" 276 0 basechar 0
LayerCount: 2
Fore
SplineSet
322 839.5 m 128,-1,1
 337 861 337 861 353.5 886 c 128,-1,2
 370 911 370 911 434 911 c 128,-1,3
 498 911 498 911 498 898 c 0,4,5
 498 891 498 891 493.5 885.5 c 128,-1,6
 489 880 489 880 453 845.5 c 128,-1,7
 417 811 417 811 387 781.5 c 128,-1,8
 357 752 357 752 304 752 c 0,9,10
 275 752 275 752 275 765 c 0,11,12
 275 771.153846154 275 771.153846154 283.5 783.576923077 c 128,-1,13
 292 796 292 796 299.5 807 c 128,-1,0
 307 818 307 818 322 839.5 c 128,-1,1
145 700 m 2,14,-1
 340 700 l 2,15,16
 571 700 571 700 571 537 c 0,17,18
 571 471 571 471 534.5 423 c 128,-1,19
 498 375 498 375 436 353 c 1,20,-1
 436 349 l 1,21,22
 453 342 453 342 470.5 315.5 c 128,-1,23
 488 289 488 289 498 257 c 2,24,-1
 563 37 l 2,25,26
 566 25 566 25 566 18 c 0,27,28
 563 -2 563 -2 504 -2 c 2,29,-1
 463 -2 l 2,30,31
 414 -2 414 -2 407 19 c 2,32,-1
 348 214 l 1,33,34
 336 247 336 247 318 260.5 c 128,-1,35
 300 274 300 274 254 274 c 2,36,-1
 215 274 l 1,37,-1
 189 30 l 2,38,39
 186 -2 186 -2 126 -2 c 2,40,-1
 92 -2 l 2,41,42
 35 -2 35 -2 35 30 c 1,43,-1
 101 660 l 2,44,45
 105 700 105 700 145 700 c 2,14,-1
246 569 m 1,46,-1
 229 407 l 1,47,-1
 324 407 l 2,48,49
 357 407 357 407 383.5 435 c 128,-1,50
 410 463 410 463 410 498 c 128,-1,51
 410 533 410 533 390 551 c 128,-1,52
 370 569 370 569 334 569 c 2,53,-1
 246 569 l 1,46,-1
EndSplineSet
Position2: "'cpsp' Capital Spacing lookup 0 subtable" dx=5 dy=0 dh=10 dv=0
EndChar

StartChar: Rcaron
Encoding: 344 344 136
Width: 610
GlyphClass: 2
Flags: MW
HStem: 274 133<229 254 215 324> 569 131<246 246 246 334> 749 146<231 328 231 339>
VStem: 410 161<492 522>
AnchorPoint: "Anchor-1" 353 877 basechar 0
AnchorPoint: "Anchor-0" 276 0 basechar 0
LayerCount: 2
Fore
SplineSet
442 895 m 1,0,-1
 466 895 l 2,1,2
 485 895 485 895 485 885 c 0,3,4
 485 878 485 878 478 870 c 2,5,-1
 402 768 l 2,6,7
 388 749 388 749 339 749 c 2,8,-1
 328 749 l 2,9,10
 280 749 280 749 269 768 c 2,11,-1
 215 870 l 1,12,13
 212 878 212 878 212 882 c 0,14,15
 212 895 212 895 231 895 c 2,16,-1
 253 895 l 2,17,18
 301 895 301 895 317 871 c 2,19,-1
 342 831 l 1,20,-1
 373 870 l 2,21,22
 391 893 391 893 442 895 c 1,0,-1
145 700 m 2,23,-1
 340 700 l 2,24,25
 571 700 571 700 571 537 c 0,26,27
 571 471 571 471 534.5 423 c 128,-1,28
 498 375 498 375 436 353 c 1,29,-1
 436 349 l 1,30,31
 453 342 453 342 470.5 315.5 c 128,-1,32
 488 289 488 289 498 257 c 2,33,-1
 563 37 l 2,34,35
 566 25 566 25 566 18 c 0,36,37
 563 -2 563 -2 504 -2 c 2,38,-1
 463 -2 l 2,39,40
 414 -2 414 -2 407 19 c 2,41,-1
 348 214 l 1,42,43
 336 247 336 247 318 260.5 c 128,-1,44
 300 274 300 274 254 274 c 2,45,-1
 215 274 l 1,46,-1
 189 30 l 2,47,48
 186 -2 186 -2 126 -2 c 2,49,-1
 92 -2 l 2,50,51
 35 -2 35 -2 35 30 c 1,52,-1
 101 660 l 2,53,54
 105 700 105 700 145 700 c 2,23,-1
246 569 m 1,55,-1
 229 407 l 1,56,-1
 324 407 l 2,57,58
 357 407 357 407 383.5 435 c 128,-1,59
 410 463 410 463 410 498 c 0,60,61
 410 533 410 533 390 551 c 128,-1,62
 370 569 370 569 334 569 c 2,63,-1
 246 569 l 1,55,-1
EndSplineSet
Position2: "'cpsp' Capital Spacing lookup 0 subtable" dx=5 dy=0 dh=10 dv=0
EndChar

StartChar: Rcommaaccent
Encoding: 342 342 137
Width: 610
GlyphClass: 2
Flags: MW
HStem: -240 189<197 284> 274 133<229 254 215 324> 569 131<246 246 246 334>
VStem: 200 129<-128.5 -82.5 -128.5 -81.5> 410 161<492 522>
AnchorPoint: "Anchor-1" 332 700 basechar 0
AnchorPoint: "Anchor-0" 260 -203 basechar 0
LayerCount: 2
Fore
SplineSet
145 700 m 2,0,-1
 340 700 l 2,1,2
 571 700 571 700 571 537 c 0,3,4
 571 471 571 471 534.5 423 c 128,-1,5
 498 375 498 375 436 353 c 1,6,-1
 436 349 l 1,7,8
 453 342 453 342 470.5 315.5 c 128,-1,9
 488 289 488 289 498 257 c 2,10,-1
 563 37 l 2,11,12
 566 25 566 25 566 18 c 0,13,14
 563 -2 563 -2 504 -2 c 2,15,-1
 463 -2 l 2,16,17
 414 -2 414 -2 407 19 c 2,18,-1
 348 214 l 1,19,20
 336 247 336 247 318 260.5 c 128,-1,21
 300 274 300 274 254 274 c 2,22,-1
 215 274 l 1,23,-1
 189 30 l 2,24,25
 186 -2 186 -2 126 -2 c 2,26,-1
 92 -2 l 2,27,28
 35 -2 35 -2 35 30 c 1,29,-1
 101 660 l 2,30,31
 105 700 105 700 145 700 c 2,0,-1
246 569 m 1,32,-1
 229 407 l 1,33,-1
 324 407 l 2,34,35
 357 407 357 407 383.5 435 c 128,-1,36
 410 463 410 463 410 498 c 128,-1,37
 410 533 410 533 390 551 c 128,-1,38
 370 569 370 569 334 569 c 2,39,-1
 246 569 l 1,32,-1
265 -51 m 2,40,-1
 284 -51 l 2,41,42
 329 -51 329 -51 329 -96 c 128,-1,43
 329 -141 329 -141 282.5 -190.5 c 128,-1,44
 236 -240 236 -240 206 -240 c 0,45,46
 190 -240 190 -240 176 -234.5 c 128,-1,47
 162 -229 162 -229 163 -221 c 128,-1,48
 164 -213 164 -213 173.5 -198 c 0,49,50
 200 -156.157894737 200 -156.157894737 200 -95 c 0,51,52
 200 -51 200 -51 265 -51 c 2,40,-1
EndSplineSet
Position2: "'cpsp' Capital Spacing lookup 0 subtable" dx=5 dy=0 dh=10 dv=0
EndChar

StartChar: Rdotbelow
Encoding: 7770 7770 138
Width: 610
GlyphClass: 2
Flags: MW
HStem: -204 124<244 272> 274 133<229 254 215 324> 569 131<246 246 246 334>
VStem: 195 127<-182.5 -101.5> 410 161<492 522>
AnchorPoint: "Anchor-1" 285 -82 basechar 0
AnchorPoint: "Anchor-0" 255 -203 basechar 0
LayerCount: 2
Fore
SplineSet
145 700 m 2,0,-1
 340 700 l 2,1,2
 571 700 571 700 571 537 c 0,3,4
 571 471 571 471 534.5 423 c 128,-1,5
 498 375 498 375 436 353 c 1,6,-1
 436 349 l 1,7,8
 453 342 453 342 470.5 315.5 c 128,-1,9
 488 289 488 289 498 257 c 2,10,-1
 563 37 l 2,11,12
 566 25 566 25 566 18 c 0,13,14
 563 -2 563 -2 504 -2 c 2,15,-1
 463 -2 l 2,16,17
 414 -2 414 -2 407 19 c 2,18,-1
 348 214 l 1,19,20
 336 247 336 247 318 260.5 c 128,-1,21
 300 274 300 274 254 274 c 2,22,-1
 215 274 l 1,23,-1
 189 30 l 2,24,25
 186 -2 186 -2 126 -2 c 2,26,-1
 92 -2 l 2,27,28
 35 -2 35 -2 35 30 c 1,29,-1
 101 660 l 2,30,31
 105 700 105 700 145 700 c 2,0,-1
246 569 m 1,32,-1
 229 407 l 1,33,-1
 324 407 l 2,34,35
 357 407 357 407 383.5 435 c 128,-1,36
 410 463 410 463 410 498 c 128,-1,37
 410 533 410 533 390 551 c 128,-1,38
 370 569 370 569 334 569 c 2,39,-1
 246 569 l 1,32,-1
202 -112 m 2,40,41
 205 -80 205 -80 263.5 -80 c 128,-1,42
 322 -80 322 -80 322 -112 c 1,43,-1
 315 -172 l 1,44,45
 310 -204 310 -204 252.5 -204 c 128,-1,46
 195 -204 195 -204 195 -172 c 1,47,-1
 202 -112 l 2,40,41
EndSplineSet
Position2: "'cpsp' Capital Spacing lookup 0 subtable" dx=5 dy=0 dh=10 dv=0
EndChar

StartChar: S
Encoding: 83 83 139
Width: 500
GlyphClass: 2
Flags: MW
HStem: -8 131<186 227.5 160.5 273.5> 576 132<265.5 342.5>
VStem: 49 161<484 524 484 566> 307 161<168.5 227>
AnchorPoint: "Anchor-1" 289 700 basechar 0
AnchorPoint: "Anchor-0" 233 0 basechar 0
LayerCount: 2
Fore
SplineSet
216 696.5 m 128,-1,1
 260 708 260 708 321.5 708 c 128,-1,2
 383 708 383 708 432.5 687 c 128,-1,3
 482 666 482 666 482 640 c 0,4,5
 482 619 482 619 458.5 585 c 128,-1,6
 435 551 435 551 418 551 c 0,7,8
 414 551 414 551 400.5 557.5 c 0,9,10
 362.076923077 576 362.076923077 576 320.038461538 576 c 128,-1,11
 278 576 278 576 257 569.5 c 128,-1,12
 236 563 236 563 226.5 552.5 c 0,13,14
 210 534.263157895 210 534.263157895 210 515.131578947 c 128,-1,15
 210 496 210 496 215.5 483.5 c 128,-1,16
 221 471 221 471 237.5 459 c 128,-1,17
 254 447 254 447 263 442 c 0,18,19
 281 432 281 432 339 406.5 c 128,-1,20
 397 381 397 381 432.5 343 c 128,-1,21
 468 305 468 305 468 236.5 c 128,-1,22
 468 168 468 168 445 117 c 128,-1,23
 422 66 422 66 383.5 40.5 c 0,24,25
 310.274509804 -8 310.274509804 -8 218 -8 c 0,26,27
 125.243243243 -8 125.243243243 -8 62 24.5 c 0,28,29
 26 43 26 43 26 70 c 0,30,31
 26 181 26 181 52 181 c 0,32,33
 57 181 57 181 77.5 166.5 c 0,34,35
 139 123 139 123 206 123 c 0,36,37
 247 123 247 123 277 140.5 c 128,-1,38
 307 158 307 158 307 200 c 0,39,40
 307 231.090909091 307 231.090909091 276.5 250.5 c 0,41,42
 247.918032787 268.68852459 247.918032787 268.68852459 214.459016393 282.844262295 c 128,-1,43
 181 297 181 297 167 304 c 0,44,45
 112 331 112 331 80.5 370 c 128,-1,46
 49 409 49 409 49 475 c 128,-1,47
 49 541 49 541 72 587.5 c 128,-1,48
 95 634 95 634 133.5 659.5 c 128,-1,0
 172 685 172 685 216 696.5 c 128,-1,1
EndSplineSet
Position2: "'cpsp' Capital Spacing lookup 0 subtable" dx=5 dy=0 dh=10 dv=0
EndChar

StartChar: Sacute
Encoding: 346 346 140
Width: 500
GlyphClass: 2
Flags: MW
HStem: -8 131<186 227.5 160.5 273.5> 576 132<265.5 342.5> 752 159<250 416>
VStem: 49 161<484 524 484 566> 307 161<168.5 227>
AnchorPoint: "Anchor-1" 325 877 basechar 0
AnchorPoint: "Anchor-0" 233 0 basechar 0
LayerCount: 2
Fore
SplineSet
279 839.5 m 128,-1,1
 294 861 294 861 310.5 886 c 128,-1,2
 327 911 327 911 391 911 c 128,-1,3
 455 911 455 911 455 898 c 0,4,5
 455 891 455 891 450.5 885.5 c 128,-1,6
 446 880 446 880 410 845.5 c 128,-1,7
 374 811 374 811 344 781.5 c 128,-1,8
 314 752 314 752 261 752 c 0,9,10
 232 752 232 752 232 765 c 0,11,12
 232 771.153846154 232 771.153846154 240.5 783.576923077 c 128,-1,13
 249 796 249 796 256.5 807 c 128,-1,0
 264 818 264 818 279 839.5 c 128,-1,1
216 696.5 m 128,-1,15
 260 708 260 708 321.5 708 c 128,-1,16
 383 708 383 708 432.5 687 c 128,-1,17
 482 666 482 666 482 640 c 0,18,19
 482 619 482 619 458.5 585 c 128,-1,20
 435 551 435 551 418 551 c 0,21,22
 414 551 414 551 400.5 557.5 c 0,23,24
 362.076923077 576 362.076923077 576 320.038461538 576 c 128,-1,25
 278 576 278 576 257 569.5 c 128,-1,26
 236 563 236 563 226.5 552.5 c 0,27,28
 210 534.263157895 210 534.263157895 210 515.131578947 c 128,-1,29
 210 496 210 496 215.5 483.5 c 128,-1,30
 221 471 221 471 237.5 459 c 128,-1,31
 254 447 254 447 263 442 c 0,32,33
 281 432 281 432 339 406.5 c 128,-1,34
 397 381 397 381 432.5 343 c 128,-1,35
 468 305 468 305 468 236.5 c 128,-1,36
 468 168 468 168 445 117 c 128,-1,37
 422 66 422 66 383.5 40.5 c 0,38,39
 310.274509804 -8 310.274509804 -8 218 -8 c 0,40,41
 125.243243243 -8 125.243243243 -8 62 24.5 c 0,42,43
 26 43 26 43 26 70 c 0,44,45
 26 181 26 181 52 181 c 0,46,47
 57 181 57 181 77.5 166.5 c 0,48,49
 139 123 139 123 206 123 c 0,50,51
 247 123 247 123 277 140.5 c 128,-1,52
 307 158 307 158 307 200 c 0,53,54
 307 231.090909091 307 231.090909091 276.5 250.5 c 0,55,56
 247.918032787 268.68852459 247.918032787 268.68852459 214.459016393 282.844262295 c 128,-1,57
 181 297 181 297 167 304 c 0,58,59
 112 331 112 331 80.5 370 c 128,-1,60
 49 409 49 409 49 475 c 128,-1,61
 49 541 49 541 72 587.5 c 128,-1,62
 95 634 95 634 133.5 659.5 c 128,-1,14
 172 685 172 685 216 696.5 c 128,-1,15
EndSplineSet
Substitution2: "'locl' Localized Forms in Latin lookup 11 subtable" Sacute.loclPLK
Substitution2: "'aalt' Access All Alternates lookup 0 subtable" Sacute.loclPLK
Position2: "'cpsp' Capital Spacing lookup 0 subtable" dx=5 dy=0 dh=10 dv=0
EndChar

StartChar: Scaron
Encoding: 352 352 141
Width: 500
GlyphClass: 2
Flags: MW
HStem: -8 131<186 227.5 160.5 273.5> 576 132<265.5 342.5> 749 146<188 285 188 296>
VStem: 49 161<484 524 484 566> 307 161<168.5 227>
AnchorPoint: "Anchor-1" 310 877 basechar 0
AnchorPoint: "Anchor-0" 233 0 basechar 0
LayerCount: 2
Fore
SplineSet
399 895 m 1,0,-1
 423 895 l 2,1,2
 442 895 442 895 442 885 c 0,3,4
 442 878 442 878 435 870 c 2,5,-1
 359 768 l 2,6,7
 345 749 345 749 296 749 c 2,8,-1
 285 749 l 2,9,10
 237 749 237 749 226 768 c 2,11,-1
 172 870 l 1,12,13
 169 878 169 878 169 882 c 0,14,15
 169 895 169 895 188 895 c 2,16,-1
 210 895 l 2,17,18
 258 895 258 895 274 871 c 2,19,-1
 299 831 l 1,20,-1
 330 870 l 2,21,22
 348 893 348 893 399 895 c 1,0,-1
216 696.5 m 128,-1,24
 260 708 260 708 321.5 708 c 128,-1,25
 383 708 383 708 432.5 687 c 128,-1,26
 482 666 482 666 482 640 c 0,27,28
 482 619 482 619 458.5 585 c 128,-1,29
 435 551 435 551 418 551 c 0,30,31
 414 551 414 551 400.5 557.5 c 0,32,33
 362.076923077 576 362.076923077 576 320.038461538 576 c 128,-1,34
 278 576 278 576 257 569.5 c 128,-1,35
 236 563 236 563 226.5 552.5 c 0,36,37
 210 534.263157895 210 534.263157895 210 515.131578947 c 128,-1,38
 210 496 210 496 215.5 483.5 c 128,-1,39
 221 471 221 471 237.5 459 c 128,-1,40
 254 447 254 447 263 442 c 0,41,42
 281 432 281 432 339 406.5 c 128,-1,43
 397 381 397 381 432.5 343 c 128,-1,44
 468 305 468 305 468 236.5 c 128,-1,45
 468 168 468 168 445 117 c 128,-1,46
 422 66 422 66 383.5 40.5 c 0,47,48
 310.274509804 -8 310.274509804 -8 218 -8 c 0,49,50
 125.243243243 -8 125.243243243 -8 62 24.5 c 0,51,52
 26 43 26 43 26 70 c 0,53,54
 26 181 26 181 52 181 c 0,55,56
 57 181 57 181 77.5 166.5 c 0,57,58
 139 123 139 123 206 123 c 0,59,60
 247 123 247 123 277 140.5 c 128,-1,61
 307 158 307 158 307 200 c 0,62,63
 307 231.090909091 307 231.090909091 276.5 250.5 c 0,64,65
 247.918032787 268.68852459 247.918032787 268.68852459 214.459016393 282.844262295 c 128,-1,66
 181 297 181 297 167 304 c 0,67,68
 112 331 112 331 80.5 370 c 128,-1,69
 49 409 49 409 49 475 c 128,-1,70
 49 541 49 541 72 587.5 c 128,-1,71
 95 634 95 634 133.5 659.5 c 128,-1,23
 172 685 172 685 216 696.5 c 128,-1,24
EndSplineSet
Position2: "'cpsp' Capital Spacing lookup 0 subtable" dx=5 dy=0 dh=10 dv=0
EndChar

